0
SECTION
2
HEADER
9
$INSUNITS
70
4
9
$ACADVER
1
AC1014
9
$HANDSEED
5
FFFF
0
ENDSEC
0
SECTION
2
TABLES
0
TABLE
2
VPORT
5
8
100
AcDbSymbolTable
0
ENDTAB
0
TABLE
2
LTYPE
5
5
100
AcDbSymbolTable
0
LTYPE
5
14
100
AcDbSymbolTableRecord
100
AcDbLinetypeTableRecord
2
BYBLOCK
70
0
0
LTYPE
5
15
100
AcDbSymbolTableRecord
100
AcDbLinetypeTableRecord
2
BYLAYER
70
0
0
ENDTAB
0
TABLE
2
LAYER
5
2
100
AcDbSymbolTable
70
2
0
LAYER
5
50
100
AcDbSymbolTableRecord
100
AcDbLayerTableRecord
2
0
70
0
6
CONTINUOUS
0
ENDTAB
0
TABLE
2
STYLE
5
3
100
AcDbSymbolTable
70
1
0
STYLE
5
11
100
AcDbSymbolTableRecord
100
AcDbTextStyleTableRecord
2
STANDARD
70
0
0
ENDTAB
0
TABLE
2
VIEW
5
6
100
AcDbSymbolTable
70
0
0
ENDTAB
0
TABLE
2
UCS
5
7
100
AcDbSymbolTable
70
0
0
ENDTAB
0
TABLE
2
APPID
5
9
100
AcDbSymbolTable
70
2
0
APPID
5
12
100
AcDbSymbolTableRecord
100
AcDbRegAppTableRecord
2
ACAD
70
0
0
ENDTAB
0
TABLE
2
DIMSTYLE
5
A
100
AcDbSymbolTable
70
1
0
ENDTAB
0
TABLE
2
BLOCK_RECORD
5
1
100
AcDbSymbolTable
70
1
0
BLOCK_RECORD
5
1F
100
AcDbSymbolTableRecord
100
AcDbBlockTableRecord
2
*MODEL_SPACE
0
BLOCK_RECORD
5
1B
100
AcDbSymbolTableRecord
100
AcDbBlockTableRecord
2
*PAPER_SPACE
0
ENDTAB
0
ENDSEC
0
SECTION
2
BLOCKS
0
BLOCK
5
20
100
AcDbEntity
100
AcDbBlockBegin
2
*MODEL_SPACE
0
ENDBLK
5
21
100
AcDbEntity
100
AcDbBlockEnd
0
BLOCK
5
1C
100
AcDbEntity
100
AcDbBlockBegin
2
*PAPER_SPACE
0
ENDBLK
5
1D
100
AcDbEntity
100
AcDbBlockEnd
0
ENDSEC
0
SECTION
2
ENTITIES
0
LINE
5
100
100
AcDbEntity
8
0
100
AcDbLine
10
102.86519383720503
20
-100.19285271800879
30
0
11
119.01936754902772
21
-100.2611637111122
31
0
0
ARC
5
101
100
AcDbEntity
8
0
100
AcDbCircle
10
103.27537310146676
20
-3.1937199746129954
30
0
40
96.999999999998721
210
0
220
0
230
1
100
AcDbArc
50
249.78517635209619
51
269.75771535332979
0
LINE
5
102
100
AcDbEntity
8
0
100
AcDbLine
10
69.757896515930256
20
-94.218874538270626
30
0
11
61.005761906167919
21
-90.996144862475049
31
0
0
ARC
5
103
100
AcDbEntity
8
0
100
AcDbCircle
10
25.415039346268635
20
-187.65172135789942
30
0
40
102.99999999999299
210
0
220
-0
230
1
100
AcDbArc
50
69.78517635209522
51
85.160644477229951
0
LINE
5
104
100
AcDbEntity
8
0
100
AcDbLine
10
34.104356039521974
20
-85.01890119104003
30
0
11
8.5883000328694159
21
-82.858606939706689
31
0
0
ARC
5
105
100
AcDbEntity
8
0
100
AcDbCircle
10
8.757024628855028
20
-80.865736645204123
30
0
40
2.0000023796305824
210
0
220
0
230
1
100
AcDbArc
50
175.24902906615708
51
265.16064447722789
0
LINE
5
106
100
AcDbEntity
8
0
100
AcDbLine
10
6.7638940592257848
20
-80.700086257527545
30
0
11
13.308017415128081
21
-5.2513483164010122
31
0
0
ARC
5
107
100
AcDbEntity
8
0
100
AcDbCircle
10
16.296795984717466
20
-5.5105830786594971
30
0
40
2.9999999999999973
210
0
220
-0
230
1
100
AcDbArc
50
85.047589356380826
51
175.04279843136959
0
LINE
5
108
100
AcDbEntity
8
0
100
AcDbLine
10
16.555780832129997
20
-2.5217828429778462
30
0
11
86.57382135053831
21
-8.5889703797342278
31
0
0
LINE
5
109
100
AcDbEntity
8
0
100
AcDbLine
10
110.58133348510042
20
-8.5861135055067841
30
0
11
86.57382135053831
21
-8.5889703797342278
31
0
0
LINE
5
110
100
AcDbEntity
8
0
100
AcDbLine
10
111.42740277687624
20
-8.5854219899528346
30
0
11
110.58133348510042
21
-8.5861135055067841
31
0
0
LINE
5
111
100
AcDbEntity
8
0
100
AcDbLine
10
111.42740277687624
20
-8.5854219899528346
30
0
11
111.92693759600328
21
-8.5833750870323051
31
0
0
ARC
5
112
100
AcDbEntity
8
0
100
AcDbCircle
10
111.92284001229515
20
-7.5833834821636845
30
0
40
0.99999999999998246
210
0
220
0
230
1
100
AcDbArc
50
-89.765225090333431
51
0.023414697971527523
0
LINE
5
113
100
AcDbEntity
8
0
100
AcDbLine
10
112.92283992879219
20
-7.5829748186017358
30
0
11
112.92161276763304
21
-4.5801109203775328
31
0
0
ARC
5
114
100
AcDbEntity
8
0
100
AcDbCircle
10
114.92161260062714
20
-4.57929359325367
30
0
40
2.0000000000000129
210
0
220
-0
230
1
100
AcDbArc
50
90
51
180.02341469797153
0
LINE
5
115
100
AcDbEntity
8
0
100
AcDbLine
10
114.92161260062714
20
-2.5792935932536576
30
0
11
122.923247087596
21
-2.5792935932537548
31
0
0
ARC
5
116
100
AcDbEntity
8
0
100
AcDbCircle
10
122.92324708759595
20
-4.5792935932537802
30
0
40
2.0000000000000284
210
0
220
-0
230
1
100
AcDbArc
50
0
51
89.999999999998778
0
LINE
5
117
100
AcDbEntity
8
0
100
AcDbLine
10
124.92324708759595
20
-7.579292591218322
30
0
11
124.92324708759598
21
-4.5792935932537784
31
0
0
ARC
5
118
100
AcDbEntity
8
0
100
AcDbCircle
10
125.92324708759591
20
-7.5792925912183717
30
0
40
0.99999999999996092
210
0
220
0
230
1
100
AcDbArc
50
180
51
270.0000000000008
0
LINE
5
119
100
AcDbEntity
8
0
100
AcDbLine
10
125.9791619440722
20
-8.5792925912183353
30
0
11
125.92324708759593
21
-8.5792925912183353
31
0
0
LINE
5
120
100
AcDbEntity
8
0
100
AcDbLine
10
125.9791619440722
20
-8.5792925912183353
30
0
11
127.27211376361213
21
-8.5792925912183513
31
0
0
LINE
5
121
100
AcDbEntity
8
0
100
AcDbLine
10
127.27211376361213
20
-8.5792925912183513
30
0
11
151.27962021438154
21
-8.5625274752893645
31
0
0
LINE
5
122
100
AcDbEntity
8
0
100
AcDbLine
10
221.29267846941269
20
-2.4381143261583342
30
0
11
151.27962021438154
21
-8.5625274752893645
31
0
0
ARC
5
123
100
AcDbEntity
8
0
100
AcDbCircle
10
221.55410605761722
20
-5.4267018882227012
30
0
40
3.0000000000000644
210
0
220
-0
230
1
100
AcDbArc
50
5.0040309646055592
51
94.999240039592777
0
LINE
5
124
100
AcDbEntity
8
0
100
AcDbLine
10
231.14845921424285
20
-80.608388454247475
30
0
11
224.54267174933443
21
-5.165024402963895
31
0
0
ARC
5
125
100
AcDbEntity
8
0
100
AcDbCircle
10
229.15546470088634
20
-80.775667826134523
30
0
40
2.0000000000002709
210
0
220
0
230
1
100
AcDbArc
50
-85.113815081252781
51
4.7978003298174725
0
LINE
5
126
100
AcDbEntity
8
0
100
AcDbLine
10
203.81153625027667
20
-84.949548044510422
30
0
11
229.32581806732571
21
-82.768399551817595
31
0
0
ARC
5
127
100
AcDbEntity
8
0
100
AcDbCircle
10
212.58473462189761
20
-187.57523191716842
30
0
40
102.99999999999295
210
0
220
0
230
1
100
AcDbArc
50
94.886184918744448
51
110.26165304387918
0
LINE
5
128
100
AcDbEntity
8
0
100
AcDbLine
10
168.16552706969847
20
-94.178658922096034
30
0
11
176.91502473198793
21
-90.948776966320551
31
0
0
ARC
5
129
100
AcDbEntity
8
0
100
AcDbCircle
10
134.57366435784149
20
-3.1809295023599393
30
0
40
96.999999999998735
210
0
220
0
230
1
100
AcDbArc
50
270.28911404264448
51
290.2616530438782
0
LINE
5
130
100
AcDbEntity
8
0
100
AcDbLine
10
135.06312350064718
20
-100.17969459628922
30
0
11
118.90901101693223
21
-100.26120880980946
31
0
0
LINE
5
131
100
AcDbEntity
8
0
100
AcDbLine
10
28.836874598230899
20
-5.5936622163301442
30
0
11
15.885421872201135
21
-4.4712228141428021
31
0
0
LINE
5
132
100
AcDbEntity
8
0
100
AcDbLine
10
29.291836672293954
20
-6.1349658443196065
30
0
11
28.169397270106664
21
-19.086418570349359
31
0
0
LINE
5
133
100
AcDbEntity
8
0
100
AcDbLine
10
27.628093642117122
20
-19.541380644412445
30
0
11
14.676640916087429
21
-18.418941242225102
31
0
0
LINE
5
134
100
AcDbEntity
8
0
100
AcDbLine
10
14.719811593050629
20
-17.920808391280559
30
0
11
28.793703921267699
21
-6.0917950672746883
31
0
0
LINE
5
135
100
AcDbEntity
8
0
100
AcDbLine
10
15.842251095156215
20
-4.9693555651691117
30
0
11
27.671264419162043
21
-19.043247893386138
31
0
0
ENDSEC
0
SECTION
2
OBJECTS
0
DICTIONARY
5
C
100
AcDbDictionary
3
ACAD_GROUP
350
D
3
ACAD_MLINESTYLE
350
17
0
DICTIONARY
5
D
100
AcDbDictionary
0
DICTIONARY
5
1A
330
C
100
AcDbDictionary
0
DICTIONARY
5
17
100
AcDbDictionary
0
ENDSEC
0
EOF
