0
SECTION
2
HEADER
9
$INSUNITS
70
4
9
$ACADVER
1
AC1014
9
$HANDSEED
5
FFFF
0
ENDSEC
0
SECTION
2
TABLES
0
TABLE
2
VPORT
5
8
100
AcDbSymbolTable
0
ENDTAB
0
TABLE
2
LTYPE
5
5
100
AcDbSymbolTable
0
LTYPE
5
14
100
AcDbSymbolTableRecord
100
AcDbLinetypeTableRecord
2
BYBLOCK
70
0
0
LTYPE
5
15
100
AcDbSymbolTableRecord
100
AcDbLinetypeTableRecord
2
BYLAYER
70
0
0
ENDTAB
0
TABLE
2
LAYER
5
2
100
AcDbSymbolTable
70
2
0
LAYER
5
50
100
AcDbSymbolTableRecord
100
AcDbLayerTableRecord
2
0
70
0
6
CONTINUOUS
0
ENDTAB
0
TABLE
2
STYLE
5
3
100
AcDbSymbolTable
70
1
0
STYLE
5
11
100
AcDbSymbolTableRecord
100
AcDbTextStyleTableRecord
2
STANDARD
70
0
0
ENDTAB
0
TABLE
2
VIEW
5
6
100
AcDbSymbolTable
70
0
0
ENDTAB
0
TABLE
2
UCS
5
7
100
AcDbSymbolTable
70
0
0
ENDTAB
0
TABLE
2
APPID
5
9
100
AcDbSymbolTable
70
2
0
APPID
5
12
100
AcDbSymbolTableRecord
100
AcDbRegAppTableRecord
2
ACAD
70
0
0
ENDTAB
0
TABLE
2
DIMSTYLE
5
A
100
AcDbSymbolTable
70
1
0
ENDTAB
0
TABLE
2
BLOCK_RECORD
5
1
100
AcDbSymbolTable
70
1
0
BLOCK_RECORD
5
1F
100
AcDbSymbolTableRecord
100
AcDbBlockTableRecord
2
*MODEL_SPACE
0
BLOCK_RECORD
5
1B
100
AcDbSymbolTableRecord
100
AcDbBlockTableRecord
2
*PAPER_SPACE
0
ENDTAB
0
ENDSEC
0
SECTION
2
BLOCKS
0
BLOCK
5
20
100
AcDbEntity
100
AcDbBlockBegin
2
*MODEL_SPACE
0
ENDBLK
5
21
100
AcDbEntity
100
AcDbBlockEnd
0
BLOCK
5
1C
100
AcDbEntity
100
AcDbBlockBegin
2
*PAPER_SPACE
0
ENDBLK
5
1D
100
AcDbEntity
100
AcDbBlockEnd
0
ENDSEC
0
SECTION
2
ENTITIES
0
CIRCLE
5
100
100
AcDbEntity
8
0
100
AcDbCircle
10
-118.95049354680242
20
38.12711242222597
30
0
40
6.999999999999992
210
0
220
0
230
1
0
CIRCLE
5
101
100
AcDbEntity
8
0
100
AcDbCircle
10
-106.90375481505798
20
74.53257514342917
30
0
40
1.5000000000000036
210
0
220
0
230
1
0
CIRCLE
5
102
100
AcDbEntity
8
0
100
AcDbCircle
10
-111.22239998791342
20
6.7948149703016831
30
0
40
1.5000000000000036
210
0
220
0
230
1
0
CIRCLE
5
103
100
AcDbEntity
8
0
100
AcDbCircle
10
-126.63566265434567
20
6.7892634951012347
30
0
40
1.5000000000000036
210
0
220
0
230
1
0
CIRCLE
5
104
100
AcDbEntity
8
0
100
AcDbCircle
10
-131.01078981289311
20
74.514206674232895
30
0
40
1.5000000000000036
210
0
220
0
230
1
0
LINE
5
105
100
AcDbEntity
8
0
100
AcDbLine
10
-134.96094576545352
20
75.776662147334207
30
0
11
-134.22510213749149
21
67.373698349443316
31
0
0
LINE
5
106
100
AcDbEntity
8
0
100
AcDbLine
10
-134.22510213749149
20
67.373698349443316
30
0
11
-134.22042417026142
21
67.374107625862194
31
0
0
LINE
5
107
100
AcDbEntity
8
0
100
AcDbLine
10
-134.22042417026142
20
67.374107625862194
30
0
11
-129.15667584990015
21
9.4951901054089571
31
0
0
LINE
5
108
100
AcDbEntity
8
0
100
AcDbLine
10
-129.15667584990015
20
9.4951901054089571
30
0
11
-128.82078261931849
21
5.6559129117168672
31
0
0
ARC
5
109
100
AcDbEntity
8
0
100
AcDbCircle
10
-127.77477818632215
20
5.7474264416019007
30
0
40
1.0499999999999969
210
0
220
0
230
1
100
AcDbArc
50
184.99999999999955
51
270.03205457618822
0
LINE
5
110
100
AcDbEntity
8
0
100
AcDbLine
10
-127.77419075556324
20
4.6974266059232974
30
0
11
-110.08115979233054
21
4.7073251128113167
31
0
0
ARC
5
111
100
AcDbEntity
8
0
100
AcDbCircle
10
-110.08174722308942
20
5.7573249484899014
30
0
40
1.0499999999999772
210
-0
220
0
230
1
100
AcDbArc
50
270.03205457618662
51
355.00000000000085
0
LINE
5
112
100
AcDbEntity
8
0
100
AcDbLine
10
-109.03574279009311
20
5.6658114186048785
30
0
11
-108.69975094344801
21
9.506215799059845
31
0
0
LINE
5
113
100
AcDbEntity
8
0
100
AcDbLine
10
-108.6997508835947
20
9.5062157938233494
30
0
11
-103.68086729615467
21
67.389033788773318
31
0
0
LINE
5
114
100
AcDbEntity
8
0
100
AcDbLine
10
-103.68086730078844
20
67.389033789176111
30
0
11
-102.62917326025168
21
79.4879079254804
31
0
0
LINE
5
115
100
AcDbEntity
8
0
100
AcDbLine
10
-102.62917326025168
20
79.4879079254804
30
0
11
-104.53072090895235
21
80.178255125053894
31
0
0
LINE
5
116
100
AcDbEntity
8
0
100
AcDbLine
10
-104.53072091543824
20
80.178255107212891
30
0
11
-107.74858347044497
21
81.348070794933193
31
0
0
ARC
5
117
100
AcDbEntity
8
0
100
AcDbCircle
10
-118.92489609321913
20
86.239904414141762
30
0
40
12.200000000000015
210
0
220
0
230
1
100
AcDbArc
50
203.58535521532116
51
336.36117007532118
0
LINE
5
118
100
AcDbEntity
8
0
100
AcDbLine
10
-130.10576944365877
20
81.358503885458489
30
0
11
-135.28579882571367
21
79.473133102015311
31
0
0
LINE
5
119
100
AcDbEntity
8
0
100
AcDbLine
10
-135.28579882571367
20
79.473133102015311
30
0
11
-134.96094577502834
21
75.776662146495752
31
0
0
LWPOLYLINE
5
120
100
AcDbEntity
8
0
100
AcDbPolyline
90
15
70
1
43
0.0
10
-102.62917326025168
20
79.4879079254804
10
-104.53072090895235
20
80.178255125053894
10
-107.74858347044497
20
81.348070794933207
42
-0.65423095790668928
10
-130.10576944365877
20
81.358503885458489
10
-135.28579882571367
20
79.473133102015311
10
-134.96094576545352
20
75.776662147334207
10
-134.22510213749149
20
67.373698349443316
10
-134.22042417026142
20
67.374107625862194
10
-129.15667584990015
20
9.4951901054089571
10
-128.82078261931849
20
5.6559129117168672
42
0.38903975632426097
10
-127.77419075556324
20
4.6974266059232974
10
-110.08115979233054
20
4.7073251128113167
42
0.38871772489712669
10
-109.03574279009311
20
5.6658114186048785
10
-108.69975094344801
20
9.506215799059845
10
-103.68086729615467
20
67.389033788773318
0
CIRCLE
5
121
100
AcDbEntity
8
0
100
AcDbCircle
10
-118.95049354680242
20
38.12711242222597
30
0
40
6.999999999999992
210
0
220
0
230
1
0
CIRCLE
5
122
100
AcDbEntity
8
0
100
AcDbCircle
10
-126.63566265434567
20
6.7892634951012347
30
0
40
1.5000000000000036
210
0
220
0
230
1
0
CIRCLE
5
123
100
AcDbEntity
8
0
100
AcDbCircle
10
-111.22239998791342
20
6.7948149703016831
30
0
40
1.5000000000000036
210
0
220
0
230
1
0
CIRCLE
5
124
100
AcDbEntity
8
0
100
AcDbCircle
10
-106.90375481505798
20
74.53257514342917
30
0
40
1.5000000000000036
210
0
220
0
230
1
0
CIRCLE
5
125
100
AcDbEntity
8
0
100
AcDbCircle
10
-131.01078981289311
20
74.514206674232895
30
0
40
1.5000000000000036
210
0
220
0
230
1
0
ENDSEC
0
SECTION
2
OBJECTS
0
DICTIONARY
5
C
100
AcDbDictionary
3
ACAD_GROUP
350
D
3
ACAD_MLINESTYLE
350
17
0
DICTIONARY
5
D
100
AcDbDictionary
0
DICTIONARY
5
1A
330
C
100
AcDbDictionary
0
DICTIONARY
5
17
100
AcDbDictionary
0
ENDSEC
0
EOF
