<?xml version="1.0" encoding="UTF-8" standalone="no"?>
<svg
   viewBox="0 0 793.7007874015749 1122.5196850393702"
   width="793.7007874015749"
   height="1122.5196850393702"
   version="1.1"
   id="svg217"
   sodipodi:docname="plate_sketch_ink.svg"
   inkscape:version="1.2.1 (9c6d41e410, 2022-07-14)"
   xmlns:inkscape="http://www.inkscape.org/namespaces/inkscape"
   xmlns:sodipodi="http://sodipodi.sourceforge.net/DTD/sodipodi-0.dtd"
   xmlns="http://www.w3.org/2000/svg"
   xmlns:svg="http://www.w3.org/2000/svg">
  <sodipodi:namedview
     id="namedview219"
     pagecolor="#ffffff"
     bordercolor="#000000"
     borderopacity="0.25"
     inkscape:showpageshadow="2"
     inkscape:pageopacity="0.0"
     inkscape:pagecheckerboard="0"
     inkscape:deskcolor="#d1d1d1"
     showgrid="false"
     inkscape:zoom="0.72515434"
     inkscape:cx="628.83165"
     inkscape:cy="1305.9289"
     inkscape:window-width="1888"
     inkscape:window-height="1023"
     inkscape:window-x="14"
     inkscape:window-y="14"
     inkscape:window-maximized="1"
     inkscape:current-layer="g215" />
  <desc
     id="desc25">plate_sketch.dxf - scale = 1.000000, origin = (0.000000, 0.000000), method = manual</desc>
  <defs
     id="defs39">
    <marker
       id="DistanceX"
       orient="auto"
       refX="0.0"
       refY="0.0"
       style="overflow:visible">
      <path
         d="M 3,-3 L -3,3 M 0,-5 L  0,5"
         style="stroke:#000000; stroke-width:0.5"
         id="path27" />
    </marker>
    <pattern
       id="Hatch"
       patternUnits="userSpaceOnUse"
       width="8"
       height="8"
       x="0"
       y="0">
      <path
         d="M8 4 l-4,4"
         stroke="#000000"
         stroke-width="0.25"
         linecap="square"
         id="path30" />
      <path
         d="M6 2 l-4,4"
         stroke="#000000"
         stroke-width="0.25"
         linecap="square"
         id="path32" />
      <path
         d="M4 0 l-4,4"
         stroke="#000000"
         stroke-width="0.25"
         linecap="square"
         id="path34" />
    </pattern>
    <symbol
       id="*MODEL_SPACE" />
    <symbol
       id="*PAPER_SPACE" />
  </defs>
  <g
     inkscape:groupmode="layer"
     inkscape:label="0"
     id="g215">
    <path
       style="fill:none;stroke:#000000"
       d="M 476.056 1293.06 L 423.143 1293.1"
       id="path41" />
    <path
       d="M 558.292152,1235.922465 L 560.174724,1235.757761 L 560.339855,1237.645235 L 564.622153,1286.592124 L 564.786857,1288.474697 L 562.904284,1288.639401 L 513.957395,1292.921699 L 512.074822,1293.086402 L 511.910119,1291.203830 L 507.627821,1242.256941 L 507.463117,1240.374368 L 509.346134,1240.205085 L 558.292152,1235.922465 z"
       style="fill:none;stroke:#000000"
       id="path43" />
    <path
       d="M 247.883388,1208.810047 L 198.933015,1204.567757 L 197.050304,1204.404642 L 197.213474,1202.521885 L 201.454446,1153.571401 L 201.618925,1151.688856 L 203.501636,1151.851970 L 252.452009,1156.094261 L 254.334717,1156.257401 L 254.171550,1158.140133 L 249.929260,1207.090506 L 249.766095,1208.973212 L 247.883388,1208.810047 z"
       style="fill:none;stroke:#000000"
       id="path45" />
    <path
       style="fill:none;stroke:#000000"
       d="M 476.056 1293.06 L 476.011 1240.14"
       id="path47" />
    <path
       d="M 475.994292,1221.056181 L 475.948910,1168.142815 L 423.035542,1168.186062 L 423.080925,1221.101562 L 475.994292,1221.056181 z"
       style="fill:none;stroke:#000000"
       id="path49" />
    <path
       style="fill:none;stroke:#000000"
       d="M 475.949 1168.16 L 475.947 1221.08"
       id="path51" />
    <path
       d="M 491.054725,1448.465780 A 41.574803,41.574803 0.000000 0, 0 407.905119,1448.465780 A 41.574803,41.574803 0.000000 0, 0 491.054725,1448.465780 z"
       style="fill:none;stroke:#000000"
       id="path53" />
    <path
       d="M 328.079380,1360.300013 L 332.648000,1307.584227 L 385.363786,1312.152848 L 380.795166,1364.868634 L 328.079380,1360.300013 z"
       style="fill:none;stroke:#000000"
       id="path55" />
    <path
       d="M 423.159046,1312.188138 L 423.109639,1365.101501 L 476.023006,1365.056120 L 476.072412,1312.142757 L 423.159046,1312.188138 z"
       style="fill:none;stroke:#000000"
       id="path57" />
    <path
       d="M 234.162092,1449.985696 L 182.045087,1440.839977 L 191.190806,1388.722972 L 243.307811,1397.868691 L 234.162092,1449.985696 z"
       style="fill:none;stroke:#000000"
       id="path59" />
    <path
       d="M 304.797722,1405.647134 L 354.534815,1423.703932 L 336.478016,1473.441025 L 286.740923,1455.384227 L 304.797722,1405.647134 z"
       style="fill:none;stroke:#000000"
       id="path63" />
    <path
       style="fill:none;stroke:#000000"
       d="M 423.143 1293.1 L 423.097 1240.19"
       id="path65" />
    <path
       style="fill:none;stroke:#000000"
       d="M 423.036 1168.19 L 423.081 1221.1"
       id="path67" />
    <path
       d="M 518.350036,1364.812420 L 571.062070,1360.200715 L 566.450365,1307.488681 L 513.738330,1312.100386 L 518.350036,1364.812420 z"
       style="fill:none;stroke:#000000"
       id="path69" />
    <path
       style="fill:none;stroke:#000000"
       d="M 566.615 1309.37 L 566.45 1307.49"
       id="path71" />
    <path
       d="M 612.478228,1455.251110 L 594.380784,1405.528792 L 544.658466,1423.626236 L 562.755910,1473.348554 L 612.478228,1455.251110 z"
       style="fill:none;stroke:#000000"
       id="path73" />
    <path
       d="M 655.864316,1397.700094 L 665.052629,1449.809607 L 717.162142,1440.621294 L 707.973829,1388.511781 L 655.864316,1397.700094 z"
       style="fill:none;stroke:#000000"
       id="path75" />
    <path
       style="fill:none;stroke:#000000"
       d="M 476.011 1240.14 L 423.097 1240.19"
       id="path77" />
    <path
       style="fill:none;stroke:#000000"
       d="M 449.635 1516.58 L 449.496 1516.58"
       id="path79" />
    <path
       style="fill:none;stroke:#000000"
       d="M 449.635 1516.58 L 449.773 1516.58"
       id="path81" />
    <path
       style="fill:none;stroke:#000000"
       d="M 449.641 1531.7 L 449.572 1531.7"
       id="path83" />
    <path
       style="fill:none;stroke:#000000"
       d="M 449.641 1531.7 L 449.709 1531.7"
       id="path85" />
    <path
       d="M 475.088480,1266.622157 A 25.511811,25.511811 0.000000 0, 0 424.064857,1266.622157 A 25.511811,25.511811 0.000000 0, 0 475.088480,1266.622157 z"
       style="fill:none;stroke:#000000"
       id="path87" />
    <path
       d="M 491.308431,1448.465677 A 41.574803,41.574803 0.000000 0, 0 408.158825,1448.465677 A 41.574803,41.574803 0.000000 0, 0 491.308431,1448.465677 z"
       style="fill:none;stroke:#000000"
       id="path89" />
    <path
       style="fill:none;stroke:#000000"
       d="M 423.143 1293.1 L 476.056 1293.06"
       id="path91" />
    <path
       d="M 268.781645,1210.619303 L 321.497431,1215.187924 L 326.064633,1162.472015 L 273.348847,1157.903394 L 268.781645,1210.619303 z"
       style="fill:none;stroke:#000000"
       id="path93" />
    <path
       d="M 326.064633,1162.472015 L 273.348847,1157.903394 L 268.781645,1210.619303 L 321.497431,1215.187924 L 326.064633,1162.472015 z"
       style="fill:none;stroke:#000000"
       id="path95" />
    <path
       d="M 334.241678,1288.731756 L 338.810299,1236.015970 L 391.526085,1240.584591 L 386.957465,1293.300377 L 334.241678,1288.731756 z"
       style="fill:none;stroke:#000000"
       id="path97" />
    <path
       d="M 262.566263,1282.352426 L 315.282049,1286.921046 L 319.849251,1234.205137 L 267.133465,1229.636516 L 262.566263,1282.352426 z"
       style="fill:none;stroke:#000000"
       id="path99" />
    <path
       d="M 256.349675,1354.083549 L 309.065461,1358.652169 L 313.632663,1305.936260 L 260.916877,1301.367640 L 256.349675,1354.083549 z"
       style="fill:none;stroke:#000000"
       id="path101" />
    <path
       d="M 184.618552,1347.866961 L 237.334338,1352.435582 L 241.901540,1299.719673 L 189.185754,1295.151052 L 184.618552,1347.866961 z"
       style="fill:none;stroke:#000000"
       id="path103" />
    <path
       d="M 248.118128,1227.988549 L 195.402341,1223.419929 L 190.835140,1276.135838 L 243.550926,1280.704458 L 248.118128,1227.988549 z"
       style="fill:none;stroke:#000000"
       id="path105" />
    <path
       d="M 254.333510,1156.255427 L 201.617724,1151.686806 L 197.050522,1204.402715 L 249.766308,1208.971336 L 254.333510,1156.255427 z"
       style="fill:none;stroke:#000000"
       id="path107" />
    <path
       style="fill:none;stroke:#000000"
       d="M 123.508 1219.09 L 123.671 1217.2"
       id="path109" />
    <path
       style="fill:none;stroke:#000000"
       d="M 51.7769 1212.87 L 51.9402 1210.99"
       id="path111" />
    <path
       d="M 182.602387,1150.038839 L 129.886601,1145.470219 L 125.319399,1198.186128 L 178.035185,1202.754748 L 182.602387,1150.038839 z"
       style="fill:none;stroke:#000000"
       id="path113" />
    <path
       d="M 119.104017,1269.919250 L 123.671218,1217.203341 L 176.387004,1221.771962 L 171.819803,1274.487871 L 119.104017,1269.919250 z"
       style="fill:none;stroke:#000000"
       id="path115" />
    <path
       d="M 112.887429,1341.650373 L 165.603215,1346.218994 L 170.170417,1293.503085 L 117.454630,1288.934464 L 112.887429,1341.650373 z"
       style="fill:none;stroke:#000000"
       id="path117" />
    <path
       d="M 110.871396,1143.822263 L 58.155610,1139.253642 L 53.588408,1191.969551 L 106.304194,1196.538172 L 110.871396,1143.822263 z"
       style="fill:none;stroke:#000000"
       id="path119" />
    <path
       d="M 47.373026,1263.702674 L 51.940227,1210.986765 L 104.656014,1215.555385 L 100.088812,1268.271294 L 47.373026,1263.702674 z"
       style="fill:none;stroke:#000000"
       id="path121" />
    <path
       d="M 41.156438,1335.433797 L 93.872224,1340.002418 L 98.439426,1287.286509 L 45.723640,1282.717888 L 41.156438,1335.433797 z"
       style="fill:none;stroke:#000000"
       id="path123" />
    <path
       d="M 33.384152,1425.097566 L 37.952772,1372.381780 L 90.668558,1376.950401 L 86.099938,1429.666187 L 33.384152,1425.097566 z"
       style="fill:none;stroke:#000000"
       id="path125" />
    <path
       d="M 162.399682,1383.166989 L 109.683896,1378.598368 L 105.115275,1431.314154 L 157.831061,1435.882775 L 162.399682,1383.166989 z"
       style="fill:none;stroke:#000000"
       id="path127" />
    <path
       d="M 789.472437,1378.320563 L 794.084142,1431.032598 L 741.372108,1435.644303 L 736.760403,1382.932269 L 789.472437,1378.320563 z"
       style="fill:none;stroke:#000000"
       id="path129" />
    <path
       d="M 861.198455,1372.045350 L 865.810160,1424.757384 L 813.098126,1429.369090 L 808.486421,1376.657055 L 861.198455,1372.045350 z"
       style="fill:none;stroke:#000000"
       id="path131" />
    <path
       d="M 334.241678,1288.731756 L 338.810299,1236.015970 L 391.526085,1240.584591 L 386.957465,1293.300377 L 334.241678,1288.731756 z"
       style="fill:none;stroke:#000000"
       id="path133" />
    <path
       style="fill:none;stroke:#000000"
       d="M 345.081 1164.12 L 397.797 1168.69"
       id="path135" />
    <path
       d="M 340.512555,1216.837767 L 345.081176,1164.121981 L 397.796962,1168.690602 L 393.228341,1221.406388 L 340.512555,1216.837767 z"
       style="fill:none;stroke:#000000"
       id="path137" />
    <path
       d="M 501.187903,1168.648350 L 553.899938,1164.036644 L 558.511643,1216.748679 L 505.799609,1221.360384 L 501.187903,1168.648350 z"
       style="fill:none;stroke:#000000"
       id="path139" />
    <path
       d="M 572.913922,1162.373136 L 577.525627,1215.085171 L 630.237662,1210.473465 L 625.625956,1157.761431 L 572.913922,1162.373136 z"
       style="fill:none;stroke:#000000"
       id="path141" />
    <path
       d="M 631.900743,1229.482548 L 632.065874,1231.370022 L 636.348171,1280.316911 L 636.512875,1282.199484 L 634.630302,1282.364187 L 585.683414,1286.646485 L 583.800841,1286.811189 L 583.636137,1284.928616 L 579.353839,1235.981727 L 579.189135,1234.099155 L 581.072153,1233.929871 L 630.018170,1229.647251 L 631.900743,1229.482548 z"
       style="fill:none;stroke:#000000"
       id="path143" />
    <path
       d="M 590.076054,1358.537207 L 642.788088,1353.925502 L 638.176383,1301.213467 L 585.464349,1305.825172 L 590.076054,1358.537207 z"
       style="fill:none;stroke:#000000"
       id="path145" />
    <path
       d="M 644.639938,1156.097898 L 649.251643,1208.809932 L 701.963678,1204.198227 L 697.351972,1151.486192 L 644.639938,1156.097898 z"
       style="fill:none;stroke:#000000"
       id="path147" />
    <path
       d="M 703.626759,1223.207309 L 703.791890,1225.094783 L 708.074188,1274.041672 L 708.238891,1275.924245 L 706.356319,1276.088949 L 657.409430,1280.371246 L 655.526857,1280.535950 L 655.362153,1278.653378 L 651.079855,1229.706489 L 650.915152,1227.823916 L 652.798169,1227.654632 L 701.744186,1223.372013 L 703.626759,1223.207309 z"
       style="fill:none;stroke:#000000"
       id="path149" />
    <path
       d="M 661.802070,1352.261968 L 714.514105,1347.650263 L 709.902400,1294.938229 L 657.190365,1299.549934 L 661.802070,1352.261968 z"
       style="fill:none;stroke:#000000"
       id="path151" />
    <path
       d="M 788.091977,1143.547496 L 792.703682,1196.259530 L 845.415717,1191.647825 L 840.804011,1138.935790 L 788.091977,1143.547496 z"
       style="fill:none;stroke:#000000"
       id="path153" />
    <path
       d="M 847.078798,1210.656907 L 847.243929,1212.544382 L 851.526226,1261.491270 L 851.690930,1263.373843 L 849.808357,1263.538547 L 800.861469,1267.820845 L 798.978896,1267.985549 L 798.814192,1266.102976 L 794.531894,1217.156087 L 794.367190,1215.273514 L 796.250208,1215.104231 L 845.196225,1210.821611 L 847.078798,1210.656907 z"
       style="fill:none;stroke:#000000"
       id="path155" />
    <path
       d="M 805.254109,1339.711567 L 857.966143,1335.099861 L 853.354438,1282.387827 L 800.642404,1286.999532 L 805.254109,1339.711567 z"
       style="fill:none;stroke:#000000"
       id="path157" />
    <path
       d="M 716.365958,1149.822709 L 720.977664,1202.534744 L 773.689698,1197.923038 L 769.077993,1145.211004 L 716.365958,1149.822709 z"
       style="fill:none;stroke:#000000"
       id="path159" />
    <path
       d="M 775.352779,1216.932121 L 775.517910,1218.819595 L 779.800208,1267.766484 L 779.964912,1269.649057 L 778.082339,1269.813761 L 729.135450,1274.096058 L 727.252877,1274.260762 L 727.088174,1272.378190 L 722.805876,1223.431300 L 722.641172,1221.548728 L 724.524189,1221.379444 L 773.470207,1217.096824 L 775.352779,1216.932121 z"
       style="fill:none;stroke:#000000"
       id="path161" />
    <path
       d="M 733.528091,1345.986780 L 786.240125,1341.375075 L 781.628420,1288.663040 L 728.916385,1293.274746 L 733.528091,1345.986780 z"
       style="fill:none;stroke:#000000"
       id="path163" />
    <path
       style="fill:none;stroke:#000000"
       d="M 289.306 1137.66 L 102.564 1121.48"
       id="path165" />
    <path
       style="fill:none;stroke:#000000"
       d="M 797.512 1121.1 L 609.654 1137.53"
       id="path167" />
    <path
       style="fill:none;stroke:#000000"
       d="M 880.87 1349.52 L 869.288 1217.25"
       id="path169" />
    <path
       style="fill:none;stroke:#000000"
       d="M 791.461 1455.82 L 847.976 1450.98"
       id="path171" />
    <path
       style="fill:none;stroke:#000000"
       d="M 536.962 1515.14 L 536.962 1515.11"
       id="path173" />
    <path
       style="fill:none;stroke:#000000"
       d="M 510.551 1515.14 L 536.962 1515.14"
       id="path175" />
    <path
       style="fill:none;stroke:#000000"
       d="M 510.551 1515.14 L 388.718 1515.19"
       id="path177" />
    <path
       style="fill:none;stroke:#000000"
       d="M 388.718 1515.19 L 362.293 1515.19"
       id="path179" />
    <path
       style="fill:none;stroke:#000000"
       d="M 107.759 1456.1 L 51.24 1451.31"
       id="path181" />
    <path
       style="fill:none;stroke:#000000"
       d="M 18.2612 1349.89 L 29.7363 1217.6"
       id="path183" />
    <path
       d="M 388.765853,1504.980827 L 449.629976,1505.238202 L 510.493869,1504.931081 A 370.393701,370.393701 0.0 0 0 636.895124,1482.016176 L 669.964092,1469.808748 A 385.511811,385.511811 0.0 0 1 770.633246,1447.354635 L 867.065177,1439.110924 A 11.338583,11.338583 0.0 0 0 877.396265,1426.841868 L 852.430338,1141.711365 A 15.118110,15.118110 0.0 0 0 836.052419,1127.969456 L 571.599184,1151.102581 L 481.027142,1151.165830 L 476.141714,1151.165830 L 475.930383,1151.165830 L 472.151029,1151.165830 L 426.794928,1151.179755 L 423.013367,1151.181300 L 421.133652,1151.189003 L 417.943428,1151.191610 L 327.371364,1151.202388 L 62.899310,1128.285415 A 15.118110,15.118110 0.0 0 0 46.532628,1142.040706 L 21.798402,1427.207420 A 11.338592,11.338592 0.0 0 0 32.140866,1439.452137 L 128.579504,1447.617019 A 385.511811,385.511811 0.0 0 1 229.266977,1469.988845 L 262.345911,1482.169240 A 370.393701,370.393701 0.0 0 0 388.765853,1504.980827 z"
       style="fill:none;stroke:#000000"
       id="path185" />
    <path
       style="fill:none;stroke:#000000"
       d="M 362.293 1515.19 L 362.293 1503.92"
       id="path187" />
    <path
       style="fill:none;stroke:#000000"
       d="M 536.962 1515.11 L 536.962 1503.85"
       id="path189" />
    <path
       style="fill:none;stroke:#000000"
       d="M 791.461 1455.82 L 790.592 1445.65"
       id="path191" />
    <path
       style="fill:none;stroke:#000000"
       d="M 847.976 1450.98 L 847.106 1440.82"
       id="path193" />
    <path
       style="fill:none;stroke:#000000"
       d="M 869.288 1217.25 L 859.123 1218.14"
       id="path195" />
    <path
       style="fill:none;stroke:#000000"
       d="M 880.87 1349.52 L 870.704 1350.41"
       id="path197" />
    <path
       style="fill:none;stroke:#000000"
       d="M 797.512 1121.1 L 798.401 1131.26"
       id="path199" />
    <path
       style="fill:none;stroke:#000000"
       d="M 609.654 1137.53 L 610.543 1147.7"
       id="path201" />
    <path
       style="fill:none;stroke:#000000"
       d="M 289.306 1137.66 L 288.425 1147.83"
       id="path203" />
    <path
       style="fill:none;stroke:#000000"
       d="M 102.564 1121.48 L 101.683 1131.65"
       id="path205" />
    <path
       style="fill:none;stroke:#000000"
       d="M 29.7363 1217.6 L 39.9027 1218.48"
       id="path207" />
    <path
       style="fill:none;stroke:#000000"
       d="M 18.2612 1349.89 L 28.4278 1350.78"
       id="path209" />
    <path
       style="fill:none;stroke:#000000"
       d="M 107.759 1456.1 L 108.619 1445.93"
       id="path211" />
    <path
       style="fill:none;stroke:#000000"
       d="M 51.24 1451.31 L 52.1009 1441.14"
       id="path213" />
  </g>
</svg>
