0
SECTION
2
HEADER
9
$INSUNITS
70
4
9
$ACADVER
1
AC1014
9
$HANDSEED
5
FFFF
0
ENDSEC
0
SECTION
2
TABLES
0
TABLE
2
VPORT
5
8
100
AcDbSymbolTable
0
ENDTAB
0
TABLE
2
LTYPE
5
5
100
AcDbSymbolTable
0
LTYPE
5
14
100
AcDbSymbolTableRecord
100
AcDbLinetypeTableRecord
2
BYBLOCK
70
0
0
LTYPE
5
15
100
AcDbSymbolTableRecord
100
AcDbLinetypeTableRecord
2
BYLAYER
70
0
0
ENDTAB
0
TABLE
2
LAYER
5
2
100
AcDbSymbolTable
70
2
0
LAYER
5
50
100
AcDbSymbolTableRecord
100
AcDbLayerTableRecord
2
0
70
0
6
CONTINUOUS
0
ENDTAB
0
TABLE
2
STYLE
5
3
100
AcDbSymbolTable
70
1
0
STYLE
5
11
100
AcDbSymbolTableRecord
100
AcDbTextStyleTableRecord
2
STANDARD
70
0
0
ENDTAB
0
TABLE
2
VIEW
5
6
100
AcDbSymbolTable
70
0
0
ENDTAB
0
TABLE
2
UCS
5
7
100
AcDbSymbolTable
70
0
0
ENDTAB
0
TABLE
2
APPID
5
9
100
AcDbSymbolTable
70
2
0
APPID
5
12
100
AcDbSymbolTableRecord
100
AcDbRegAppTableRecord
2
ACAD
70
0
0
ENDTAB
0
TABLE
2
DIMSTYLE
5
A
100
AcDbSymbolTable
70
1
0
ENDTAB
0
TABLE
2
BLOCK_RECORD
5
1
100
AcDbSymbolTable
70
1
0
BLOCK_RECORD
5
1F
100
AcDbSymbolTableRecord
100
AcDbBlockTableRecord
2
*MODEL_SPACE
0
BLOCK_RECORD
5
1B
100
AcDbSymbolTableRecord
100
AcDbBlockTableRecord
2
*PAPER_SPACE
0
ENDTAB
0
ENDSEC
0
SECTION
2
BLOCKS
0
BLOCK
5
20
100
AcDbEntity
100
AcDbBlockBegin
2
*MODEL_SPACE
0
ENDBLK
5
21
100
AcDbEntity
100
AcDbBlockEnd
0
BLOCK
5
1C
100
AcDbEntity
100
AcDbBlockBegin
2
*PAPER_SPACE
0
ENDBLK
5
1D
100
AcDbEntity
100
AcDbBlockEnd
0
ENDSEC
0
SECTION
2
ENTITIES
0
LINE
5
100
100
AcDbEntity
8
0
100
AcDbLine
10
102.85969658933347
20
-101.49284109498218
30
0
11
119.01387030115617
21
-101.56115208808556
31
0
0
ARC
5
101
100
AcDbEntity
8
0
100
AcDbCircle
10
103.27537310146676
20
-3.1937199746129954
30
0
40
98.299999999998718
210
0
220
0
230
1
100
AcDbArc
50
249.78517635209619
51
269.75771535332979
0
LINE
5
102
100
AcDbEntity
8
0
100
AcDbLine
10
69.308693221484901
20
-95.438799290154719
30
0
11
60.556558611722551
21
-92.216069614359114
31
0
0
ARC
5
103
100
AcDbEntity
8
0
100
AcDbCircle
10
25.415039346268635
20
-187.65172135789942
30
0
40
101.699999999993
210
0
220
-0
230
1
100
AcDbArc
50
69.785176352095235
51
85.160644477229951
0
LINE
5
104
100
AcDbEntity
8
0
100
AcDbLine
10
33.994685052131395
20
-86.314266882466498
30
0
11
8.4786288447277087
21
-84.15397500228039
31
0
0
ARC
5
105
100
AcDbEntity
8
0
100
AcDbCircle
10
8.757024628855028
20
-80.865736645204123
30
0
40
3.3000023796305826
210
0
220
0
230
1
100
AcDbArc
50
175.20334876633999
51
265.16064447722789
0
LINE
5
106
100
AcDbEntity
8
0
100
AcDbLine
10
5.4685796882798829
20
-80.589791762350245
30
0
11
12.012880034972682
21
-5.1390132527556673
31
0
0
ARC
5
107
100
AcDbEntity
8
0
100
AcDbCircle
10
16.296795984717466
20
-5.5105830786594971
30
0
40
4.2999999999999963
210
0
220
-0
230
1
100
AcDbArc
50
85.047589356381025
51
175.04279843136959
0
LINE
5
108
100
AcDbEntity
8
0
100
AcDbLine
10
16.668007599342079
20
-1.2266360741824616
30
0
11
86.629962467792424
21
-7.2889636897828591
31
0
0
LINE
5
109
100
AcDbEntity
8
0
100
AcDbLine
10
110.5807248729754
20
-7.2861135687266039
30
0
11
86.629962467792424
21
-7.2889636897828591
31
0
0
LINE
5
110
100
AcDbEntity
8
0
100
AcDbLine
10
111.42420807628591
20
-7.2854241668534314
30
0
11
110.5807248729754
21
-7.2861135687266039
31
0
0
LINE
5
111
100
AcDbEntity
8
0
100
AcDbLine
10
111.42420807628591
20
-7.2854241668534314
30
0
11
111.92161073718268
21
-7.283386000703076
31
0
0
LINE
5
112
100
AcDbEntity
8
0
100
AcDbLine
10
111.92161073718268
20
-7.283386000703076
30
0
11
112.92271733055777
21
-7.2829768848825829
31
0
0
LINE
5
113
100
AcDbEntity
8
0
100
AcDbLine
10
112.92271733055777
20
-7.2829768848825829
30
0
11
124.92324708759595
21
-7.2792925912183239
31
0
0
LINE
5
114
100
AcDbEntity
8
0
100
AcDbLine
10
125.92324708759593
20
-7.2792925912183346
30
0
11
124.92324708759595
21
-7.2792925912183239
31
0
0
LINE
5
115
100
AcDbEntity
8
0
100
AcDbLine
10
125.97916194407222
20
-7.2792925912183346
30
0
11
125.92324708759593
21
-7.2792925912183346
31
0
0
LINE
5
116
100
AcDbEntity
8
0
100
AcDbLine
10
125.97916194407222
20
-7.2792925912183346
30
0
11
127.27165985041415
21
-7.2792925912183506
31
0
0
LINE
5
117
100
AcDbEntity
8
0
100
AcDbLine
10
127.27165985041415
20
-7.2792925912183506
30
0
11
151.22241658523922
21
-7.2625671052096452
31
0
0
LINE
5
118
100
AcDbEntity
8
0
100
AcDbLine
10
221.1793931811907
20
-1.1430597159304468
30
0
11
151.22241658523922
21
-7.2625671052096452
31
0
0
ARC
5
119
100
AcDbEntity
8
0
100
AcDbCircle
10
221.55410605761722
20
-5.4267018882227012
30
0
40
4.3000000000000798
210
0
220
-0
230
1
100
AcDbArc
50
5.0040309646051941
51
94.999240039593133
0
LINE
5
120
100
AcDbEntity
8
0
100
AcDbLine
10
232.44330419446271
20
-80.492628139020894
30
0
11
225.83771688241185
21
-5.0516308260184406
31
0
0
ARC
5
121
100
AcDbEntity
8
0
100
AcDbCircle
10
229.15546470088634
20
-80.775667826134523
30
0
40
3.3000000000002672
210
0
220
0
230
1
100
AcDbArc
50
-85.113815081253648
51
4.9202814489925863
0
LINE
5
122
100
AcDbEntity
8
0
100
AcDbLine
10
203.9222659384622
20
-86.244823666204269
30
0
11
229.43654775551124
21
-84.063675173511427
31
0
0
ARC
5
123
100
AcDbEntity
8
0
100
AcDbCircle
10
212.58473462189761
20
-187.57523191716842
30
0
40
101.69999999999293
210
0
220
0
230
1
100
AcDbArc
50
94.886184918744434
51
110.26165304387921
0
LINE
5
124
100
AcDbEntity
8
0
100
AcDbLine
10
168.61572729160997
20
-95.398216120504941
30
0
11
177.36522495389943
21
-92.168334164729401
31
0
0
ARC
5
125
100
AcDbEntity
8
0
100
AcDbCircle
10
134.57366435784149
20
-3.1809295023599393
30
0
40
98.299999999998704
210
0
220
0
230
1
100
AcDbArc
50
270.28911404264448
51
290.2616530438782
0
LINE
5
126
100
AcDbEntity
8
0
100
AcDbLine
10
135.06968326235489
20
-101.47967804600169
30
0
11
118.91557077863993
21
-101.56119225952193
31
0
0
LINE
5
127
100
AcDbEntity
8
0
100
AcDbLine
10
34.322977927422542
20
-6.5709904020892305
30
0
11
33.200538525235146
21
-19.522443128118983
31
0
0
LINE
5
128
100
AcDbEntity
8
0
100
AcDbLine
10
112.92271733055777
20
-7.2829768848825829
30
0
11
124.92324708759595
21
-7.2792925912183239
31
0
0
ARC
5
129
100
AcDbEntity
8
0
100
AcDbCircle
10
16.296795984717466
20
-5.5105830786594971
30
0
40
2.9999999999999973
210
0
220
-0
230
1
100
AcDbArc
50
85.047589356380826
51
175.04279843136959
0
ARC
5
130
100
AcDbEntity
8
0
100
AcDbCircle
10
27.671264419162043
20
-19.043247893386138
30
0
40
0.49999999999999495
210
0
220
0
230
1
100
AcDbArc
50
265.04682939597745
51
355.04682939597512
0
LINE
5
131
100
AcDbEntity
8
0
100
AcDbLine
10
27.628093642117122
20
-19.541380644412445
30
0
11
14.676640916087429
21
-18.418941242225102
31
0
0
ARC
5
132
100
AcDbEntity
8
0
100
AcDbCircle
10
31.531499750600389
20
-44.571880445474115
30
0
40
0.49999999999999811
210
0
220
-0
230
1
100
AcDbArc
50
85.046829395973432
51
175.04682939597515
0
ARC
5
133
100
AcDbEntity
8
0
100
AcDbCircle
10
15.842251095156215
20
-4.9693555651691117
30
0
40
0.50000000000000444
210
0
220
-0
230
1
100
AcDbArc
50
85.046829395969425
51
175.04682939597427
0
ARC
5
134
100
AcDbEntity
8
0
100
AcDbCircle
10
32.053865762378138
20
-38.544473588374728
30
0
40
0.49999999999996186
210
0
220
0
230
1
100
AcDbArc
50
175.0468293959739
51
265.04682939598155
0
LINE
5
135
100
AcDbEntity
8
0
100
AcDbLine
10
15.344118244211629
20
-4.9261848882058921
30
0
11
15.387291283120668
21
-4.4280256366869946
31
0
0
LINE
5
136
100
AcDbEntity
8
0
100
AcDbLine
10
154.96206983546523
20
-43.425215843672476
30
0
11
167.91260083546524
21
-42.29219124367247
31
0
0
ARC
5
137
100
AcDbEntity
8
0
100
AcDbCircle
10
166.73599833546518
20
-28.843562743672472
30
0
40
0.50000000000004774
210
0
220
-0
230
1
100
AcDbArc
50
4.9999999999998455
51
94.999999999996561
0
LWPOLYLINE
5
138
100
AcDbEntity
8
0
100
AcDbPolyline
90
12
70
1
43
0.0
10
171.78116450734237
20
-22.830967820074601
10
172.27926193546523
20
-22.787389943672473
10
185.22979293546518
20
-21.654365343672474
10
185.7278914575499
20
-21.610800882272333
10
185.68431243546519
20
-21.112690043672472
10
184.55163650619511
20
-8.1621292370505572
10
184.5077110575499
20
-7.6640750822723263
10
184.00961253546518
20
-7.7076395436724701
10
171.05908153546522
20
-8.8406641436724698
10
170.56098360845448
20
-8.8842354083732271
10
170.60456203546522
20
-9.3823394436724694
10
171.73758663546522
20
-22.332870443672469
0
ARC
5
139
100
AcDbEntity
8
0
100
AcDbCircle
10
154.91849193546523
20
-42.927118543672471
30
0
40
0.49999999999999428
210
0
220
0
230
1
100
AcDbArc
50
184.99999999999889
51
274.99999999999977
0
ARC
5
140
100
AcDbEntity
8
0
100
AcDbCircle
10
153.2581750354652
20
-23.949609543672466
30
0
40
0.49999999999999467
210
0
220
0
230
1
100
AcDbArc
50
185.00000000000043
51
275.00000000000307
0
LINE
5
141
100
AcDbEntity
8
0
100
AcDbLine
10
167.23409573546525
20
-28.79998494367247
30
0
11
168.36712033546519
21
-41.750515943672468
31
0
0
LINE
5
142
100
AcDbEntity
8
0
100
AcDbLine
10
125.95649451633621
20
-45.121106303756882
30
0
11
111.95649966527151
21
-45.133113391759743
31
0
0
ARC
5
143
100
AcDbEntity
8
0
100
AcDbCircle
10
147.23119713546521
20
-24.476901743672471
30
0
40
0.49999999999999944
210
0
220
0
230
1
100
AcDbArc
50
-84.999999999996959
51
5.0000000000001377
0
LWPOLYLINE
5
144
100
AcDbEntity
8
0
100
AcDbPolyline
90
12
70
1
43
0.0
10
147.71479844004713
20
-30.004485466290415
10
148.21289578925712
20
-29.960907596792268
10
148.25658673546519
20
-30.460301843672472
10
149.38961133546519
20
-43.410832843672473
10
149.43318921186733
20
-43.908930271795327
10
148.93509183546519
20
-43.952508143672475
10
135.9845608354652
20
-45.085532743672474
10
135.48646345171247
20
-45.129110616192712
10
135.44288558641935
20
-44.631013315046303
10
134.30986088641936
20
-31.680482215046304
10
134.2662830134382
20
-31.182384866141053
10
134.7644980298561
20
-31.137595301649945
0
LINE
5
145
100
AcDbEntity
8
0
100
AcDbLine
10
32.678172413539173
20
-25.549850085300065
30
0
11
31.555733011351812
21
-38.501302811329815
31
0
0
ARC
5
146
100
AcDbEntity
8
0
100
AcDbCircle
10
14.197445581272881
20
-23.948215248379945
30
0
40
0.50000000000000111
210
0
220
-0
230
1
100
AcDbArc
50
85.046829395969397
51
175.04682939597436
0
ARC
5
147
100
AcDbEntity
8
0
100
AcDbCircle
10
33.698671276261543
20
-19.5656139051639
30
0
40
0.50000000000006828
210
0
220
0
230
1
100
AcDbArc
50
175.0468293959751
51
265.04682939596529
0
LINE
5
148
100
AcDbEntity
8
0
100
AcDbLine
10
13.308017415128081
20
-5.2513483164010122
30
0
11
11.579785666738182
21
-25.176538780330265
31
0
0
ARC
5
149
100
AcDbEntity
8
0
100
AcDbCircle
10
14.719811593050629
20
-17.920808391280559
30
0
40
0.49999999999996186
210
0
220
0
230
1
100
AcDbArc
50
175.0468293959739
51
265.04682939598155
0
ARC
5
150
100
AcDbEntity
8
0
100
AcDbCircle
10
152.12515033546518
20
-10.99907844367247
30
0
40
0.49999999999999944
210
0
220
0
230
1
100
AcDbArc
50
94.999999999999801
51
184.99999999999969
0
ARC
5
151
100
AcDbEntity
8
0
100
AcDbCircle
10
167.8690230354652
20
-41.794093843672471
30
0
40
0.50000000000000699
210
0
220
0
230
1
100
AcDbArc
50
-84.999999999997002
51
4.9999999999994076
0
LINE
5
152
100
AcDbEntity
8
0
100
AcDbLine
10
153.30175293546523
20
-24.447706843672474
30
0
11
166.25228393546521
21
-23.314682243672472
31
0
0
LINE
5
153
100
AcDbEntity
8
0
100
AcDbLine
10
153.28736993546522
20
-30.020165343672474
30
0
11
154.42039453546522
21
-42.970696343672472
31
0
0
LINE
5
154
100
AcDbEntity
8
0
100
AcDbLine
10
152.08157253546523
20
-10.500981043672471
30
0
11
165.03210353546521
21
-9.3679564436724689
31
0
0
LINE
5
155
100
AcDbEntity
8
0
100
AcDbLine
10
63.941007494655523
20
-41.809851355389959
30
0
11
50.989554768625794
21
-40.687411953202613
31
0
0
LINE
5
156
100
AcDbEntity
8
0
100
AcDbLine
10
63.504982936885867
20
-46.840992610518484
30
0
11
50.553530210856152
21
-45.718553208331151
31
0
0
LWPOLYLINE
5
157
100
AcDbEntity
8
0
100
AcDbPolyline
90
12
70
1
43
0.0
10
65.58581300853885
20
-22.830991672179128
10
52.634360282509114
20
-21.708552269991785
10
52.136226320382249
20
-21.66539493254108
10
52.179398208446024
20
-21.167248642002324
10
53.30148891565814
20
-8.2157663943386332
10
53.345007276495977
20
-7.7176765044587725
10
53.84314123862282
20
-7.7608338419094807
10
66.794593964652549
20
-8.8832732440968236
10
67.2927273372662
20
-8.9264373853322425
10
67.249556038715653
20
-9.4245768720862841
10
66.127116636528314
20
-22.376029598116034
10
66.083945887668648
20
-22.874162425521462
0
LINE
5
158
100
AcDbEntity
8
0
100
AcDbLine
10
65.14978845076925
20
-27.862132927307659
30
0
11
52.198335724739451
21
-26.739693525120316
31
0
0
LINE
5
159
100
AcDbEntity
8
0
100
AcDbLine
10
125.92324708759593
20
-7.2792925912183346
30
0
11
124.92324708759595
21
-7.2792925912183239
31
0
0
ARC
5
160
100
AcDbEntity
8
0
100
AcDbCircle
10
146.09817243546524
20
-11.52637064367247
30
0
40
0.49999999999999467
210
0
220
-0
230
1
100
AcDbArc
50
5.0000000000001377
51
95.000000000003041
0
LINE
5
161
100
AcDbEntity
8
0
100
AcDbLine
10
133.10406353546523
20
-12.161297943672469
30
0
11
146.05459453546524
21
-11.02827334367247
31
0
0
LINE
5
162
100
AcDbEntity
8
0
100
AcDbLine
10
125.9791619440722
20
-8.5792925912183353
30
0
11
127.27211376361213
21
-8.5792925912183513
31
0
0
ARC
5
163
100
AcDbEntity
8
0
100
AcDbCircle
10
46.127758090595151
20
-26.715460264368858
30
0
40
0.50000000000003264
210
0
220
0
230
1
100
AcDbArc
50
-4.9531706040252086
51
85.046829395971017
0
ARC
5
164
100
AcDbEntity
8
0
100
AcDbCircle
10
45.005318588489573
20
-39.666913090480314
30
0
40
0.49999999999999212
210
0
220
0
230
1
100
AcDbArc
50
265.04682939597495
51
355.04682939597484
0
LINE
5
165
100
AcDbEntity
8
0
100
AcDbLine
10
27.64703115841062
20
-25.113825527530437
30
0
11
26.524591756223259
21
-38.065278253560187
31
0
0
LINE
5
166
100
AcDbEntity
8
0
100
AcDbLine
10
13.699312730328366
20
-23.905044571416724
30
0
11
12.576873328141005
21
-36.856497297446474
31
0
0
LINE
5
167
100
AcDbEntity
8
0
100
AcDbLine
10
29.291836672293954
20
-6.1349658443196065
30
0
11
28.169397270106664
21
-19.086418570349359
31
0
0
ARC
5
168
100
AcDbEntity
8
0
100
AcDbCircle
10
47.77256360447852
20
-7.7366005811580276
30
0
40
0.50000000000005052
210
0
220
0
230
1
100
AcDbArc
50
-4.9531706040250052
51
85.046829395969425
0
LINE
5
169
100
AcDbEntity
8
0
100
AcDbLine
10
46.625890841621441
20
-26.758631041413778
30
0
11
45.503451439434116
21
-39.710083767443521
31
0
0
LINE
5
170
100
AcDbEntity
8
0
100
AcDbLine
10
48.270696355504811
20
-7.7797713582029449
30
0
11
47.148256953317485
21
-20.731224084232696
31
0
0
ARC
5
171
100
AcDbEntity
8
0
100
AcDbCircle
10
165.07568143546521
20
-9.8660537436724702
30
0
40
0.50000000000004763
210
0
220
-0
230
1
100
AcDbArc
50
4.9999999999993348
51
94.999999999996561
0
ARC
5
172
100
AcDbEntity
8
0
100
AcDbCircle
10
153.78546723546518
20
-29.976587443672468
30
0
40
0.49999999999999944
210
0
220
0
230
1
100
AcDbArc
50
94.999999999999829
51
185.00000000000043
0
ARC
5
173
100
AcDbEntity
8
0
100
AcDbCircle
10
173.89600093546528
20
-41.266801643672473
30
0
40
0.5000000000000473
210
0
220
0
230
1
100
AcDbArc
50
184.99999999999912
51
274.99999999999329
0
ARC
5
174
100
AcDbEntity
8
0
100
AcDbCircle
10
166.20870613546521
20
-22.816584843672473
30
0
40
0.49999999999999634
210
0
220
0
230
1
100
AcDbArc
50
-85.000000000000213
51
4.999999999999992
0
ARC
5
175
100
AcDbEntity
8
0
100
AcDbCircle
10
172.7629762354652
20
-28.316270543672466
30
0
40
0.49999999999999634
210
0
220
0
230
1
100
AcDbArc
50
94.999999999999829
51
185.00000000000043
0
LINE
5
176
100
AcDbEntity
8
0
100
AcDbLine
10
132.64954398641936
20
-12.702973215046299
30
0
11
133.78256868641932
21
-25.653504315046302
31
0
0
ARC
5
177
100
AcDbEntity
8
0
100
AcDbCircle
10
134.2806660354652
20
-25.609926443672471
30
0
40
0.49999999999999467
210
0
220
0
230
1
100
AcDbArc
50
185.00000000000014
51
274.99999999999977
0
LINE
5
178
100
AcDbEntity
8
0
100
AcDbLine
10
125.95649451633621
20
-45.121106303756882
30
0
11
125.94448742833335
21
-31.121111452692194
31
0
0
ARC
5
179
100
AcDbEntity
8
0
100
AcDbCircle
10
46.650124102372942
20
-20.688053407269479
30
0
40
0.49999999999999939
210
0
220
0
230
1
100
AcDbArc
50
265.04682939597757
51
355.04682939597484
0
LINE
5
180
100
AcDbEntity
8
0
100
AcDbLine
10
153.74188943546523
20
-29.478490043672466
30
0
11
166.69242043546524
21
-28.345465443672467
31
0
0
LINE
5
181
100
AcDbEntity
8
0
100
AcDbLine
10
146.59626983546519
20
-11.482792843672469
30
0
11
147.72929443546525
21
-24.433323843672472
31
0
0
LINE
5
182
100
AcDbEntity
8
0
100
AcDbLine
10
132.60596611525008
20
-12.204875865982533
30
0
11
132.65487813402962
21
-12.76394280151079
31
0
0
ARC
5
183
100
AcDbEntity
8
0
100
AcDbCircle
10
50.510359433811217
20
-46.216685959357449
30
0
40
0.49999999999999495
210
0
220
-0
230
1
100
AcDbArc
50
85.046829395977511
51
175.0468293959764
0
ARC
5
184
100
AcDbEntity
8
0
100
AcDbCircle
10
44.482952576711853
20
-45.6943199475797
30
0
40
0.50000000000003197
210
0
220
0
230
1
100
AcDbArc
50
-4.9531706040235797
51
85.046829395971159
0
LINE
5
185
100
AcDbEntity
8
0
100
AcDbLine
10
51.657032096750051
20
-27.194655599183406
30
0
11
50.534592694562704
21
-40.146108325213149
31
0
0
ARC
5
186
100
AcDbEntity
8
0
100
AcDbCircle
10
52.15516494769453
20
-27.237826276146624
30
0
40
0.49999999999999956
210
0
220
-0
230
1
100
AcDbArc
50
85.046829395971017
51
175.04682939597464
0
ARC
5
187
100
AcDbEntity
8
0
100
AcDbCircle
10
51.032725445588966
20
-40.18927910225807
30
0
40
0.49999999999997885
210
0
220
0
230
1
100
AcDbArc
50
175.04682939597583
51
265.04682939597518
0
LINE
5
188
100
AcDbEntity
8
0
100
AcDbLine
10
127.27211376361213
20
-8.5792925912183513
30
0
11
151.27962021438154
21
-8.5625274752893645
31
0
0
LWPOLYLINE
5
189
100
AcDbEntity
8
0
100
AcDbPolyline
90
4
70
1
43
0.0
10
125.9401563012763
20
-26.071114610551348
10
125.92814921327343
20
-12.07111975948666
10
111.92815388943882
20
-12.082562338263296
10
111.94016145021163
20
-26.083121698554219
0
LINE
5
190
100
AcDbEntity
8
0
100
AcDbLine
10
125.92815155135611
20
-12.076841048874979
30
0
11
125.92758705331312
21
-26.076841037494333
31
0
0
LINE
5
191
100
AcDbEntity
8
0
100
AcDbLine
10
15.344118244211629
20
-4.9261848882058921
30
0
11
14.221678842024339
21
-17.877637614235642
31
0
0
ARC
5
192
100
AcDbEntity
8
0
100
AcDbCircle
10
25.50409289350096
20
-44.049514433696345
30
0
40
0.50000000000003264
210
0
220
0
230
1
100
AcDbArc
50
-4.9531706040253614
51
85.046829395969397
0
ARC
5
193
100
AcDbEntity
8
0
100
AcDbCircle
10
33.176305264483723
20
-25.593020762263279
30
0
40
0.50000000000000111
210
0
220
-0
230
1
100
AcDbArc
50
85.046829395969397
51
175.0468293959747
0
ARC
5
194
100
AcDbEntity
8
0
100
AcDbCircle
10
12.552640067389511
20
-42.927074931590781
30
0
40
0.50000000000000999
210
0
220
-0
230
1
100
AcDbArc
50
85.046829395969453
51
175.04682939597316
0
LINE
5
195
100
AcDbEntity
8
0
100
AcDbLine
10
27.192069084347565
20
-24.572521899540977
30
0
11
14.24061635831773
21
-23.45008249735363
31
0
0
CIRCLE
5
196
100
AcDbEntity
8
0
100
AcDbCircle
10
118.92489609321915
20
-86.239904414141733
30
0
40
10.999999999999998
210
0
220
0
230
1
0
LINE
5
197
100
AcDbEntity
8
0
100
AcDbLine
10
134.3242439354652
20
-26.108023743672469
30
0
11
147.27477493546525
21
-24.97499914367247
31
0
0
LINE
5
198
100
AcDbEntity
8
0
100
AcDbLine
10
125.97916194407222
20
-7.2792925912183346
30
0
11
127.27165985041415
21
-7.2792925912183506
31
0
0
LINE
5
199
100
AcDbEntity
8
0
100
AcDbLine
10
127.27165985041415
20
-7.2792925912183506
30
0
11
151.22241658523922
21
-7.2625671052096452
31
0
0
LINE
5
200
100
AcDbEntity
8
0
100
AcDbLine
10
125.97916194407222
20
-7.2792925912183346
30
0
11
125.92324708759593
21
-7.2792925912183346
31
0
0
LINE
5
201
100
AcDbEntity
8
0
100
AcDbLine
10
151.62705303546522
20
-11.042656343672467
30
0
11
152.76007763546519
21
-23.993187343672474
31
0
0
LINE
5
202
100
AcDbEntity
8
0
100
AcDbLine
10
172.26487893546528
20
-28.359848443672469
30
0
11
173.39790353546519
21
-41.310379443672467
31
0
0
LINE
5
203
100
AcDbEntity
8
0
100
AcDbLine
10
165.57377883546522
20
-9.8224759436724671
30
0
11
166.70680343546522
21
-22.77300694367247
31
0
0
LINE
5
204
100
AcDbEntity
8
0
100
AcDbLine
10
133.10406346409138
20
-12.161297994626599
30
0
11
132.60596611525008
21
-12.204875865982533
31
0
0
LINE
5
205
100
AcDbEntity
8
0
100
AcDbLine
10
125.9791619440722
20
-8.5792925912183353
30
0
11
125.92324708759593
21
-8.5792925912183353
31
0
0
LINE
5
206
100
AcDbEntity
8
0
100
AcDbLine
10
12.054507216444961
20
-42.883904254627552
30
0
11
10.932067814257707
21
-55.835356980657323
31
0
0
LINE
5
207
100
AcDbEntity
8
0
100
AcDbLine
10
43.317342297561311
20
-59.143905524717454
30
0
11
30.365889571531604
21
-58.021466122530114
31
0
0
LINE
5
208
100
AcDbEntity
8
0
100
AcDbLine
10
16.668007599342079
20
-1.2266360741824616
30
0
11
86.629962467792424
21
-7.2889636897828591
31
0
0
ARC
5
209
100
AcDbEntity
8
0
100
AcDbCircle
10
41.304506107211253
20
-82.369347327766008
30
0
40
0.49999999999998185
210
0
220
0
230
1
100
AcDbArc
50
265.04682939597069
51
355.0468293959741
0
ARC
5
210
100
AcDbEntity
8
0
100
AcDbCircle
10
70.011585128799823
20
-41.834084616141411
30
0
40
0.50000000000003197
210
0
220
0
230
1
100
AcDbArc
50
175.04682939597555
51
265.04682939597109
0
ARC
5
211
100
AcDbEntity
8
0
100
AcDbCircle
10
84.08547745701685
20
-30.005071292135533
30
0
40
0.49999999999999722
210
0
220
0
230
1
100
AcDbArc
50
-4.9531706040255132
51
85.046829395972637
0
LWPOLYLINE
5
212
100
AcDbEntity
8
0
100
AcDbPolyline
90
4
70
1
43
0.0
10
86.804335844607081
20
-62.912711844451522
10
88.013116746686961
20
-48.96499343853413
10
101.96083515260437
20
-50.173774340614017
10
100.75205425052448
20
-64.121492746531402
0
LWPOLYLINE
5
213
100
AcDbEntity
8
0
100
AcDbPolyline
90
4
70
1
43
0.0
10
50.585900767564866
20
-70.432952974396642
10
64.37519168968727
20
-72.85275789733376
10
61.955386766750195
20
-86.642048819456235
10
48.166095844627677
20
-84.222243896519103
0
LINE
5
214
100
AcDbEntity
8
0
100
AcDbLine
10
63.959945010948957
20
-47.382296238507955
30
0
11
62.837505608761631
21
-60.333748964537719
31
0
0
LINE
5
215
100
AcDbEntity
8
0
100
AcDbLine
10
5.4685796882798829
20
-80.589791762350245
30
0
11
12.012880034972682
21
-5.1390132527556673
31
0
0
LINE
5
216
100
AcDbEntity
8
0
100
AcDbLine
10
68.991086266077488
20
-47.818320796277582
30
0
11
67.868646863890163
21
-60.769773522307332
31
0
0
LINE
5
217
100
AcDbEntity
8
0
100
AcDbLine
10
50.01222658286666
20
-46.173515282394234
30
0
11
48.88978718067932
21
-59.124968008423977
31
0
0
LINE
5
218
100
AcDbEntity
8
0
100
AcDbLine
10
26.002225644527321
20
-44.092685210741266
30
0
11
24.879786242339996
21
-57.044137936771016
31
0
0
LINE
5
219
100
AcDbEntity
8
0
100
AcDbLine
10
6.7638940592257848
20
-80.700086257527545
30
0
11
13.308017415128081
21
-5.2513483164010122
31
0
0
LINE
5
220
100
AcDbEntity
8
0
100
AcDbLine
10
44.526123253675053
20
-45.19618709663515
30
0
11
31.57467052764531
21
-44.073747694447803
31
0
0
LINE
5
221
100
AcDbEntity
8
0
100
AcDbLine
10
44.962147811444723
20
-40.165045841506611
30
0
11
32.010695085414902
21
-39.042606439319279
31
0
0
LINE
5
222
100
AcDbEntity
8
0
100
AcDbLine
10
47.815734281441721
20
-7.2384677302134843
30
0
11
34.864281555411942
21
-6.1160283280261414
31
0
0
LINE
5
223
100
AcDbEntity
8
0
100
AcDbLine
10
28.977359932260782
20
-68.252284322585766
30
0
11
27.854920530073457
21
-81.203737048615494
31
0
0
LINE
5
224
100
AcDbEntity
8
0
100
AcDbLine
10
82.483842620096723
20
-48.485798124401825
30
0
11
69.532389894066966
21
-47.363358722214493
31
0
0
ARC
5
225
100
AcDbEntity
8
0
100
AcDbCircle
10
49.387919931705646
20
-59.168138785468912
30
0
40
0.50000000000005118
210
0
220
0
230
1
100
AcDbArc
50
175.04682939597478
51
265.04682939596938
0
LINE
5
226
100
AcDbEntity
8
0
100
AcDbLine
10
46.606953325328021
20
-21.186186158295786
30
0
11
33.6555005992982
21
-20.063746756108436
31
0
0
LINE
5
227
100
AcDbEntity
8
0
100
AcDbLine
10
46.170928767558351
20
-26.217327413424314
30
0
11
33.219476041528644
21
-25.094888011236975
31
0
0
LINE
5
228
100
AcDbEntity
8
0
100
AcDbLine
10
34.104356039521974
20
-85.01890119104003
30
0
11
8.5883000328694159
21
-82.858606939706689
31
0
0
LINE
5
229
100
AcDbEntity
8
0
100
AcDbLine
10
31.033366899655874
20
-44.528709768510893
30
0
11
29.910927497468514
21
-57.480162494540643
31
0
0
LWPOLYLINE
5
230
100
AcDbEntity
8
0
100
AcDbPolyline
90
4
70
1
43
0.0
10
111.96083079344398
20
-50.183111534465219
10
111.94775872205228
20
-64.183105431640655
10
125.94775357311697
20
-64.171098343637794
10
125.96082564450866
20
-50.171104446462351
0
LINE
5
231
100
AcDbEntity
8
0
100
AcDbLine
10
44.981085327738128
20
-45.737490724624621
30
0
11
43.858645925550789
21
-58.688943450654349
31
0
0
ARC
5
232
100
AcDbEntity
8
0
100
AcDbCircle
10
30.409060248494768
20
-57.523333271585564
30
0
40
0.49999999999995959
210
0
220
0
230
1
100
AcDbArc
50
175.04682939597717
51
265.04682939597768
0
LINE
5
233
100
AcDbEntity
8
0
100
AcDbLine
10
16.555780832129997
20
-2.5217828429778462
30
0
11
86.57382135053831
21
-8.5889703797342278
31
0
0
LINE
5
234
100
AcDbEntity
8
0
100
AcDbLine
10
82.919867177866351
20
-43.4546568692733
30
0
11
69.968414451836551
21
-42.332217467085947
31
0
0
LINE
5
235
100
AcDbEntity
8
0
100
AcDbLine
10
42.925078360343122
20
-69.461065278699465
30
0
11
41.802638958155796
21
-82.412518004729222
31
0
0
LINE
5
236
100
AcDbEntity
8
0
100
AcDbLine
10
62.296201980772153
20
-60.788711038600795
30
0
11
49.344749254742425
21
-59.66627163641347
31
0
0
LINE
5
237
100
AcDbEntity
8
0
100
AcDbLine
10
82.938804694159828
20
-49.027101752391289
30
0
11
81.81636529197246
21
-61.978554478421032
31
0
0
LWPOLYLINE
5
238
100
AcDbEntity
8
0
100
AcDbPolyline
90
12
70
1
43
0.0
10
89.658034226357159
20
-29.984836837081037
10
89.6147514631717
20
-30.484266626950081
10
88.492312060984347
20
-43.435719352979838
10
88.44914130764198
20
-43.933852232109665
10
88.947274135047422
20
-43.977022980969295
10
101.89872686107718
20
-45.099462383156634
10
102.39685969583374
20
-45.142633132653351
10
102.44003043817087
20
-44.644500380508994
10
103.56246994027643
20
-31.693047554397552
10
103.60564069026253
20
-31.194914754488092
10
103.10738923253147
20
-31.150532409569589
10
90.156167026568497
20
-30.028007583583896
0
LINE
5
239
100
AcDbEntity
8
0
100
AcDbLine
10
42.470116286280053
20
-68.919761650710001
30
0
11
29.518663560250289
21
-67.797322248522676
31
0
0
LINE
5
240
100
AcDbEntity
8
0
100
AcDbLine
10
72.280697293844185
20
-9.8606014298559064
30
0
11
71.158257891656845
21
-22.812054155885662
31
0
0
ARC
5
241
100
AcDbEntity
8
0
100
AcDbCircle
10
28.793703921267699
20
-6.0917950672746883
30
0
40
0.49999999999999739
210
0
220
0
230
1
100
AcDbArc
50
-4.9531706040255647
51
85.046829395973475
0
LINE
5
242
100
AcDbEntity
8
0
100
AcDbLine
10
84.583610208043154
20
-30.048242069180461
30
0
11
83.461170805855787
21
-42.99969479521021
31
0
0
ARC
5
243
100
AcDbEntity
8
0
100
AcDbCircle
10
63.461812259922645
20
-47.339125461463034
30
0
40
0.50000000000004963
210
0
220
0
230
1
100
AcDbArc
50
-4.9531706040243941
51
85.046829395969453
0
LINE
5
244
100
AcDbEntity
8
0
100
AcDbLine
10
25.983288128233823
20
-38.520240327623277
30
0
11
13.031835402204131
21
-37.397800925435938
31
0
0
ARC
5
245
100
AcDbEntity
8
0
100
AcDbCircle
10
68.366779614916453
20
-60.812944299352232
30
0
40
0.49999999999997724
210
0
220
0
230
1
100
AcDbArc
50
175.04682939597745
51
265.04682939597768
0
LINE
5
246
100
AcDbEntity
8
0
100
AcDbLine
10
87.969946000184109
20
-49.463126238745467
30
0
11
88.013116746686961
21
-48.96499343853413
31
0
0
LINE
5
247
100
AcDbEntity
8
0
100
AcDbLine
10
110.5807248729754
20
-7.2861135687266039
30
0
11
86.629962467792424
21
-7.2889636897828591
31
0
0
ARC
5
248
100
AcDbEntity
8
0
100
AcDbCircle
10
27.148898407384294
20
-25.070654750485524
30
0
40
0.50000000000010347
210
0
220
0
230
1
100
AcDbArc
50
-4.9531706040246481
51
85.046829395965389
0
LINE
5
249
100
AcDbEntity
8
0
100
AcDbLine
10
16.555780832129997
20
-2.5217828429778462
30
0
11
26.518448284402183
21
-3.3850656676861823
31
0
0
LINE
5
250
100
AcDbEntity
8
0
100
AcDbLine
10
33.994685052131395
20
-86.314266882466498
30
0
11
8.4786288447277087
21
-84.15397500228039
31
0
0
ARC
5
251
100
AcDbEntity
8
0
100
AcDbCircle
10
13.075006079167331
20
-36.899668074491395
30
0
40
0.50000000000006806
210
0
220
0
230
1
100
AcDbArc
50
175.04682939597583
51
265.04682939596944
0
LINE
5
252
100
AcDbEntity
8
0
100
AcDbLine
10
34.322977927422542
20
-6.5709904020892305
30
0
11
33.200538525235146
21
-19.522443128118983
31
0
0
LINE
5
253
100
AcDbEntity
8
0
100
AcDbLine
10
110.58133348510042
20
-8.5861135055067841
30
0
11
86.57382135053831
21
-8.5889703797342278
31
0
0
ARC
5
254
100
AcDbEntity
8
0
100
AcDbCircle
10
82.963037954911272
20
-42.956524118246989
30
0
40
0.49999999999999811
210
0
220
0
230
1
100
AcDbArc
50
265.04682939597268
51
355.04682939597495
0
ARC
5
255
100
AcDbEntity
8
0
100
AcDbCircle
10
84.607843468794613
20
-23.97766443503615
30
0
40
0.50000000000000244
210
0
220
0
230
1
100
AcDbArc
50
265.04682939597268
51
355.04682939597382
0
ARC
5
256
100
AcDbEntity
8
0
100
AcDbCircle
10
81.318232441027931
20
-61.935383801457817
30
0
40
0.49999999999999811
210
0
220
0
230
1
100
AcDbArc
50
265.04682939597427
51
355.04682939597615
0
ARC
5
257
100
AcDbEntity
8
0
100
AcDbCircle
10
29.475492783205368
20
-68.295454999548966
30
0
40
0.4999999999999804
210
0
220
-0
230
1
100
AcDbArc
50
85.046829395973305
51
175.04682939597754
0
ARC
5
258
100
AcDbEntity
8
0
100
AcDbCircle
10
43.360513074606231
20
-58.645772773691135
30
0
40
0.5000000000000111
210
0
220
0
230
1
100
AcDbArc
50
265.04682939598007
51
355.04682939597512
0
LINE
5
259
100
AcDbEntity
8
0
100
AcDbLine
10
28.836874598230899
20
-5.5936622163301442
30
0
11
15.885421872201135
21
-4.4712228141428021
31
0
0
ARC
5
260
100
AcDbEntity
8
0
100
AcDbCircle
10
63.984178271700372
20
-41.311718604363648
30
0
40
0.50000000000000233
210
0
220
0
230
1
100
AcDbArc
50
265.04682939598007
51
355.04682939597484
0
ARC
5
261
100
AcDbEntity
8
0
100
AcDbCircle
10
26.026458905278744
20
-38.022107576596973
30
0
40
0.50000000000000111
210
0
220
0
230
1
100
AcDbArc
50
265.04682939596938
51
355.04682939597433
0
LINE
5
262
100
AcDbEntity
8
0
100
AcDbLine
10
65.604750524832255
20
-28.403436555297116
30
0
11
64.482311122645001
21
-41.354889281326862
31
0
0
ARC
5
263
100
AcDbEntity
8
0
100
AcDbCircle
10
85.730282970900191
20
-11.026211608924703
30
0
40
0.50000000000001499
210
0
220
0
230
1
100
AcDbArc
50
-4.9531706040253614
51
85.046829395972637
0
ARC
5
264
100
AcDbEntity
8
0
100
AcDbCircle
10
69.489219117022031
20
-47.861491473240804
30
0
40
0.50000000000000999
210
0
220
-0
230
1
100
AcDbArc
50
85.046829395969525
51
175.04682939597399
0
LINE
5
265
100
AcDbEntity
8
0
100
AcDbLine
10
81.275061663983024
20
-62.433516552484122
30
0
11
68.323608937953253
21
-61.311077150296782
31
0
0
LINE
5
266
100
AcDbEntity
8
0
100
AcDbLine
10
104.75231333107422
20
-12.1728842718635
30
0
11
91.800860605044477
21
-11.050444869676157
31
0
0
ARC
5
267
100
AcDbEntity
8
0
100
AcDbCircle
10
42.426945609316832
20
-69.417894501654558
30
0
40
0.49999999999997885
210
0
220
0
230
1
100
AcDbArc
50
-4.9531706040241907
51
85.046829395977639
0
ARC
5
268
100
AcDbEntity
8
0
100
AcDbCircle
10
11.430200565283997
20
-55.87852775770223
30
0
40
0.50000000000003197
210
0
220
0
230
1
100
AcDbArc
50
175.04682939597635
51
265.0468293959695
0
LINE
5
269
100
AcDbEntity
8
0
100
AcDbLine
10
91.259556977055041
20
-11.505406943739247
30
0
11
90.137117574867631
21
-24.456859669768999
31
0
0
LINE
5
270
100
AcDbEntity
8
0
100
AcDbLine
10
41.261335330166332
20
-82.867480078792312
30
0
11
28.309882604136511
21
-81.745040676604958
31
0
0
LWPOLYLINE
5
271
100
AcDbEntity
8
0
100
AcDbPolyline
90
4
70
1
43
0.0
10
80.644397211525302
20
-74.910804107556444
10
93.804003079280491
20
-79.688332067217516
10
89.026475119619448
20
-92.847937934972691
10
75.866869251864216
20
-88.070409975311634
0
ARC
5
272
100
AcDbEntity
8
0
100
AcDbCircle
10
62.339372757817074
20
-60.290578287574483
30
0
40
0.50000000000001266
210
0
220
0
230
1
100
AcDbArc
50
265.04682939597768
51
355.04682939597387
0
LINE
5
273
100
AcDbEntity
8
0
100
AcDbLine
10
84.564672691749649
20
-24.475797186062465
30
0
11
71.613219965719935
21
-23.353357783875126
31
0
0
ARC
5
274
100
AcDbEntity
8
0
100
AcDbCircle
10
28.353053281099854
20
-81.246907825660415
30
0
40
0.50000000000010425
210
0
220
0
230
1
100
AcDbArc
50
175.04682939597538
51
265.04682939596518
0
ARC
5
275
100
AcDbEntity
8
0
100
AcDbCircle
10
22.325646424000354
20
-80.724541813882666
30
0
40
0.49999999999995653
210
0
220
0
230
1
100
AcDbArc
50
265.04682939598109
51
355.04682939597302
0
LINE
5
276
100
AcDbEntity
8
0
100
AcDbLine
10
86.228415721926467
20
-11.06938238596962
30
0
11
85.105976319739156
21
-24.020835111999375
31
0
0
LINE
5
277
100
AcDbEntity
8
0
100
AcDbLine
10
70.635891779960801
20
-28.83946111306674
30
0
11
69.513452377773532
21
-41.79091383909649
31
0
0
LINE
5
278
100
AcDbEntity
8
0
100
AcDbLine
10
111.42740277687624
20
-8.5854219899528346
30
0
11
111.92693759600328
21
-8.5833750870323051
31
0
0
ARC
5
279
100
AcDbEntity
8
0
100
AcDbCircle
10
8.757024628855028
20
-80.865736645204123
30
0
40
2.0000023796305824
210
0
220
0
230
1
100
AcDbArc
50
175.24902906615708
51
265.16064447722789
0
ARC
5
280
100
AcDbEntity
8
0
100
AcDbCircle
10
71.656390642683135
20
-22.855224932930582
30
0
40
0.49999999999997957
210
0
220
0
230
1
100
AcDbArc
50
175.04682939597419
51
265.04682939597745
0
LINE
5
281
100
AcDbEntity
8
0
100
AcDbLine
10
84.12864813398005
20
-29.506938441190993
30
0
11
71.177195407950279
21
-28.38449903900365
31
0
0
LINE
5
282
100
AcDbEntity
8
0
100
AcDbLine
10
24.33848261435049
20
-57.499100010834127
30
0
11
11.387029888320761
21
-56.37666060864678
31
0
0
ARC
5
283
100
AcDbEntity
8
0
100
AcDbCircle
10
23.44808592610601
20
-67.773088987771217
30
0
40
0.50000000000003197
210
0
220
0
230
1
100
AcDbArc
50
-4.9531706040236818
51
85.046829395977639
0
LINE
5
284
100
AcDbEntity
8
0
100
AcDbLine
10
103.54353237496053
20
-26.120602699945799
30
0
11
90.592079648930749
21
-24.99816329775846
31
0
0
LINE
5
285
100
AcDbEntity
8
0
100
AcDbLine
10
23.491256603069139
20
-67.27495613682666
30
0
11
10.539803877039446
21
-66.15251673463932
31
0
0
ARC
5
286
100
AcDbEntity
8
0
100
AcDbCircle
10
9.3741935978889401
20
-79.602102311777102
30
0
40
0.4999999999999627
210
0
220
0
230
1
100
AcDbArc
50
175.04682939597237
51
265.04682939598155
0
ARC
5
287
100
AcDbEntity
8
0
100
AcDbCircle
10
65.106617773806036
20
-28.360265778252195
30
0
40
0.49999999999996225
210
0
220
0
230
1
100
AcDbArc
50
-4.9531706040265311
51
85.046829395977539
0
ARC
5
288
100
AcDbEntity
8
0
100
AcDbCircle
10
90.635250325893978
20
-24.500030446813916
30
0
40
0.49999999999999722
210
0
220
0
230
1
100
AcDbArc
50
175.04682939597427
51
265.04682939597427
0
ARC
5
289
100
AcDbEntity
8
0
100
AcDbCircle
10
16.296795984717466
20
-5.5105830786594971
30
0
40
4.2999999999999963
210
0
220
-0
230
1
100
AcDbArc
50
85.047589356381025
51
175.04279843136959
0
ARC
5
290
100
AcDbEntity
8
0
100
AcDbCircle
10
82.440671943133509
20
-48.983930975346368
30
0
40
0.49999999999999811
210
0
220
0
230
1
100
AcDbArc
50
-4.9531706040264805
51
85.046829395975877
0
ARC
5
291
100
AcDbEntity
8
0
100
AcDbCircle
10
103.58670315200544
20
-25.622469948919498
30
0
40
0.49999999999999811
210
0
220
0
230
1
100
AcDbArc
50
265.04682939597427
51
355.04682939597467
0
LINE
5
292
100
AcDbEntity
8
0
100
AcDbLine
10
23.946218677132265
20
-67.816259764816138
30
0
11
22.823779274944904
21
-80.767712490845867
31
0
0
LINE
5
293
100
AcDbEntity
8
0
100
AcDbLine
10
6.7638940592257848
20
-80.700086257527545
30
0
11
8.4921258076156398
21
-60.774895793598283
31
0
0
LINE
5
294
100
AcDbEntity
8
0
100
AcDbLine
10
9.9985002490500463
20
-66.607478808702439
30
0
11
8.8760608468626145
21
-79.558931534732181
31
0
0
ARC
5
295
100
AcDbEntity
8
0
100
AcDbCircle
10
24.38165339139541
20
-57.000967259807815
30
0
40
0.50000000000000111
210
0
220
0
230
1
100
AcDbArc
50
265.04682939596938
51
355.04682939597546
0
ARC
5
296
100
AcDbEntity
8
0
100
AcDbCircle
10
71.134024630905401
20
-28.882631790029958
30
0
40
0.49999999999999656
210
0
220
-0
230
1
100
AcDbArc
50
85.046829395974257
51
175.04682939597515
0
LINE
5
297
100
AcDbEntity
8
0
100
AcDbLine
10
8.8760608468626145
20
-79.558931534732181
30
0
11
8.8328900935203336
21
-80.057064413862008
31
0
0
LINE
5
298
100
AcDbEntity
8
0
100
AcDbLine
10
22.282475646955433
20
-81.222674564908971
30
0
11
9.3310229209257045
21
-80.100235162721631
31
0
0
ARC
5
299
100
AcDbEntity
8
0
100
AcDbCircle
10
8.757024628855028
20
-80.865736645204123
30
0
40
3.3000023796305826
210
0
220
0
230
1
100
AcDbArc
50
175.20334876633999
51
265.16064447722789
0
LINE
5
300
100
AcDbEntity
8
0
100
AcDbLine
10
104.75231340248968
20
-12.172884322759277
30
0
11
105.25044620233386
21
-12.21605507112022
31
0
0
ARC
5
301
100
AcDbEntity
8
0
100
AcDbCircle
10
10.496633099994526
20
-66.650649485665653
30
0
40
0.50000000000001887
210
0
220
-0
230
1
100
AcDbArc
50
85.046829395969667
51
175.04682939597265
0
LINE
5
302
100
AcDbEntity
8
0
100
AcDbLine
10
105.25044620233386
20
-12.21605507112022
30
0
11
105.20199114042373
21
-12.775161797029801
31
0
0
ARC
5
303
100
AcDbEntity
8
0
100
AcDbCircle
10
72.778830144788742
20
-9.9037721068191278
30
0
40
0.49999999999999678
210
0
220
-0
230
1
100
AcDbArc
50
85.046829395979159
51
175.0468293959751
0
LINE
5
304
100
AcDbEntity
8
0
100
AcDbLine
10
91.259557027950791
20
-11.505406872323796
30
0
11
88.743986386883549
21
-11.287394602484394
31
0
0
LINE
5
305
100
AcDbEntity
8
0
100
AcDbLine
10
105.20727545415977
20
-12.714187871186713
30
0
11
104.08483595205419
21
-25.665640697298166
31
0
0
LINE
5
306
100
AcDbEntity
8
0
100
AcDbLine
10
85.773453647863377
20
-10.528078757980161
30
0
11
72.822000921833663
21
-9.4056393557928182
31
0
0
ARC
5
307
100
AcDbEntity
8
0
100
AcDbCircle
10
91.757689827999542
20
-11.548577620702465
30
0
40
0.49999999999999811
210
0
220
-0
230
1
100
AcDbArc
50
85.046829395972637
51
175.04682939597436
0
LINE
5
308
100
AcDbEntity
8
0
100
AcDbLine
10
111.95649966527151
20
-45.133113391759743
30
0
11
111.94449257726865
21
-31.133118540695051
31
0
0
LINE
5
309
100
AcDbEntity
8
0
100
AcDbLine
10
111.92815388943882
20
-12.082562338263296
30
0
11
111.9401609660606
21
-26.082557189337745
31
0
0
LINE
5
310
100
AcDbEntity
8
0
100
AcDbLine
10
25.547263570464231
20
-43.551381582751816
30
0
11
12.595810844434467
21
-42.428942180564455
31
0
0
LINE
5
311
100
AcDbEntity
8
0
100
AcDbLine
10
111.42420807628591
20
-7.2854241668534314
30
0
11
110.5807248729754
21
-7.2861135687266039
31
0
0
LINE
5
312
100
AcDbEntity
8
0
100
AcDbLine
10
111.42420807628591
20
-7.2854241668534314
30
0
11
111.92161073718268
21
-7.283386000703076
31
0
0
LINE
5
313
100
AcDbEntity
8
0
100
AcDbLine
10
111.92161073718268
20
-7.283386000703076
30
0
11
112.92271733055777
21
-7.2829768848825829
31
0
0
LINE
5
314
100
AcDbEntity
8
0
100
AcDbLine
10
105.25044620233386
20
-12.21605507112022
30
0
11
107.76601684266967
21
-12.434067349399394
31
0
0
ARC
5
315
100
AcDbEntity
8
0
100
AcDbCircle
10
34.821110778367057
20
-6.6141610790524492
30
0
40
0.50000000000000022
210
0
220
-0
230
1
100
AcDbArc
50
85.046829395973475
51
175.04682939597456
0
LINE
5
316
100
AcDbEntity
8
0
100
AcDbLine
10
111.42740277687624
20
-8.5854219899528346
30
0
11
110.58133348510042
21
-8.5861135055067841
31
0
0
ARC
5
317
100
AcDbEntity
8
0
100
AcDbCircle
10
168.39631523546524
20
-47.821071743672476
30
0
40
0.49999999999997657
210
0
220
-0
230
1
100
AcDbArc
50
4.999999999999992
51
95.000000000006253
0
ARC
5
318
100
AcDbEntity
8
0
100
AcDbCircle
10
156.5788088354652
20
-61.904627543672468
30
0
40
0.49999999999999428
210
0
220
0
230
1
100
AcDbArc
50
184.99999999999969
51
274.99999999999977
0
LINE
5
319
100
AcDbEntity
8
0
100
AcDbLine
10
173.92519583546522
20
-47.337357443672481
30
0
11
175.05822043546522
21
-60.287888443672479
31
0
0
LWPOLYLINE
5
320
100
AcDbEntity
8
0
100
AcDbPolyline
90
4
70
1
43
0.0
10
137.14678028308174
20
-64.106619546916022
10
151.09350606096103
20
-62.886439200967942
10
149.87332571501295
20
-48.939713423088669
10
135.92659993713366
20
-50.159893769036749
0
ARC
5
321
100
AcDbEntity
8
0
100
AcDbCircle
10
174.42329313546523
20
-47.293779543672471
30
0
40
0.50000000000000699
210
0
220
0
230
1
100
AcDbArc
50
95.000000000002984
51
184.99999999999912
0
ARC
5
322
100
AcDbEntity
8
0
100
AcDbCircle
10
169.52933993546523
20
-60.771602843672468
30
0
40
0.50000000000000078
210
0
220
0
230
1
100
AcDbArc
50
-85.00000000000351
51
4.9999999999991154
0
LINE
5
323
100
AcDbEntity
8
0
100
AcDbLine
10
168.89441263546524
20
-47.777493943672475
30
0
11
170.02743723546524
21
-60.72802494367248
31
0
0
ARC
5
324
100
AcDbEntity
8
0
100
AcDbCircle
10
155.4457841354652
20
-48.954096443672476
30
0
40
0.50000000000000389
210
0
220
0
230
1
100
AcDbArc
50
94.999999999999744
51
184.99999999999912
0
ARC
5
325
100
AcDbEntity
8
0
100
AcDbCircle
10
175.55631783546522
20
-60.244310643672478
30
0
40
0.5000000000000473
210
0
220
0
230
1
100
AcDbArc
50
184.99999999999861
51
274.99999999999977
0
LINE
5
326
100
AcDbEntity
8
0
100
AcDbLine
10
154.94768683546519
20
-48.997674343672479
30
0
11
156.08071143546522
21
-61.94820534367247
31
0
0
LINE
5
327
100
AcDbEntity
8
0
100
AcDbLine
10
155.40220633546519
20
-48.45599904367247
30
0
11
168.35273733546524
21
-47.322974443672479
31
0
0
LINE
5
328
100
AcDbEntity
8
0
100
AcDbLine
10
149.91690358451109
20
-49.437810772298647
30
0
11
149.87332571501295
21
-48.939713423088669
31
0
0
LWPOLYLINE
5
329
100
AcDbEntity
8
0
100
AcDbPolyline
90
4
70
1
43
0.0
10
162.05153106779662
20
-88.035189441495092
10
157.26324900197125
20
-74.879492772063429
10
144.10755233253957
20
-79.667774837888786
10
148.89583439836494
20
-92.823471507320434
0
LINE
5
330
100
AcDbEntity
8
0
100
AcDbLine
10
137.14678028308174
20
-64.106619546916022
30
0
11
134.63138866957138
21
-64.326687787881653
31
0
0
LINE
5
331
100
AcDbEntity
8
0
100
AcDbLine
10
156.6223867354652
20
-62.402724843672466
30
0
11
169.57291773546524
21
-61.269700243672467
31
0
0
ARC
5
332
100
AcDbEntity
8
0
100
AcDbCircle
10
134.57366435784149
20
-3.1809295023599393
30
0
40
96.999999999998735
210
0
220
0
230
1
100
AcDbArc
50
270.28911404264448
51
290.2616530438782
0
LWPOLYLINE
5
333
100
AcDbEntity
8
0
100
AcDbPolyline
90
4
70
1
43
0.0
10
173.53076699285339
20
-72.808149987408413
10
175.9618414680935
20
-86.595458531712353
10
189.74915001239742
20
-84.164384056472201
10
187.31807553715726
20
-70.377075512168275
0
ARC
5
334
100
AcDbEntity
8
0
100
AcDbCircle
10
134.57366435784149
20
-3.1809295023599393
30
0
40
98.299999999998704
210
0
220
0
230
1
100
AcDbArc
50
270.28911404264448
51
290.2616530438782
0
LINE
5
335
100
AcDbEntity
8
0
100
AcDbLine
10
191.24238793546525
20
-26.699531543672474
30
0
11
192.37541253546524
21
-39.650062543672469
31
0
0
ARC
5
336
100
AcDbEntity
8
0
100
AcDbCircle
10
185.71350733546524
20
-27.183245843672474
30
0
40
0.49999999999997702
210
0
220
-0
230
1
100
AcDbArc
50
4.999999999999992
51
95.000000000006295
0
ARC
5
337
100
AcDbEntity
8
0
100
AcDbCircle
10
186.84653203546526
20
-40.133776943672473
30
0
40
0.50000000000000078
210
0
220
0
230
1
100
AcDbArc
50
-85.000000000006736
51
4.999999999999992
0
ARC
5
338
100
AcDbEntity
8
0
100
AcDbCircle
10
192.87350993546525
20
-39.606484743672475
30
0
40
0.50000000000004774
210
0
220
0
230
1
100
AcDbArc
50
184.99999999999912
51
274.99999999999659
0
ARC
5
339
100
AcDbEntity
8
0
100
AcDbCircle
10
187.37382423546521
20
-46.160754843672471
30
0
40
0.5000000000000473
210
0
220
-0
230
1
100
AcDbArc
50
4.9999999999991154
51
94.999999999996518
0
ARC
5
340
100
AcDbEntity
8
0
100
AcDbCircle
10
190.0801683354652
20
-7.6784446436724707
30
0
40
0.50000000000000366
210
0
220
0
230
1
100
AcDbArc
50
95.000000000006295
51
184.99999999999963
0
ARC
5
341
100
AcDbEntity
8
0
100
AcDbCircle
10
193.4008021354652
20
-45.633462643672473
30
0
40
0.50000000000000699
210
0
220
0
230
1
100
AcDbArc
50
95.000000000002984
51
184.9999999999994
0
ARC
5
342
100
AcDbEntity
8
0
100
AcDbCircle
10
205.82404103546523
20
-38.473460043672468
30
0
40
0.49999999999999634
210
0
220
0
230
1
100
AcDbArc
50
-85.000000000003425
51
5.000000000000794
0
LINE
5
343
100
AcDbEntity
8
0
100
AcDbLine
10
189.58207103546522
20
-7.7220225436724697
30
0
11
190.71509563546522
21
-20.672553543672471
31
0
0
ARC
5
344
100
AcDbEntity
8
0
100
AcDbCircle
10
203.03069943546524
20
-6.5454199436724707
30
0
40
0.49999999999997685
210
0
220
-0
230
1
100
AcDbArc
50
5.0000000000001377
51
95.000000000003041
0
LINE
5
345
100
AcDbEntity
8
0
100
AcDbLine
10
210.23427993546528
20
-19.46675614367247
30
0
11
223.18481093546524
21
-18.333731543672471
31
0
0
LINE
5
346
100
AcDbEntity
8
0
100
AcDbLine
10
224.16662273546521
20
-23.819034243672469
30
0
11
225.29964733546521
21
-36.769565243672474
31
0
0
ARC
5
347
100
AcDbEntity
8
0
100
AcDbCircle
10
221.55410605761722
20
-5.4267018882227012
30
0
40
3.0000000000000644
210
0
220
-0
230
1
100
AcDbArc
50
5.0040309646055592
51
94.999240039592777
0
LINE
5
348
100
AcDbEntity
8
0
100
AcDbLine
10
210.67441643546522
20
-24.497539343672472
30
0
11
223.62494743546529
21
-23.364514743672466
31
0
0
ARC
5
349
100
AcDbEntity
8
0
100
AcDbCircle
10
222.00820843546524
20
-4.8851030436724692
30
0
40
0.49999999999997685
210
0
220
-0
230
1
100
AcDbArc
50
5.0000000000001377
51
95.000000000006295
0
ARC
5
350
100
AcDbEntity
8
0
100
AcDbCircle
10
191.74048523546526
20
-26.655953643672468
30
0
40
0.50000000000000255
210
0
220
0
230
1
100
AcDbArc
50
95.000000000006295
51
184.99999999999912
0
LINE
5
351
100
AcDbEntity
8
0
100
AcDbLine
10
186.21160473546519
20
-27.139668043672472
30
0
11
187.34462933546519
21
-40.090199043672463
31
0
0
ARC
5
352
100
AcDbEntity
8
0
100
AcDbCircle
10
191.21319303546522
20
-20.62897574367247
30
0
40
0.50000000000004774
210
0
220
0
230
1
100
AcDbArc
50
184.99999999999955
51
274.99999999999329
0
ARC
5
353
100
AcDbEntity
8
0
100
AcDbCircle
10
204.69101633546524
20
-25.522928943672468
30
0
40
0.49999999999997702
210
0
220
-0
230
1
100
AcDbArc
50
4.999999999999992
51
95.000000000006295
0
LINE
5
354
100
AcDbEntity
8
0
100
AcDbLine
10
211.89459683546522
20
-38.444265143672467
30
0
11
224.84512783546521
21
-37.311240543672469
31
0
0
LINE
5
355
100
AcDbEntity
8
0
100
AcDbLine
10
209.01409953546519
20
-5.5200303436724685
30
0
11
221.96463053546523
21
-4.3870057436724696
31
0
0
ARC
5
356
100
AcDbEntity
8
0
100
AcDbCircle
10
206.35133323546518
20
-44.500437943672473
30
0
40
0.5000000000000473
210
0
220
-0
230
1
100
AcDbArc
50
4.9999999999983853
51
94.999999999993321
0
ARC
5
357
100
AcDbEntity
8
0
100
AcDbCircle
10
224.8015500354652
20
-36.813143143672477
30
0
40
0.50000000000000255
210
0
220
0
230
1
100
AcDbArc
50
-84.999999999993705
51
4.999999999999992
0
ARC
5
358
100
AcDbEntity
8
0
100
AcDbCircle
10
211.85101893546522
20
-37.94616784367247
30
0
40
0.49999999999997702
210
0
220
0
230
1
100
AcDbArc
50
185.0000000000008
51
275.00000000000631
0
LINE
5
359
100
AcDbEntity
8
0
100
AcDbLine
10
222.50630583546524
20
-4.8415252436724696
30
0
11
222.46272565194232
21
-4.3434014450374132
31
0
0
ARC
5
360
100
AcDbEntity
8
0
100
AcDbCircle
10
225.32884223546523
20
-42.840121043672468
30
0
40
0.49999999999997657
210
0
220
-0
230
1
100
AcDbArc
50
4.999999999999992
51
95.000000000002984
0
ARC
5
361
100
AcDbEntity
8
0
100
AcDbCircle
10
223.14123313546526
20
-17.835634143672468
30
0
40
0.49999999999999634
210
0
220
0
230
1
100
AcDbArc
50
-85.000000000006679
51
5.000000000000429
0
ARC
5
362
100
AcDbEntity
8
0
100
AcDbCircle
10
212.37831113546525
20
-43.973145743672468
30
0
40
0.50000000000000699
210
0
220
0
230
1
100
AcDbArc
50
95.000000000002984
51
184.9999999999994
0
ARC
5
363
100
AcDbEntity
8
0
100
AcDbCircle
10
210.19070203546528
20
-18.968658843672472
30
0
40
0.50000000000004752
210
0
220
0
230
1
100
AcDbArc
50
184.99999999999912
51
274.99999999999329
0
LINE
5
364
100
AcDbEntity
8
0
100
AcDbLine
10
212.33473333546522
20
-43.475048343672469
30
0
11
225.28526433546523
21
-42.342023743672463
31
0
0
LINE
5
365
100
AcDbEntity
8
0
100
AcDbLine
10
203.52879683546519
20
-6.5018421436724694
30
0
11
204.66182143546524
21
-19.452373143672471
31
0
0
LINE
5
366
100
AcDbEntity
8
0
100
AcDbLine
10
205.18911373546524
20
-25.479351143672471
30
0
11
206.32213833546524
21
-38.429882143672465
31
0
0
LINE
5
367
100
AcDbEntity
8
0
100
AcDbLine
10
208.55958003546527
20
-6.0617056436724699
30
0
11
209.69260463546519
21
-19.01223664367247
31
0
0
LINE
5
368
100
AcDbEntity
8
0
100
AcDbLine
10
210.21989693546521
20
-25.039214643672469
30
0
11
211.35292153546521
21
-37.989745643672464
31
0
0
ARC
5
369
100
AcDbEntity
8
0
100
AcDbCircle
10
204.1637241354652
20
-19.49595104367247
30
0
40
0.50000000000000255
210
0
220
0
230
1
100
AcDbArc
50
-84.999999999996959
51
4.9999999999998455
0
ARC
5
370
100
AcDbEntity
8
0
100
AcDbCircle
10
195.4761983354652
20
-69.355348843672473
30
0
40
0.50000000000000078
210
0
220
0
230
1
100
AcDbArc
50
94.999999999996518
51
185
0
LINE
5
371
100
AcDbEntity
8
0
100
AcDbLine
10
194.97810103546522
20
-69.398926743672476
30
0
11
196.11112563546521
21
-82.349457743672474
31
0
0
LINE
5
372
100
AcDbEntity
8
0
100
AcDbLine
10
222.50630583546524
20
-4.8415252436724696
30
0
11
223.63933043546524
21
-17.792056243672469
31
0
0
LINE
5
373
100
AcDbEntity
8
0
100
AcDbLine
10
190.03659053546522
20
-7.18034724367247
30
0
11
202.98712153546523
21
-6.0473226436724703
31
0
0
ARC
5
374
100
AcDbEntity
8
0
100
AcDbCircle
10
196.60922303546522
20
-82.30587994367248
30
0
40
0.49999999999997735
210
0
220
0
230
1
100
AcDbArc
50
185.00000000000159
51
275.00000000000324
0
ARC
5
375
100
AcDbEntity
8
0
100
AcDbCircle
10
210.71799423546523
20
-24.99563674367247
30
0
40
0.50000000000000255
210
0
220
0
230
1
100
AcDbArc
50
95.000000000003055
51
184.99999999999955
0
ARC
5
376
100
AcDbEntity
8
0
100
AcDbCircle
10
223.6685253354652
20
-23.862612043672474
30
0
40
0.49999999999997702
210
0
220
-0
230
1
100
AcDbArc
50
5.000000000000429
51
95.000000000003027
0
ARC
5
377
100
AcDbEntity
8
0
100
AcDbCircle
10
194.53382683546522
20
-58.583993743672465
30
0
40
0.5000000000000473
210
0
220
0
230
1
100
AcDbArc
50
184.9999999999994
51
274.99999999999648
0
LINE
5
378
100
AcDbEntity
8
0
100
AcDbLine
10
192.91708783546517
20
-40.104582043672465
30
0
11
205.86761883546524
21
-38.971557443672474
31
0
0
LINE
5
379
100
AcDbEntity
8
0
100
AcDbLine
10
191.25677093546523
20
-21.127073043672468
30
0
11
204.20730193546524
21
-19.994048443672469
31
0
0
LINE
5
380
100
AcDbEntity
8
0
100
AcDbLine
10
215.63030993546528
20
-81.143660343672479
30
0
11
228.58084093546523
21
-80.010635743672481
31
0
0
LINE
5
381
100
AcDbEntity
8
0
100
AcDbLine
10
193.35722433546522
20
-45.135365243672467
30
0
11
206.30775533546517
21
-44.002340643672468
31
0
0
ARC
5
382
100
AcDbEntity
8
0
100
AcDbCircle
10
188.5068489354652
20
-59.111285943672478
30
0
40
0.50000000000000699
210
0
220
0
230
1
100
AcDbArc
50
-84.999999999993705
51
4.9999999999991154
0
ARC
5
383
100
AcDbEntity
8
0
100
AcDbCircle
10
228.53726313546525
20
-79.512538343672475
30
0
40
0.50000000000000078
210
0
220
0
230
1
100
AcDbArc
50
-85.000000000006736
51
4.999999999999992
0
ARC
5
384
100
AcDbEntity
8
0
100
AcDbCircle
10
212.58473462189761
20
-187.57523191716842
30
0
40
101.69999999999293
210
0
220
0
230
1
100
AcDbArc
50
94.886184918744434
51
110.26165304387921
0
ARC
5
385
100
AcDbEntity
8
0
100
AcDbCircle
10
207.48435793546525
20
-57.45096904367248
30
0
40
0.50000000000000078
210
0
220
0
230
1
100
AcDbArc
50
-85.000000000000256
51
4.999999999999992
0
ARC
5
386
100
AcDbEntity
8
0
100
AcDbCircle
10
213.51133583546522
20
-56.923676843672474
30
0
40
0.49999999999997657
210
0
220
0
230
1
100
AcDbArc
50
184.99999999999912
51
275.00000000000307
0
ARC
5
387
100
AcDbEntity
8
0
100
AcDbCircle
10
226.4618669354652
20
-55.790652143672474
30
0
40
0.50000000000000699
210
0
220
0
230
1
100
AcDbArc
50
-84.999999999997002
51
4.9999999999994076
0
ARC
5
388
100
AcDbEntity
8
0
100
AcDbCircle
10
212.58473462189761
20
-187.57523191716842
30
0
40
102.99999999999295
210
0
220
0
230
1
100
AcDbArc
50
94.886184918744448
51
110.26165304387918
0
LINE
5
389
100
AcDbEntity
8
0
100
AcDbLine
10
191.69690743546525
20
-26.15785624367247
30
0
11
204.64743843546523
21
-25.024831643672471
31
0
0
ARC
5
390
100
AcDbEntity
8
0
100
AcDbCircle
10
229.15546470088634
20
-80.775667826134523
30
0
40
2.0000000000002709
210
0
220
0
230
1
100
AcDbArc
50
-85.113815081252781
51
4.7978003298174725
0
ARC
5
391
100
AcDbEntity
8
0
100
AcDbCircle
10
209.0576773354652
20
-6.0181277436724701
30
0
40
0.49999999999999745
210
0
220
0
230
1
100
AcDbArc
50
94.999999999999801
51
185.00000000000014
0
ARC
5
392
100
AcDbEntity
8
0
100
AcDbCircle
10
221.55410605761722
20
-5.4267018882227012
30
0
40
4.3000000000000798
210
0
220
-0
230
1
100
AcDbArc
50
5.0040309646051941
51
94.999240039593133
0
ARC
5
393
100
AcDbEntity
8
0
100
AcDbCircle
10
208.42672943546523
20
-68.222324143672481
30
0
40
0.49999999999997657
210
0
220
-0
230
1
100
AcDbArc
50
4.999999999999992
51
95.000000000002984
0
ARC
5
394
100
AcDbEntity
8
0
100
AcDbCircle
10
229.15546470088634
20
-80.775667826134523
30
0
40
3.3000000000002672
210
0
220
0
230
1
100
AcDbArc
50
-85.113815081253648
51
4.9202814489925863
0
LINE
5
395
100
AcDbEntity
8
0
100
AcDbLine
10
135.06968326235489
20
-101.47967804600169
30
0
11
118.91557077863993
21
-101.56119225952193
31
0
0
ARC
5
396
100
AcDbEntity
8
0
100
AcDbCircle
10
209.5597541354652
20
-81.172855243672473
30
0
40
0.49999999999998046
210
0
220
0
230
1
100
AcDbArc
50
-84.999999999996746
51
4.9999999999994076
0
LINE
5
397
100
AcDbEntity
8
0
100
AcDbLine
10
225.82693963546524
20
-42.796543243672467
30
0
11
226.95996423546518
21
-55.747074243672479
31
0
0
LINE
5
398
100
AcDbEntity
8
0
100
AcDbLine
10
125.92324708759593
20
-8.5792925912183353
30
0
11
111.92693759600328
21
-8.5833750870323051
31
0
0
LINE
5
399
100
AcDbEntity
8
0
100
AcDbLine
10
194.57740473546522
20
-59.082091043672477
30
0
11
207.52793573546518
21
-57.949066443672478
31
0
0
LINE
5
400
100
AcDbEntity
8
0
100
AcDbLine
10
195.43262053546522
20
-68.857251443672482
30
0
11
208.38315153546523
21
-67.724226843672469
31
0
0
LINE
5
401
100
AcDbEntity
8
0
100
AcDbLine
10
192.90270483546522
20
-45.677040543672476
30
0
11
194.03572943546521
21
-58.62757154367246
31
0
0
LINE
5
402
100
AcDbEntity
8
0
100
AcDbLine
10
211.88021383546521
20
-44.016723643672471
30
0
11
213.01323843546521
21
-56.967254643672469
31
0
0
LINE
5
403
100
AcDbEntity
8
0
100
AcDbLine
10
213.95561003546527
20
-67.738609843672478
30
0
11
215.08863463546527
21
-80.689140843672476
31
0
0
LINE
5
404
100
AcDbEntity
8
0
100
AcDbLine
10
168.61572729160997
20
-95.398216120504941
30
0
11
177.36522495389943
21
-92.168334164729401
31
0
0
LINE
5
405
100
AcDbEntity
8
0
100
AcDbLine
10
135.06312350064718
20
-100.17969459628922
30
0
11
118.90901101693223
21
-100.26120880980946
31
0
0
ARC
5
406
100
AcDbEntity
8
0
100
AcDbCircle
10
227.40423843546523
20
-66.562007243672483
30
0
40
0.49999999999997657
210
0
220
-0
230
1
100
AcDbArc
50
4.999999999999992
51
95.000000000006253
0
ARC
5
407
100
AcDbEntity
8
0
100
AcDbCircle
10
214.4537073354652
20
-67.695031943672475
30
0
40
0.50000000000000078
210
0
220
0
230
1
100
AcDbArc
50
94.999999999999744
51
184.99999999999841
0
LINE
5
408
100
AcDbEntity
8
0
100
AcDbLine
10
213.55491373546522
20
-57.421774143672472
30
0
11
226.50544473546523
21
-56.288749543672473
31
0
0
LINE
5
409
100
AcDbEntity
8
0
100
AcDbLine
10
208.92482683546524
20
-68.178746343672472
30
0
11
210.05785143546524
21
-81.12927734367247
31
0
0
LINE
5
410
100
AcDbEntity
8
0
100
AcDbLine
10
227.90233583546518
20
-66.518429443672488
30
0
11
229.03536043546524
21
-79.468960443672472
31
0
0
ARC
5
411
100
AcDbEntity
8
0
100
AcDbCircle
10
215.58673203546527
20
-80.645563043672468
30
0
40
0.50000000000004807
210
0
220
0
230
1
100
AcDbArc
50
185.00000000000071
51
274.99999999999352
0
LINE
5
412
100
AcDbEntity
8
0
100
AcDbLine
10
196.65280093546522
20
-82.803977243672477
30
0
11
209.60333193546523
21
-81.670952643672479
31
0
0
LINE
5
413
100
AcDbEntity
8
0
100
AcDbLine
10
125.94448742833335
20
-31.121111452692194
30
0
11
111.94449257726865
21
-31.133118540695051
31
0
0
LINE
5
414
100
AcDbEntity
8
0
100
AcDbLine
10
214.41012953546527
20
-67.196934543672469
30
0
11
227.36066053546523
21
-66.063909943672471
31
0
0
LINE
5
415
100
AcDbEntity
8
0
100
AcDbLine
10
203.9222659384622
20
-86.244823666204269
30
0
11
229.43654775551124
21
-84.063675173511427
31
0
0
LINE
5
416
100
AcDbEntity
8
0
100
AcDbLine
10
231.14845921424285
20
-80.608388454247475
30
0
11
224.54267174933443
21
-5.165024402963895
31
0
0
LINE
5
417
100
AcDbEntity
8
0
100
AcDbLine
10
232.44330419446271
20
-80.492628139020894
30
0
11
225.83771688241185
21
-5.0516308260184406
31
0
0
LINE
5
418
100
AcDbEntity
8
0
100
AcDbLine
10
187.87192163546521
20
-46.11717704367247
30
0
11
189.00494623546521
21
-59.067708043672468
31
0
0
LINE
5
419
100
AcDbEntity
8
0
100
AcDbLine
10
206.84943063546518
20
-44.456860143672472
30
0
11
207.98245523546518
21
-57.40739114367247
31
0
0
LINE
5
420
100
AcDbEntity
8
0
100
AcDbLine
10
203.81153625027667
20
-84.949548044510422
30
0
11
229.32581806732571
21
-82.768399551817595
31
0
0
ARC
5
421
100
AcDbEntity
8
0
100
AcDbCircle
10
25.415039346268635
20
-187.65172135789942
30
0
40
102.99999999999299
210
0
220
-0
230
1
100
AcDbArc
50
69.78517635209522
51
85.160644477229951
0
LINE
5
422
100
AcDbEntity
8
0
100
AcDbLine
10
118.96582385023524
20
-104.26097305488628
30
0
11
118.92919489910979
21
-104.26115788584782
31
0
0
LINE
5
423
100
AcDbEntity
8
0
100
AcDbLine
10
69.308693221484901
20
-95.438799290154719
30
0
11
60.556558611722551
21
-92.216069614359114
31
0
0
LINE
5
424
100
AcDbEntity
8
0
100
AcDbLine
10
118.96582385023524
20
-104.26097305488628
30
0
11
119.0024529401922
21
-104.26112794795331
31
0
0
LINE
5
425
100
AcDbEntity
8
0
100
AcDbLine
10
118.96745852206087
20
-108.26101573088536
30
0
11
118.94937878128732
21
-108.26110696188621
31
0
0
LINE
5
426
100
AcDbEntity
8
0
100
AcDbLine
10
118.96745852206087
20
-108.26101573088536
30
0
11
118.98553833135665
21
-108.26109218479444
31
0
0
LINE
5
427
100
AcDbEntity
8
0
100
AcDbLine
10
102.86519383720503
20
-100.19285271800879
30
0
11
119.01936754902772
21
-100.2611637111122
31
0
0
ARC
5
428
100
AcDbEntity
8
0
100
AcDbCircle
10
103.27537310146676
20
-3.1937199746129954
30
0
40
96.999999999998721
210
0
220
0
230
1
100
AcDbArc
50
249.78517635209619
51
269.75771535332979
0
ARC
5
429
100
AcDbEntity
8
0
100
AcDbCircle
10
25.415039346268635
20
-187.65172135789942
30
0
40
101.699999999993
210
0
220
-0
230
1
100
AcDbArc
50
69.785176352095235
51
85.160644477229951
0
LINE
5
430
100
AcDbEntity
8
0
100
AcDbLine
10
102.85969658933347
20
-101.49284109498218
30
0
11
119.01387030115617
21
-101.56115208808556
31
0
0
ARC
5
431
100
AcDbEntity
8
0
100
AcDbCircle
10
103.27537310146676
20
-3.1937199746129954
30
0
40
98.299999999998718
210
0
220
0
230
1
100
AcDbArc
50
249.78517635209619
51
269.75771535332979
0
CIRCLE
5
432
100
AcDbEntity
8
0
100
AcDbCircle
10
118.95049354680242
20
-38.12711242222597
30
0
40
6.7499999999999991
210
0
220
0
230
1
0
LINE
5
433
100
AcDbEntity
8
0
100
AcDbLine
10
172.71939843546519
20
-27.818173143672471
30
0
11
185.66992943546524
21
-26.685148543672472
31
0
0
LINE
5
434
100
AcDbEntity
8
0
100
AcDbLine
10
174.37971533546522
20
-46.795682143672472
30
0
11
187.3302463354652
21
-45.662657543672474
31
0
0
CIRCLE
5
435
100
AcDbEntity
8
0
100
AcDbCircle
10
118.99202248661099
20
-86.23987698202842
30
0
40
10.999999999999998
210
0
220
0
230
1
0
LINE
5
436
100
AcDbEntity
8
0
100
AcDbLine
10
221.29267846941269
20
-2.4381143261583342
30
0
11
151.27962021438154
21
-8.5625274752893645
31
0
0
LINE
5
437
100
AcDbEntity
8
0
100
AcDbLine
10
173.9395788354652
20
-41.76489894367247
30
0
11
186.89010983546518
21
-40.631874343672472
31
0
0
LINE
5
438
100
AcDbEntity
8
0
100
AcDbLine
10
111.95649966527151
20
-45.133113391759743
30
0
11
125.95649451633621
21
-45.121106303756882
31
0
0
LINE
5
439
100
AcDbEntity
8
0
100
AcDbLine
10
221.1793931811907
20
-1.1430597159304468
30
0
11
151.22241658523922
21
-7.2625671052096452
31
0
0
LINE
5
440
100
AcDbEntity
8
0
100
AcDbLine
10
168.16552706969847
20
-94.178658922096034
30
0
11
176.91502473198793
21
-90.948776966320551
31
0
0
LINE
5
441
100
AcDbEntity
8
0
100
AcDbLine
10
175.59989573546522
20
-60.742407943672475
30
0
11
188.55042673546521
21
-59.609383343672484
31
0
0
LINE
5
442
100
AcDbEntity
8
0
100
AcDbLine
10
69.757896515930256
20
-94.218874538270626
30
0
11
61.005761906167919
21
-90.996144862475049
31
0
0
LINE
5
443
100
AcDbEntity
8
0
100
AcDbLine
10
76.870203733278089
20
-3.7331850960554567
30
0
11
76.697528092492774
21
-5.7259387302231488
31
0
0
LINE
5
444
100
AcDbEntity
8
0
100
AcDbLine
10
76.870203733278089
20
-3.7331850960554567
30
0
11
26.863758026542804
21
0.59996221716623988
31
0
0
LINE
5
445
100
AcDbEntity
8
0
100
AcDbLine
10
26.69108238575749
20
-1.3927914170014484
30
0
11
26.863758026542804
21
0.59996221716623988
31
0
0
LINE
5
446
100
AcDbEntity
8
0
100
AcDbLine
10
26.69108238575749
20
-1.3927914170014484
30
0
11
26.647940700111494
21
-1.8906656421335502
31
0
0
LINE
5
447
100
AcDbEntity
8
0
100
AcDbLine
10
76.697528092492774
20
-5.7259387302231488
30
0
11
76.654386406846783
21
-6.2238129553552479
31
0
0
LINE
5
448
100
AcDbEntity
8
0
100
AcDbLine
10
9.5872549799148228
20
-25.003719699270111
30
0
11
10.085404607461362
21
-25.046927632848789
31
0
0
LINE
5
449
100
AcDbEntity
8
0
100
AcDbLine
10
4.506804599117193
20
-60.432432081387084
30
0
11
7.5947698280030895
21
-24.830897797295943
31
0
0
LINE
5
450
100
AcDbEntity
8
0
100
AcDbLine
10
6.4992897510289271
20
-60.605253983361223
30
0
11
4.506804599117193
21
-60.432432081387084
31
0
0
LINE
5
451
100
AcDbEntity
8
0
100
AcDbLine
10
9.5872549799148228
20
-25.003719699270111
30
0
11
7.5947698280030895
21
-24.830897797295943
31
0
0
LINE
5
452
100
AcDbEntity
8
0
100
AcDbLine
10
6.4992897510289271
20
-60.605253983361223
30
0
11
6.9974393785754652
21
-60.648461916939894
31
0
0
LINE
5
453
100
AcDbEntity
8
0
100
AcDbLine
10
28.78472615185953
20
-88.582866154653033
30
0
11
13.233021886612683
21
-87.266195607618926
31
0
0
LINE
5
454
100
AcDbEntity
8
0
100
AcDbLine
10
28.953453616757088
20
-86.589960912394474
30
0
11
28.78472615185953
21
-88.582866154653033
31
0
0
LINE
5
455
100
AcDbEntity
8
0
100
AcDbLine
10
13.40174935151024
20
-85.273290365360225
30
0
11
13.233021886612683
21
-87.266195607618926
31
0
0
LINE
5
456
100
AcDbEntity
8
0
100
AcDbLine
10
13.40174935151024
20
-85.273290365360225
30
0
11
13.443930500606685
21
-84.775072525070556
31
0
0
LINE
5
457
100
AcDbEntity
8
0
100
AcDbLine
10
28.953453616757088
20
-86.589960912394474
30
0
11
28.995634765853573
21
-86.091743072104791
31
0
0
LINE
5
458
100
AcDbEntity
8
0
100
AcDbLine
10
142.37132647027582
20
-101.8733600193039
30
0
11
142.37132647027582
21
-101.37179359957821
31
0
0
LINE
5
459
100
AcDbEntity
8
0
100
AcDbLine
10
142.37132647027582
20
-101.8733600193039
30
0
11
142.37132647027582
21
-103.8733600193039
31
0
0
LINE
5
460
100
AcDbEntity
8
0
100
AcDbLine
10
142.37132647027582
20
-104.17967545421406
30
0
11
142.37132647027582
21
-103.8733600193039
31
0
0
LINE
5
461
100
AcDbEntity
8
0
100
AcDbLine
10
135.08330825960755
20
-104.17967545421406
30
0
11
142.37132647027582
21
-104.17967545421406
31
0
0
LINE
5
462
100
AcDbEntity
8
0
100
AcDbLine
10
135.08330825960755
20
-104.17967545421406
30
0
11
102.84827901669395
21
-104.19285050471299
31
0
0
LINE
5
463
100
AcDbEntity
8
0
100
AcDbLine
10
102.84827901669395
20
-104.19285050471299
30
0
11
95.556793938703237
21
-104.19285050471299
31
0
0
LINE
5
464
100
AcDbEntity
8
0
100
AcDbLine
10
95.556793938703237
20
-104.19285050471299
30
0
11
95.556793938703237
21
-101.89236869107597
31
0
0
LINE
5
465
100
AcDbEntity
8
0
100
AcDbLine
10
209.13407736685122
20
-88.509158097215348
30
0
11
224.68468657078691
21
-87.17977717013234
31
0
0
LINE
5
466
100
AcDbEntity
8
0
100
AcDbLine
10
224.51520614407215
20
-85.19725746500761
30
0
11
224.68468657078691
21
-87.17977717013234
31
0
0
LINE
5
467
100
AcDbEntity
8
0
100
AcDbLine
10
208.96372095480598
20
-86.516391437838564
30
0
11
209.13407736685122
21
-88.509158097215348
31
0
0
LINE
5
468
100
AcDbEntity
8
0
100
AcDbLine
10
208.96372095480598
20
-86.516391437838564
30
0
11
208.92113257580417
21
-86.018208242191349
31
0
0
LINE
5
469
100
AcDbEntity
8
0
100
AcDbLine
10
224.51520614407215
20
-85.19725746500761
30
0
11
224.47069600778912
21
-84.688916715418628
31
0
0
LINE
5
470
100
AcDbEntity
8
0
100
AcDbLine
10
233.38851050801455
20
-60.333944629753795
30
0
11
230.27190800252171
21
-24.739895207493497
31
0
0
LINE
5
471
100
AcDbEntity
8
0
100
AcDbLine
10
228.27956730047566
20
-24.914343861821258
30
0
11
230.27190800252171
21
-24.739895207493497
31
0
0
LINE
5
472
100
AcDbEntity
8
0
100
AcDbLine
10
231.39616980596853
20
-60.508393284081492
30
0
11
233.38851050801455
21
-60.333944629753795
31
0
0
LINE
5
473
100
AcDbEntity
8
0
100
AcDbLine
10
231.39616980596853
20
-60.508393284081492
30
0
11
230.89807533708546
21
-60.552006259649296
31
0
0
LINE
5
474
100
AcDbEntity
8
0
100
AcDbLine
10
228.27956730047566
20
-24.914343861821258
30
0
11
227.78147295489916
21
-24.957956826592238
31
0
0
LINE
5
475
100
AcDbEntity
8
0
100
AcDbLine
10
211.15645942782169
20
-1.3174286476730679
30
0
11
210.98215299655067
21
0.67520738612216746
31
0
0
LINE
5
476
100
AcDbEntity
8
0
100
AcDbLine
10
161.15356982564498
20
-5.6914463267552806
30
0
11
160.97926339437396
21
-3.6988102929600517
31
0
0
LINE
5
477
100
AcDbEntity
8
0
100
AcDbLine
10
210.98215299655067
20
0.67520738612216746
30
0
11
160.97926339437396
21
-3.6988102929600517
31
0
0
LINE
5
478
100
AcDbEntity
8
0
100
AcDbLine
10
161.15356982564498
20
-5.6914463267552806
30
0
11
161.19714285338682
21
-6.1895645411286928
31
0
0
LINE
5
479
100
AcDbEntity
8
0
100
AcDbLine
10
211.15645942782169
20
-1.3174286476730679
30
0
11
211.20000616278091
21
-1.8152461556165997
31
0
0
LINE
5
480
100
AcDbEntity
8
0
100
AcDbLine
10
210.98215299655067
20
0.67520738612216746
30
0
11
211.21743464097747
21
-2.0144850099454517
31
0
0
LINE
5
481
100
AcDbEntity
8
0
100
AcDbLine
10
161.19714285338682
20
-6.1895645411286928
30
0
11
161.21454502728682
21
-6.3885026900348505
31
0
0
LINE
5
482
100
AcDbEntity
8
0
100
AcDbLine
10
26.647940700111494
20
-1.8906656421335502
30
0
11
26.630675051614261
21
-2.0899188988907973
31
0
0
LINE
5
483
100
AcDbEntity
8
0
100
AcDbLine
10
76.654386406846783
20
-6.2238129553552479
30
0
11
76.637120758349539
21
-6.4230662121124968
31
0
0
LINE
5
484
100
AcDbEntity
8
0
100
AcDbLine
10
10.085404607461362
20
-25.046927632848789
30
0
11
11.579785666738182
21
-25.176538780330265
31
0
0
LINE
5
485
100
AcDbEntity
8
0
100
AcDbLine
10
6.9974393785754652
20
-60.648461916939894
30
0
11
7.1967121459944705
21
-60.665746043978302
31
0
0
LINE
5
486
100
AcDbEntity
8
0
100
AcDbLine
10
13.443930500606685
20
-84.775072525070556
30
0
11
13.460802908641256
21
-84.575785884356407
31
0
0
LINE
5
487
100
AcDbEntity
8
0
100
AcDbLine
10
28.995634765853573
20
-86.091743072104791
30
0
11
29.012507237265165
21
-85.892455682819744
31
0
0
LINE
5
488
100
AcDbEntity
8
0
100
AcDbLine
10
142.37132647027582
20
-101.37179359957821
30
0
11
142.37124447278032
21
-101.17117261028808
31
0
0
LINE
5
489
100
AcDbEntity
8
0
100
AcDbLine
10
95.556711940410693
20
-101.1902110846551
30
0
11
95.556793938703237
21
-104.19285050471299
31
0
0
LINE
5
490
100
AcDbEntity
8
0
100
AcDbLine
10
208.92113257580417
20
-86.018208242191349
30
0
11
208.90409766440087
21
-85.818940043933566
31
0
0
LINE
5
491
100
AcDbEntity
8
0
100
AcDbLine
10
224.47069600778912
20
-84.688916715418628
30
0
11
224.45366113560041
21
-84.48964897587868
31
0
0
LINE
5
492
100
AcDbEntity
8
0
100
AcDbLine
10
230.89807533708546
20
-60.552006259649296
30
0
11
229.40378751325963
21
-60.682845438147275
31
0
0
LINE
5
493
100
AcDbEntity
8
0
100
AcDbLine
10
227.78147295489916
20
-24.957956826592238
30
0
11
226.28718832163545
21
-25.088795725726012
31
0
0
ENDSEC
0
SECTION
2
OBJECTS
0
DICTIONARY
5
C
100
AcDbDictionary
3
ACAD_GROUP
350
D
3
ACAD_MLINESTYLE
350
17
0
DICTIONARY
5
D
100
AcDbDictionary
0
DICTIONARY
5
1A
330
C
100
AcDbDictionary
0
DICTIONARY
5
17
100
AcDbDictionary
0
ENDSEC
0
EOF
