999
"DXF R12 Output" (www.mydxf.blogspot.com)
 0 
SECTION
 2 
HEADER
 9 
$ACADVER
 1 
AC1009
 9 
$EXTMIN
 10 
 0 
 20 
 0 
 9 
$EXTMAX
 10 
 8.5 
 20 
 11 
 0 
ENDSEC
 0 
SECTION
 2 
ENTITIES
0
LINE
8
Layer 1
10
0.793749
20
297.794000
11
-0.793749
21
296.206000
0
LINE
8
Layer 1
10
0.000000
20
298.323000
11
0.000000
21
295.677000
0
LINE
8
Layer 1
10
2.116660
20
295.942000
11
1.058330
21
294.883670
0
LINE
8
Layer 1
10
1.587500
20
296.471000
11
0.529170
21
295.412670
0
LINE
8
Layer 1
10
1.058330
20
297.000000
11
0.000000
21
295.941670
0
LINE
8
0
10
125.956000
20
-45.121700
11
111.956000
21
-45.132300
0
LINE
8
0
10
147.715000
20
-30.004100
11
148.213000
21
-29.960500
0
LINE
8
0
10
148.213000
20
-29.960500
11
148.256000
21
-30.459900
0
LINE
8
0
10
148.256000
20
-30.459900
11
149.389000
21
-43.410400
0
LINE
8
0
10
149.389000
20
-43.410400
11
149.433000
21
-43.908500
0
LINE
8
0
10
149.433000
20
-43.908500
11
148.935000
21
-43.952100
0
LINE
8
0
10
148.935000
20
-43.952100
11
135.984000
21
-45.085100
0
LINE
8
0
10
135.984000
20
-45.085100
11
135.486000
21
-45.128700
0
LINE
8
0
10
135.486000
20
-45.128700
11
135.443000
21
-44.630600
0
LINE
8
0
10
135.443000
20
-44.630600
11
134.310000
21
-31.680100
0
LINE
8
0
10
134.310000
20
-31.680100
11
134.266000
21
-31.182000
0
LINE
8
0
10
134.266000
20
-31.182000
11
134.764000
21
-31.137200
0
LINE
8
0
10
134.764000
20
-31.137200
11
147.715000
21
-30.004100
0
LINE
8
0
10
147.715000
20
-30.004100
11
147.715000
21
-30.004100
0
LINE
8
0
10
65.585700
20
-22.830600
11
52.634300
21
-21.708200
0
LINE
8
0
10
52.634300
20
-21.708200
11
52.136200
21
-21.665000
0
LINE
8
0
10
52.136200
20
-21.665000
11
52.179300
21
-21.166800
0
LINE
8
0
10
52.179300
20
-21.166800
11
53.301400
21
-8.215380
0
LINE
8
0
10
53.301400
20
-8.215380
11
53.344900
21
-7.717290
0
LINE
8
0
10
53.344900
20
-7.717290
11
53.843100
21
-7.760450
0
LINE
8
0
10
53.843100
20
-7.760450
11
66.794500
21
-8.882890
0
LINE
8
0
10
66.794500
20
-8.882890
11
67.292600
21
-8.926050
0
LINE
8
0
10
67.292600
20
-8.926050
11
67.249500
21
-9.424190
0
LINE
8
0
10
67.249500
20
-9.424190
11
66.127000
21
-22.375600
0
LINE
8
0
10
66.127000
20
-22.375600
11
66.083900
21
-22.873800
0
LINE
8
0
10
66.083900
20
-22.873800
11
65.585700
21
-22.830600
0
LINE
8
0
10
65.585700
20
-22.830600
11
65.585700
21
-22.830600
0
LINE
8
0
10
125.956000
20
-45.121700
11
125.944000
21
-31.120000
0
LINE
8
0
10
125.940000
20
-26.070700
11
125.928000
21
-12.070700
0
LINE
8
0
10
125.928000
20
-12.070700
11
111.928000
21
-12.082200
0
LINE
8
0
10
111.928000
20
-12.082200
11
111.940000
21
-26.082700
0
LINE
8
0
10
111.940000
20
-26.082700
11
125.940000
21
-26.070700
0
LINE
8
0
10
125.940000
20
-26.070700
11
125.940000
21
-26.070700
0
LINE
8
0
10
125.928000
20
-12.075300
11
125.927000
21
-26.077000
0
LINE
8
0
10
129.925000
20
-86.239400
11
129.828265
21
-84.782344
0
LINE
8
0
10
129.828265
20
-84.782344
11
129.544230
21
-83.369306
0
LINE
8
0
10
129.544230
20
-83.369306
11
129.082150
21
-82.016314
0
LINE
8
0
10
129.082150
20
-82.016314
11
128.451279
21
-80.739400
0
LINE
8
0
10
128.451279
20
-80.739400
11
127.660874
21
-79.554593
0
LINE
8
0
10
127.660874
20
-79.554593
11
126.720189
21
-78.477924
0
LINE
8
0
10
126.720189
20
-78.477924
11
125.638480
21
-77.525423
0
LINE
8
0
10
125.638480
20
-77.525423
11
124.425000
21
-76.713121
0
LINE
8
0
10
124.425000
20
-76.713121
11
123.114785
21
-76.068368
0
LINE
8
0
10
123.114785
20
-76.068368
11
121.749040
21
-75.607830
0
LINE
8
0
10
121.749040
20
-75.607830
11
120.346275
21
-75.331508
0
LINE
8
0
10
120.346275
20
-75.331508
11
118.925000
21
-75.239400
0
LINE
8
0
10
118.925000
20
-75.239400
11
117.503725
21
-75.331508
0
LINE
8
0
10
117.503725
20
-75.331508
11
116.100960
21
-75.607830
0
LINE
8
0
10
116.100960
20
-75.607830
11
114.735215
21
-76.068368
0
LINE
8
0
10
114.735215
20
-76.068368
11
113.425000
21
-76.713121
0
LINE
8
0
10
113.425000
20
-76.713121
11
112.211520
21
-77.525423
0
LINE
8
0
10
112.211520
20
-77.525423
11
111.129811
21
-78.477924
0
LINE
8
0
10
111.129811
20
-78.477924
11
110.189126
21
-79.554593
0
LINE
8
0
10
110.189126
20
-79.554593
11
109.398721
21
-80.739400
0
LINE
8
0
10
109.398721
20
-80.739400
11
108.767850
21
-82.016314
0
LINE
8
0
10
108.767850
20
-82.016314
11
108.305770
21
-83.369306
0
LINE
8
0
10
108.305770
20
-83.369306
11
108.021735
21
-84.782344
0
LINE
8
0
10
108.021735
20
-84.782344
11
107.925000
21
-86.239400
0
LINE
8
0
10
107.925000
20
-86.239400
11
108.021735
21
-87.696456
0
LINE
8
0
10
108.021735
20
-87.696456
11
108.305770
21
-89.109494
0
LINE
8
0
10
108.305770
20
-89.109494
11
108.767850
21
-90.462486
0
LINE
8
0
10
108.767850
20
-90.462486
11
109.398721
21
-91.739400
0
LINE
8
0
10
109.398721
20
-91.739400
11
110.189126
21
-92.924207
0
LINE
8
0
10
110.189126
20
-92.924207
11
111.129811
21
-94.000876
0
LINE
8
0
10
111.129811
20
-94.000876
11
112.211520
21
-94.953377
0
LINE
8
0
10
112.211520
20
-94.953377
11
113.425000
21
-95.765679
0
LINE
8
0
10
113.425000
20
-95.765679
11
114.735215
21
-96.410432
0
LINE
8
0
10
114.735215
20
-96.410432
11
116.100960
21
-96.870970
0
LINE
8
0
10
116.100960
20
-96.870970
11
117.503725
21
-97.147292
0
LINE
8
0
10
117.503725
20
-97.147292
11
118.925000
21
-97.239400
0
LINE
8
0
10
118.925000
20
-97.239400
11
120.346275
21
-97.147292
0
LINE
8
0
10
120.346275
20
-97.147292
11
121.749040
21
-96.870970
0
LINE
8
0
10
121.749040
20
-96.870970
11
123.114785
21
-96.410432
0
LINE
8
0
10
123.114785
20
-96.410432
11
124.425000
21
-95.765679
0
LINE
8
0
10
124.425000
20
-95.765679
11
125.638480
21
-94.953377
0
LINE
8
0
10
125.638480
20
-94.953377
11
126.720189
21
-94.000876
0
LINE
8
0
10
126.720189
20
-94.000876
11
127.660874
21
-92.924207
0
LINE
8
0
10
127.660874
20
-92.924207
11
128.451279
21
-91.739400
0
LINE
8
0
10
128.451279
20
-91.739400
11
129.082150
21
-90.462486
0
LINE
8
0
10
129.082150
20
-90.462486
11
129.544230
21
-89.109494
0
LINE
8
0
10
129.544230
20
-89.109494
11
129.828265
21
-87.696456
0
LINE
8
0
10
129.828265
20
-87.696456
11
129.925000
21
-86.239400
0
LINE
8
0
10
129.925000
20
-86.239400
11
129.925000
21
-86.239400
0
LINE
8
0
10
86.804200
20
-62.912300
11
88.013000
21
-48.964600
0
LINE
8
0
10
88.013000
20
-48.964600
11
101.961000
21
-50.173300
0
LINE
8
0
10
101.961000
20
-50.173300
11
100.752000
21
-64.121000
0
LINE
8
0
10
100.752000
20
-64.121000
11
86.804200
21
-62.912300
0
LINE
8
0
10
86.804200
20
-62.912300
11
86.804200
21
-62.912300
0
LINE
8
0
10
111.961000
20
-50.182700
11
111.948000
21
-64.182700
0
LINE
8
0
10
111.948000
20
-64.182700
11
125.948000
21
-64.170600
0
LINE
8
0
10
125.948000
20
-64.170600
11
125.961000
21
-50.170700
0
LINE
8
0
10
125.961000
20
-50.170700
11
111.961000
21
-50.182700
0
LINE
8
0
10
111.961000
20
-50.182700
11
111.961000
21
-50.182700
0
LINE
8
0
10
61.955300
20
-86.641600
11
48.166000
21
-84.221800
0
LINE
8
0
10
48.166000
20
-84.221800
11
50.585800
21
-70.432500
0
LINE
8
0
10
50.585800
20
-70.432500
11
64.375100
21
-72.852300
0
LINE
8
0
10
64.375100
20
-72.852300
11
61.955300
21
-86.641600
0
LINE
8
0
10
61.955300
20
-86.641600
11
61.955300
21
-86.641600
0
LINE
8
0
10
80.644300
20
-74.910300
11
93.803900
21
-79.687900
0
LINE
8
0
10
93.803900
20
-79.687900
11
89.026400
21
-92.847400
0
LINE
8
0
10
89.026400
20
-92.847400
11
75.866800
21
-88.069900
0
LINE
8
0
10
75.866800
20
-88.069900
11
80.644300
21
-74.910300
0
LINE
8
0
10
80.644300
20
-74.910300
11
80.644300
21
-74.910300
0
LINE
8
0
10
111.956000
20
-45.132300
11
111.944000
21
-31.133200
0
LINE
8
0
10
111.928000
20
-12.083200
11
111.940000
21
-26.082300
0
LINE
8
0
10
137.147000
20
-64.106200
11
151.093000
21
-62.886000
0
LINE
8
0
10
151.093000
20
-62.886000
11
149.873000
21
-48.939300
0
LINE
8
0
10
149.873000
20
-48.939300
11
135.926000
21
-50.159500
0
LINE
8
0
10
135.926000
20
-50.159500
11
137.147000
21
-64.106200
0
LINE
8
0
10
137.147000
20
-64.106200
11
137.147000
21
-64.106200
0
LINE
8
0
10
149.917000
20
-49.437000
11
149.873000
21
-48.939600
0
LINE
8
0
10
162.051000
20
-88.034700
11
157.263000
21
-74.879000
0
LINE
8
0
10
157.263000
20
-74.879000
11
144.107000
21
-79.667300
0
LINE
8
0
10
144.107000
20
-79.667300
11
148.896000
21
-92.823000
0
LINE
8
0
10
148.896000
20
-92.823000
11
162.051000
21
-88.034700
0
LINE
8
0
10
162.051000
20
-88.034700
11
162.051000
21
-88.034700
0
LINE
8
0
10
173.531000
20
-72.807700
11
175.962000
21
-86.595000
0
LINE
8
0
10
175.962000
20
-86.595000
11
189.749000
21
-84.163900
0
LINE
8
0
10
189.749000
20
-84.163900
11
187.318000
21
-70.376600
0
LINE
8
0
10
187.318000
20
-70.376600
11
173.531000
21
-72.807700
0
LINE
8
0
10
173.531000
20
-72.807700
11
173.531000
21
-72.807700
0
LINE
8
0
10
125.944000
20
-31.120000
11
111.944000
21
-31.133200
0
LINE
8
0
10
118.966000
20
-104.261000
11
118.929000
21
-104.261000
0
LINE
8
0
10
118.966000
20
-104.261000
11
119.002000
21
-104.261000
0
LINE
8
0
10
118.967000
20
-108.262000
11
118.949000
21
-108.262000
0
LINE
8
0
10
118.967000
20
-108.262000
11
118.985000
21
-108.262000
0
LINE
8
0
10
125.700000
20
-38.126700
11
125.466340
21
-36.365508
0
LINE
8
0
10
125.466340
20
-36.365508
11
124.795664
21
-34.751705
0
LINE
8
0
10
124.795664
20
-34.751705
11
123.733405
21
-33.363983
0
LINE
8
0
10
123.733405
20
-33.363983
11
122.324995
21
-32.281037
0
LINE
8
0
10
122.324995
20
-32.281037
11
120.682931
21
-31.602792
0
LINE
8
0
10
120.682931
20
-31.602792
11
118.950000
21
-31.376710
0
LINE
8
0
10
118.950000
20
-31.376710
11
117.217069
21
-31.602792
0
LINE
8
0
10
117.217069
20
-31.602792
11
115.575005
21
-32.281037
0
LINE
8
0
10
115.575005
20
-32.281037
11
114.166595
21
-33.363983
0
LINE
8
0
10
114.166595
20
-33.363983
11
113.104337
21
-34.751705
0
LINE
8
0
10
113.104337
20
-34.751705
11
112.433664
21
-36.365508
0
LINE
8
0
10
112.433664
20
-36.365508
11
112.200010
21
-38.126700
0
LINE
8
0
10
112.200010
20
-38.126700
11
112.433667
21
-39.887892
0
LINE
8
0
10
112.433667
20
-39.887892
11
113.104342
21
-41.501695
0
LINE
8
0
10
113.104342
20
-41.501695
11
114.166600
21
-42.889417
0
LINE
8
0
10
114.166600
20
-42.889417
11
115.575010
21
-43.972363
0
LINE
8
0
10
115.575010
20
-43.972363
11
117.217074
21
-44.650608
0
LINE
8
0
10
117.217074
20
-44.650608
11
118.950005
21
-44.876690
0
LINE
8
0
10
118.950005
20
-44.876690
11
120.682936
21
-44.650608
0
LINE
8
0
10
120.682936
20
-44.650608
11
122.325000
21
-43.972363
0
LINE
8
0
10
122.325000
20
-43.972363
11
123.733410
21
-42.889417
0
LINE
8
0
10
123.733410
20
-42.889417
11
124.795668
21
-41.501695
0
LINE
8
0
10
124.795668
20
-41.501695
11
125.466341
21
-39.887892
0
LINE
8
0
10
125.466341
20
-39.887892
11
125.699995
21
-38.126700
0
LINE
8
0
10
125.699995
20
-38.126700
11
125.700000
21
-38.126700
0
LINE
8
0
10
129.992000
20
-86.239400
11
129.768519
21
-84.022516
0
LINE
8
0
10
129.768519
20
-84.022516
11
129.127565
21
-81.957704
0
LINE
8
0
10
129.127565
20
-81.957704
11
128.113373
21
-80.089196
0
LINE
8
0
10
128.113373
20
-80.089196
11
126.770174
21
-78.461226
0
LINE
8
0
10
126.770174
20
-78.461226
11
125.142204
21
-77.118028
0
LINE
8
0
10
125.142204
20
-77.118028
11
123.273696
21
-76.103835
0
LINE
8
0
10
123.273696
20
-76.103835
11
121.208884
21
-75.462881
0
LINE
8
0
10
121.208884
20
-75.462881
11
118.992000
21
-75.239400
0
LINE
8
0
10
118.992000
20
-75.239400
11
116.775116
21
-75.462881
0
LINE
8
0
10
116.775116
20
-75.462881
11
114.710304
21
-76.103835
0
LINE
8
0
10
114.710304
20
-76.103835
11
112.841796
21
-77.118028
0
LINE
8
0
10
112.841796
20
-77.118028
11
111.213826
21
-78.461226
0
LINE
8
0
10
111.213826
20
-78.461226
11
109.870627
21
-80.089196
0
LINE
8
0
10
109.870627
20
-80.089196
11
108.856435
21
-81.957704
0
LINE
8
0
10
108.856435
20
-81.957704
11
108.215481
21
-84.022516
0
LINE
8
0
10
108.215481
20
-84.022516
11
107.992000
21
-86.239400
0
LINE
8
0
10
107.992000
20
-86.239400
11
108.088735
21
-87.696456
0
LINE
8
0
10
108.088735
20
-87.696456
11
108.372770
21
-89.109494
0
LINE
8
0
10
108.372770
20
-89.109494
11
108.834850
21
-90.462486
0
LINE
8
0
10
108.834850
20
-90.462486
11
109.465721
21
-91.739400
0
LINE
8
0
10
109.465721
20
-91.739400
11
110.256126
21
-92.924207
0
LINE
8
0
10
110.256126
20
-92.924207
11
111.196811
21
-94.000876
0
LINE
8
0
10
111.196811
20
-94.000876
11
112.278520
21
-94.953377
0
LINE
8
0
10
112.278520
20
-94.953377
11
113.492000
21
-95.765679
0
LINE
8
0
10
113.492000
20
-95.765679
11
114.802215
21
-96.410432
0
LINE
8
0
10
114.802215
20
-96.410432
11
116.167960
21
-96.870970
0
LINE
8
0
10
116.167960
20
-96.870970
11
117.570725
21
-97.147292
0
LINE
8
0
10
117.570725
20
-97.147292
11
118.992000
21
-97.239400
0
LINE
8
0
10
118.992000
20
-97.239400
11
120.413275
21
-97.147292
0
LINE
8
0
10
120.413275
20
-97.147292
11
121.816040
21
-96.870970
0
LINE
8
0
10
121.816040
20
-96.870970
11
123.181785
21
-96.410432
0
LINE
8
0
10
123.181785
20
-96.410432
11
124.492000
21
-95.765679
0
LINE
8
0
10
124.492000
20
-95.765679
11
125.705480
21
-94.953377
0
LINE
8
0
10
125.705480
20
-94.953377
11
126.787189
21
-94.000876
0
LINE
8
0
10
126.787189
20
-94.000876
11
127.727874
21
-92.924207
0
LINE
8
0
10
127.727874
20
-92.924207
11
128.518279
21
-91.739400
0
LINE
8
0
10
128.518279
20
-91.739400
11
129.149150
21
-90.462486
0
LINE
8
0
10
129.149150
20
-90.462486
11
129.611230
21
-89.109494
0
LINE
8
0
10
129.611230
20
-89.109494
11
129.895265
21
-87.696456
0
LINE
8
0
10
129.895265
20
-87.696456
11
129.992000
21
-86.239400
0
LINE
8
0
10
129.992000
20
-86.239400
11
129.992000
21
-86.239400
0
LINE
8
0
10
111.956000
20
-45.132300
11
125.956000
21
-45.121700
0
LINE
8
0
10
71.115100
20
-23.309300
11
85.062800
21
-24.518100
0
LINE
8
0
10
85.062800
20
-24.518100
11
86.271200
21
-10.570300
0
LINE
8
0
10
86.271200
20
-10.570300
11
72.323500
21
-9.361550
0
LINE
8
0
10
72.323500
20
-9.361550
11
71.115100
21
-23.309300
0
LINE
8
0
10
71.115100
20
-23.309300
11
71.115100
21
-23.309300
0
LINE
8
0
10
86.271200
20
-10.570300
11
72.323500
21
-9.361550
0
LINE
8
0
10
72.323500
20
-9.361550
11
71.115100
21
-23.309300
0
LINE
8
0
10
71.115100
20
-23.309300
11
85.062800
21
-24.518100
0
LINE
8
0
10
85.062800
20
-24.518100
11
86.271200
21
-10.570300
0
LINE
8
0
10
86.271200
20
-10.570300
11
86.271200
21
-10.570300
0
LINE
8
0
10
88.434700
20
-43.976500
11
89.643400
21
-30.028800
0
LINE
8
0
10
89.643400
20
-30.028800
11
103.591000
21
-31.237600
0
LINE
8
0
10
103.591000
20
-31.237600
11
102.382000
21
-45.185300
0
LINE
8
0
10
102.382000
20
-45.185300
11
88.434700
21
-43.976500
0
LINE
8
0
10
88.434700
20
-43.976500
11
88.434700
21
-43.976500
0
LINE
8
0
10
69.470600
20
-42.288700
11
83.418300
21
-43.497400
0
LINE
8
0
10
83.418300
20
-43.497400
11
84.626700
21
-29.549700
0
LINE
8
0
10
84.626700
20
-29.549700
11
70.679000
21
-28.340900
0
LINE
8
0
10
70.679000
20
-28.340900
11
69.470600
21
-42.288700
0
LINE
8
0
10
69.470600
20
-42.288700
11
69.470600
21
-42.288700
0
LINE
8
0
10
67.825800
20
-61.267500
11
81.773500
21
-62.476300
0
LINE
8
0
10
81.773500
20
-62.476300
11
82.981900
21
-48.528500
0
LINE
8
0
10
82.981900
20
-48.528500
11
69.034200
21
-47.319800
0
LINE
8
0
10
69.034200
20
-47.319800
11
67.825800
21
-61.267500
0
LINE
8
0
10
67.825800
20
-61.267500
11
67.825800
21
-61.267500
0
LINE
8
0
10
48.846900
20
-59.622700
11
62.794600
21
-60.831500
0
LINE
8
0
10
62.794600
20
-60.831500
11
64.003000
21
-46.883700
0
LINE
8
0
10
64.003000
20
-46.883700
11
50.055300
21
-45.675000
0
LINE
8
0
10
50.055300
20
-45.675000
11
48.846900
21
-59.622700
0
LINE
8
0
10
48.846900
20
-59.622700
11
48.846900
21
-59.622700
0
LINE
8
0
10
65.647800
20
-27.904900
11
51.700100
21
-26.696100
0
LINE
8
0
10
51.700100
20
-26.696100
11
50.491700
21
-40.643800
0
LINE
8
0
10
50.491700
20
-40.643800
11
64.439400
21
-41.852600
0
LINE
8
0
10
64.439400
20
-41.852600
11
65.647800
21
-27.904900
0
LINE
8
0
10
65.647800
20
-27.904900
11
65.647800
21
-27.904900
0
LINE
8
0
10
67.292300
20
-8.925530
11
53.344600
21
-7.716750
0
LINE
8
0
10
53.344600
20
-7.716750
11
52.136200
21
-21.664500
0
LINE
8
0
10
52.136200
20
-21.664500
11
66.083900
21
-22.873300
0
LINE
8
0
10
66.083900
20
-22.873300
11
67.292300
21
-8.925530
0
LINE
8
0
10
67.292300
20
-8.925530
11
67.292300
21
-8.925530
0
LINE
8
0
10
32.678100
20
-25.550500
11
32.721200
21
-25.050400
0
LINE
8
0
10
13.699300
20
-23.904800
11
13.742500
21
-23.407400
0
LINE
8
0
10
48.313500
20
-7.280730
11
34.365800
21
-6.071950
0
LINE
8
0
10
34.365800
20
-6.071950
11
33.157400
21
-20.019700
0
LINE
8
0
10
33.157400
20
-20.019700
11
47.105100
21
-21.228500
0
LINE
8
0
10
47.105100
20
-21.228500
11
48.313500
21
-7.280730
0
LINE
8
0
10
48.313500
20
-7.280730
11
48.313500
21
-7.280730
0
LINE
8
0
10
31.512900
20
-38.999000
11
32.721300
21
-25.051300
0
LINE
8
0
10
32.721300
20
-25.051300
11
46.669000
21
-26.260100
0
LINE
8
0
10
46.669000
20
-26.260100
11
45.460600
21
-40.207800
0
LINE
8
0
10
45.460600
20
-40.207800
11
31.512900
21
-38.999000
0
LINE
8
0
10
31.512900
20
-38.999000
11
31.512900
21
-38.999000
0
LINE
8
0
10
29.868100
20
-57.977900
11
43.815800
21
-59.186700
0
LINE
8
0
10
43.815800
20
-59.186700
11
45.024200
21
-45.238900
0
LINE
8
0
10
45.024200
20
-45.238900
11
31.076500
21
-44.030100
0
LINE
8
0
10
31.076500
20
-44.030100
11
29.868100
21
-57.977900
0
LINE
8
0
10
29.868100
20
-57.977900
11
29.868100
21
-57.977900
0
LINE
8
0
10
29.334700
20
-5.635930
11
15.387000
21
-4.427150
0
LINE
8
0
10
15.387000
20
-4.427150
11
14.178600
21
-18.374900
0
LINE
8
0
10
14.178600
20
-18.374900
11
28.126300
21
-19.583700
0
LINE
8
0
10
28.126300
20
-19.583700
11
29.334700
21
-5.635930
0
LINE
8
0
10
29.334700
20
-5.635930
11
29.334700
21
-5.635930
0
LINE
8
0
10
12.534100
20
-37.354200
11
13.742500
21
-23.406500
0
LINE
8
0
10
13.742500
20
-23.406500
11
27.690200
21
-24.615300
0
LINE
8
0
10
27.690200
20
-24.615300
11
26.481800
21
-38.563000
0
LINE
8
0
10
26.481800
20
-38.563000
11
12.534100
21
-37.354200
0
LINE
8
0
10
12.534100
20
-37.354200
11
12.534100
21
-37.354200
0
LINE
8
0
10
10.889300
20
-56.333100
11
24.837000
21
-57.541900
0
LINE
8
0
10
24.837000
20
-57.541900
11
26.045400
21
-43.594100
0
LINE
8
0
10
26.045400
20
-43.594100
11
12.097700
21
-42.385300
0
LINE
8
0
10
12.097700
20
-42.385300
11
10.889300
21
-56.333100
0
LINE
8
0
10
10.889300
20
-56.333100
11
10.889300
21
-56.333100
0
LINE
8
0
10
8.832880
20
-80.056600
11
10.041700
21
-66.108900
0
LINE
8
0
10
10.041700
20
-66.108900
11
23.989400
21
-67.317700
0
LINE
8
0
10
23.989400
20
-67.317700
11
22.780600
21
-81.265400
0
LINE
8
0
10
22.780600
20
-81.265400
11
8.832880
21
-80.056600
0
LINE
8
0
10
8.832880
20
-80.056600
11
8.832880
21
-80.056600
0
LINE
8
0
10
42.968200
20
-68.962500
11
29.020500
21
-67.753700
0
LINE
8
0
10
29.020500
20
-67.753700
11
27.811700
21
-81.701400
0
LINE
8
0
10
27.811700
20
-81.701400
11
41.759400
21
-82.910200
0
LINE
8
0
10
41.759400
20
-82.910200
11
42.968200
21
-68.962500
0
LINE
8
0
10
42.968200
20
-68.962500
11
42.968200
21
-68.962500
0
LINE
8
0
10
208.881000
20
-67.680200
11
210.101000
21
-81.626900
0
LINE
8
0
10
210.101000
20
-81.626900
11
196.154000
21
-82.847100
0
LINE
8
0
10
196.154000
20
-82.847100
11
194.934000
21
-68.900400
0
LINE
8
0
10
194.934000
20
-68.900400
11
208.881000
21
-67.680200
0
LINE
8
0
10
208.881000
20
-67.680200
11
208.881000
21
-67.680200
0
LINE
8
0
10
227.858000
20
-66.019900
11
229.079000
21
-79.966600
0
LINE
8
0
10
229.079000
20
-79.966600
11
215.132000
21
-81.186800
0
LINE
8
0
10
215.132000
20
-81.186800
11
213.912000
21
-67.240100
0
LINE
8
0
10
213.912000
20
-67.240100
11
227.858000
21
-66.019900
0
LINE
8
0
10
227.858000
20
-66.019900
11
227.858000
21
-66.019900
0
LINE
8
0
10
88.434700
20
-43.976500
11
89.643400
21
-30.028800
0
LINE
8
0
10
89.643400
20
-30.028800
11
103.591000
21
-31.237600
0
LINE
8
0
10
103.591000
20
-31.237600
11
102.382000
21
-45.185300
0
LINE
8
0
10
102.382000
20
-45.185300
11
88.434700
21
-43.976500
0
LINE
8
0
10
88.434700
20
-43.976500
11
88.434700
21
-43.976500
0
LINE
8
0
10
91.302600
20
-11.006400
11
105.250000
21
-12.215500
0
LINE
8
0
10
90.093800
20
-24.954600
11
91.302600
21
-11.006900
0
LINE
8
0
10
91.302600
20
-11.006900
11
105.250000
21
-12.215700
0
LINE
8
0
10
105.250000
20
-12.215700
11
104.042000
21
-26.163400
0
LINE
8
0
10
104.042000
20
-26.163400
11
90.093800
21
-24.954600
0
LINE
8
0
10
90.093800
20
-24.954600
11
90.093800
21
-24.954600
0
LINE
8
0
10
132.606000
20
-12.204500
11
146.553000
21
-10.984300
0
LINE
8
0
10
146.553000
20
-10.984300
11
147.773000
21
-24.931000
0
LINE
8
0
10
147.773000
20
-24.931000
11
133.826000
21
-26.151200
0
LINE
8
0
10
133.826000
20
-26.151200
11
132.606000
21
-12.204500
0
LINE
8
0
10
132.606000
20
-12.204500
11
132.606000
21
-12.204500
0
LINE
8
0
10
151.583000
20
-10.544200
11
152.803000
21
-24.490900
0
LINE
8
0
10
152.803000
20
-24.490900
11
166.750000
21
-23.270700
0
LINE
8
0
10
166.750000
20
-23.270700
11
165.530000
21
-9.323990
0
LINE
8
0
10
165.530000
20
-9.323990
11
151.583000
21
-10.544200
0
LINE
8
0
10
151.583000
20
-10.544200
11
151.583000
21
-10.544200
0
LINE
8
0
10
167.190000
20
-28.300200
11
167.234000
21
-28.799600
0
LINE
8
0
10
167.234000
20
-28.799600
11
168.367000
21
-41.750100
0
LINE
8
0
10
168.367000
20
-41.750100
11
168.410000
21
-42.248200
0
LINE
8
0
10
168.410000
20
-42.248200
11
167.912000
21
-42.291800
0
LINE
8
0
10
167.912000
20
-42.291800
11
154.962000
21
-43.424800
0
LINE
8
0
10
154.962000
20
-43.424800
11
154.464000
21
-43.468400
0
LINE
8
0
10
154.464000
20
-43.468400
11
154.420000
21
-42.970300
0
LINE
8
0
10
154.420000
20
-42.970300
11
153.287000
21
-30.019800
0
LINE
8
0
10
153.287000
20
-30.019800
11
153.244000
21
-29.521700
0
LINE
8
0
10
153.244000
20
-29.521700
11
153.742000
21
-29.476900
0
LINE
8
0
10
153.742000
20
-29.476900
11
166.692000
21
-28.343800
0
LINE
8
0
10
166.692000
20
-28.343800
11
167.190000
21
-28.300200
0
LINE
8
0
10
167.190000
20
-28.300200
11
167.190000
21
-28.300200
0
LINE
8
0
10
156.124000
20
-62.445800
11
170.071000
21
-61.225700
0
LINE
8
0
10
170.071000
20
-61.225700
11
168.851000
21
-47.279000
0
LINE
8
0
10
168.851000
20
-47.279000
11
154.904000
21
-48.499100
0
LINE
8
0
10
154.904000
20
-48.499100
11
156.124000
21
-62.445800
0
LINE
8
0
10
156.124000
20
-62.445800
11
156.124000
21
-62.445800
0
LINE
8
0
10
170.561000
20
-8.883850
11
171.781000
21
-22.830600
0
LINE
8
0
10
171.781000
20
-22.830600
11
185.728000
21
-21.610400
0
LINE
8
0
10
185.728000
20
-21.610400
11
184.507000
21
-7.663670
0
LINE
8
0
10
184.507000
20
-7.663670
11
170.561000
21
-8.883850
0
LINE
8
0
10
170.561000
20
-8.883850
11
170.561000
21
-8.883850
0
LINE
8
0
10
186.168000
20
-26.639900
11
186.211000
21
-27.139300
0
LINE
8
0
10
186.211000
20
-27.139300
11
187.344000
21
-40.089800
0
LINE
8
0
10
187.344000
20
-40.089800
11
187.388000
21
-40.587900
0
LINE
8
0
10
187.388000
20
-40.587900
11
186.890000
21
-40.631400
0
LINE
8
0
10
186.890000
20
-40.631400
11
173.939000
21
-41.764500
0
LINE
8
0
10
173.939000
20
-41.764500
11
173.441000
21
-41.808000
0
LINE
8
0
10
173.441000
20
-41.808000
11
173.398000
21
-41.309900
0
LINE
8
0
10
173.398000
20
-41.309900
11
172.265000
21
-28.359400
0
LINE
8
0
10
172.265000
20
-28.359400
11
172.221000
21
-27.861300
0
LINE
8
0
10
172.221000
20
-27.861300
11
172.719000
21
-27.816500
0
LINE
8
0
10
172.719000
20
-27.816500
11
185.670000
21
-26.683400
0
LINE
8
0
10
185.670000
20
-26.683400
11
186.168000
21
-26.639900
0
LINE
8
0
10
186.168000
20
-26.639900
11
186.168000
21
-26.639900
0
LINE
8
0
10
175.102000
20
-60.785500
11
189.048000
21
-59.565300
0
LINE
8
0
10
189.048000
20
-59.565300
11
187.828000
21
-45.618600
0
LINE
8
0
10
187.828000
20
-45.618600
11
173.881000
21
-46.838800
0
LINE
8
0
10
173.881000
20
-46.838800
11
175.102000
21
-60.785500
0
LINE
8
0
10
175.102000
20
-60.785500
11
175.102000
21
-60.785500
0
LINE
8
0
10
208.516000
20
-5.563230
11
209.736000
21
-19.509900
0
LINE
8
0
10
209.736000
20
-19.509900
11
223.683000
21
-18.289800
0
LINE
8
0
10
223.683000
20
-18.289800
11
222.462000
21
-4.343050
0
LINE
8
0
10
222.462000
20
-4.343050
11
208.516000
21
-5.563230
0
LINE
8
0
10
208.516000
20
-5.563230
11
208.516000
21
-5.563230
0
LINE
8
0
10
224.123000
20
-23.319200
11
224.166000
21
-23.818600
0
LINE
8
0
10
224.166000
20
-23.818600
11
225.299000
21
-36.769100
0
LINE
8
0
10
225.299000
20
-36.769100
11
225.343000
21
-37.267200
0
LINE
8
0
10
225.343000
20
-37.267200
11
224.845000
21
-37.310800
0
LINE
8
0
10
224.845000
20
-37.310800
11
211.894000
21
-38.443800
0
LINE
8
0
10
211.894000
20
-38.443800
11
211.396000
21
-38.487400
0
LINE
8
0
10
211.396000
20
-38.487400
11
211.353000
21
-37.989300
0
LINE
8
0
10
211.353000
20
-37.989300
11
210.220000
21
-25.038800
0
LINE
8
0
10
210.220000
20
-25.038800
11
210.176000
21
-24.540700
0
LINE
8
0
10
210.176000
20
-24.540700
11
210.674000
21
-24.495900
0
LINE
8
0
10
210.674000
20
-24.495900
11
223.625000
21
-23.362800
0
LINE
8
0
10
223.625000
20
-23.362800
11
224.123000
21
-23.319200
0
LINE
8
0
10
224.123000
20
-23.319200
11
224.123000
21
-23.319200
0
LINE
8
0
10
213.057000
20
-57.464900
11
227.003000
21
-56.244700
0
LINE
8
0
10
227.003000
20
-56.244700
11
225.783000
21
-42.298000
0
LINE
8
0
10
225.783000
20
-42.298000
11
211.836000
21
-43.518200
0
LINE
8
0
10
211.836000
20
-43.518200
11
213.057000
21
-57.464900
0
LINE
8
0
10
213.057000
20
-57.464900
11
213.057000
21
-57.464900
0
LINE
8
0
10
189.538000
20
-7.223540
11
190.758000
21
-21.170300
0
LINE
8
0
10
190.758000
20
-21.170300
11
204.705000
21
-19.950100
0
LINE
8
0
10
204.705000
20
-19.950100
11
203.485000
21
-6.003360
0
LINE
8
0
10
203.485000
20
-6.003360
11
189.538000
21
-7.223540
0
LINE
8
0
10
189.538000
20
-7.223540
11
189.538000
21
-7.223540
0
LINE
8
0
10
205.145000
20
-24.979600
11
205.189000
21
-25.478900
0
LINE
8
0
10
205.189000
20
-25.478900
11
206.322000
21
-38.429500
0
LINE
8
0
10
206.322000
20
-38.429500
11
206.365000
21
-38.927600
0
LINE
8
0
10
206.365000
20
-38.927600
11
205.867000
21
-38.971100
0
LINE
8
0
10
205.867000
20
-38.971100
11
192.917000
21
-40.104200
0
LINE
8
0
10
192.917000
20
-40.104200
11
192.419000
21
-40.147700
0
LINE
8
0
10
192.419000
20
-40.147700
11
192.375000
21
-39.649600
0
LINE
8
0
10
192.375000
20
-39.649600
11
191.242000
21
-26.699100
0
LINE
8
0
10
191.242000
20
-26.699100
11
191.199000
21
-26.201000
0
LINE
8
0
10
191.199000
20
-26.201000
11
191.697000
21
-26.156200
0
LINE
8
0
10
191.697000
20
-26.156200
11
204.647000
21
-25.023100
0
LINE
8
0
10
204.647000
20
-25.023100
11
205.145000
21
-24.979600
0
LINE
8
0
10
205.145000
20
-24.979600
11
205.145000
21
-24.979600
0
LINE
8
0
10
194.079000
20
-59.125200
11
208.026000
21
-57.905000
0
LINE
8
0
10
208.026000
20
-57.905000
11
206.806000
21
-43.958300
0
LINE
8
0
10
206.806000
20
-43.958300
11
192.859000
21
-45.178500
0
LINE
8
0
10
192.859000
20
-45.178500
11
194.079000
21
-59.125200
0
LINE
8
0
10
194.079000
20
-59.125200
11
194.079000
21
-59.125200
0
LINE
8
0
10
76.545400
20
-4.005500
11
27.136700
21
0.275457
0
LINE
8
0
10
211.008000
20
0.375999
11
161.304000
21
-3.971100
0
LINE
8
0
10
233.063000
20
-60.060100
11
229.999000
21
-25.063700
0
LINE
8
0
10
209.407000
20
-88.185200
11
224.360000
21
-86.904600
0
LINE
8
0
10
142.071000
20
-103.880000
11
142.071000
21
-103.872000
0
LINE
8
0
10
135.083000
20
-103.880000
11
142.071000
21
-103.880000
0
LINE
8
0
10
135.083000
20
-103.880000
11
102.848000
21
-103.894000
0
LINE
8
0
10
102.848000
20
-103.894000
11
95.856600
21
-103.894000
0
LINE
8
0
10
28.511200
20
-88.259300
11
13.557200
21
-86.992000
0
LINE
8
0
10
4.831600
20
-60.157900
11
7.867720
21
-25.156300
0
LINE
8
0
10
102.861000
20
-101.192000
11
118.964000
21
-101.260000
0
LINE
8
0
10
118.964000
20
-101.260000
11
135.068000
21
-101.179000
0
LINE
8
0
10
135.068000
20
-101.179000
11
139.343428
21
-101.064138
0
LINE
8
0
10
139.343428
20
-101.064138
11
143.603701
21
-100.763399
0
LINE
8
0
10
143.603701
20
-100.763399
11
147.842834
21
-100.277869
0
LINE
8
0
10
147.842834
20
-100.277869
11
152.054845
21
-99.608631
0
LINE
8
0
10
152.054845
20
-99.608631
11
156.233751
21
-98.756770
0
LINE
8
0
10
156.233751
20
-98.756770
11
160.373567
21
-97.723372
0
LINE
8
0
10
160.373567
20
-97.723372
11
164.468311
21
-96.509520
0
LINE
8
0
10
164.468311
20
-96.509520
11
168.512000
21
-95.116300
0
LINE
8
0
10
168.512000
20
-95.116300
11
177.261000
21
-91.886400
0
LINE
8
0
10
177.261000
20
-91.886400
11
183.758791
21
-89.732582
0
LINE
8
0
10
183.758791
20
-89.732582
11
190.378918
21
-88.021123
0
LINE
8
0
10
190.378918
20
-88.021123
11
197.098836
21
-86.757053
0
LINE
8
0
10
197.098836
20
-86.757053
11
203.896000
21
-85.945400
0
LINE
8
0
10
203.896000
20
-85.945400
11
229.411000
21
-83.764300
0
LINE
8
0
10
229.411000
20
-83.764300
11
230.535643
21
-83.438684
0
LINE
8
0
10
230.535643
20
-83.438684
11
231.449998
21
-82.707381
0
LINE
8
0
10
231.449998
20
-82.707381
11
232.014792
21
-81.681781
0
LINE
8
0
10
232.014792
20
-81.681781
11
232.144000
21
-80.518100
0
LINE
8
0
10
232.144000
20
-80.518100
11
225.539000
21
-5.077420
0
LINE
8
0
10
225.539000
20
-5.077420
11
225.393340
21
-4.303118
0
LINE
8
0
10
225.393340
20
-4.303118
11
225.102138
21
-3.578983
0
LINE
8
0
10
225.102138
20
-3.578983
11
224.675885
21
-2.925165
0
LINE
8
0
10
224.675885
20
-2.925165
11
224.125071
21
-2.361813
0
LINE
8
0
10
224.125071
20
-2.361813
11
223.474536
21
-1.917330
0
LINE
8
0
10
223.474536
20
-1.917330
11
222.756569
21
-1.611238
0
LINE
8
0
10
222.756569
20
-1.611238
11
221.992835
21
-1.450365
0
LINE
8
0
10
221.992835
20
-1.450365
11
221.205000
21
-1.441540
0
LINE
8
0
10
221.205000
20
-1.441540
11
151.235000
21
-7.562170
0
LINE
8
0
10
151.235000
20
-7.562170
11
127.272000
21
-7.578910
0
LINE
8
0
10
127.272000
20
-7.578910
11
125.979000
21
-7.578910
0
LINE
8
0
10
125.979000
20
-7.578910
11
125.923000
21
-7.578910
0
LINE
8
0
10
125.923000
20
-7.578910
11
124.923000
21
-7.578910
0
LINE
8
0
10
124.923000
20
-7.578910
11
112.923000
21
-7.582590
0
LINE
8
0
10
112.923000
20
-7.582590
11
111.922000
21
-7.583000
0
LINE
8
0
10
111.922000
20
-7.583000
11
111.425000
21
-7.585040
0
LINE
8
0
10
111.425000
20
-7.585040
11
110.581000
21
-7.585730
0
LINE
8
0
10
110.581000
20
-7.585730
11
86.616900
21
-7.588580
0
LINE
8
0
10
86.616900
20
-7.588580
11
16.642100
21
-1.525140
0
LINE
8
0
10
16.642100
20
-1.525140
11
15.831992
21
-1.536494
0
LINE
8
0
10
15.831992
20
-1.536494
11
15.063863
21
-1.703850
0
LINE
8
0
10
15.063863
20
-1.703850
11
13.723186
21
-2.448036
0
LINE
8
0
10
13.723186
20
-2.448036
11
12.759367
21
-3.640629
0
LINE
8
0
10
12.759367
20
-3.640629
11
12.462308
21
-4.368494
0
LINE
8
0
10
12.462308
20
-4.368494
11
12.311700
21
-5.164560
0
LINE
8
0
10
12.311700
20
-5.164560
11
5.767490
21
-80.614800
0
LINE
8
0
10
5.767490
20
-80.614800
11
5.904708
21
-81.797493
0
LINE
8
0
10
5.904708
20
-81.797493
11
6.465136
21
-82.801088
0
LINE
8
0
10
6.465136
20
-82.801088
11
7.360851
21
-83.521489
0
LINE
8
0
10
7.360851
20
-83.521489
11
8.503930
21
-83.854600
0
LINE
8
0
10
8.503930
20
-83.854600
11
34.020000
21
-86.014900
0
LINE
8
0
10
34.020000
20
-86.014900
11
40.817889
21
-86.820978
0
LINE
8
0
10
40.817889
20
-86.820978
11
47.538902
21
-88.079544
0
LINE
8
0
10
47.538902
20
-88.079544
11
54.160488
21
-89.785588
0
LINE
8
0
10
54.160488
20
-89.785588
11
60.660100
21
-91.934100
0
LINE
8
0
10
60.660100
20
-91.934100
11
69.412300
21
-95.156800
0
LINE
8
0
10
69.412300
20
-95.156800
11
73.457100
21
-96.546685
0
LINE
8
0
10
73.457100
20
-96.546685
11
77.552807
21
-97.757162
0
LINE
8
0
10
77.552807
20
-97.757162
11
81.693438
21
-98.787152
0
LINE
8
0
10
81.693438
20
-98.787152
11
85.873008
21
-99.635574
0
LINE
8
0
10
85.873008
20
-99.635574
11
90.085533
21
-100.301350
0
LINE
8
0
10
90.085533
20
-100.301350
11
94.325030
21
-100.783400
0
LINE
8
0
10
94.325030
20
-100.783400
11
98.585513
21
-101.080643
0
LINE
8
0
10
98.585513
20
-101.080643
11
102.861000
21
-101.192000
0
LINE
8
0
10
102.861000
20
-101.192000
11
102.861000
21
-101.192000
0
LINE
8
0
10
95.856600
20
-103.894000
11
95.856600
21
-100.912000
0
LINE
8
0
10
142.071000
20
-103.872000
11
142.071000
21
-100.893000
0
LINE
8
0
10
209.407000
20
-88.185200
11
209.177000
21
-85.494400
0
LINE
8
0
10
224.360000
20
-86.904600
11
224.130000
21
-84.216500
0
LINE
8
0
10
229.999000
20
-25.063700
11
227.309000
21
-25.299100
0
LINE
8
0
10
233.063000
20
-60.060100
11
230.373000
21
-60.295500
0
LINE
8
0
10
211.008000
20
0.375999
11
211.243000
21
-2.312160
0
LINE
8
0
10
161.304000
20
-3.971100
11
161.539000
21
-6.661910
0
LINE
8
0
10
76.545400
20
-4.005500
11
76.312400
21
-6.696300
0
LINE
8
0
10
27.136700
20
0.275457
11
26.903600
21
-2.415350
0
LINE
8
0
10
7.867720
20
-25.156300
11
10.557600
21
-25.389100
0
LINE
8
0
10
4.831600
20
-60.157900
11
7.521510
21
-60.393400
0
LINE
8
0
10
28.511200
20
-88.259300
11
28.738700
21
-85.568500
0
LINE
8
0
10
13.557200
20
-86.992000
11
13.785000
21
-84.301100
 0 
ENDSEC
 0 
EOF