M48
; DRILL file {KiCad (6.0.7)} date Mon 19 Sep 2022 14:16:06 CEST
; FORMAT={-:-/ absolute / metric / decimal}
; #@! TF.CreationDate,2022-09-19T14:16:06+02:00
; #@! TF.GenerationSoftware,Kicad,Pcbnew,(6.0.7)
; #@! TF.FileFunction,Plated,1,2,PTH
FMAT,2
METRIC
; #@! TA.AperFunction,Plated,PTH,ComponentDrill
T1C0.350
; #@! TA.AperFunction,Plated,PTH,ViaDrill
T2C0.400
; #@! TA.AperFunction,Plated,PTH,ComponentDrill
T3C0.600
; #@! TA.AperFunction,Plated,PTH,ComponentDrill
T4C0.700
; #@! TA.AperFunction,Plated,PTH,ComponentDrill
T5C1.000
; #@! TA.AperFunction,Plated,PTH,ComponentDrill
T6C1.200
; #@! TA.AperFunction,Plated,PTH,ComponentDrill
T7C1.470
%
G90
G05
T1
X151.912Y-96.77
X152.813Y-95.868
X152.813Y-97.672
X153.715Y-94.967
X153.715Y-96.77
X153.715Y-98.573
X154.617Y-95.868
X154.617Y-97.672
X155.518Y-96.77
T2
X132.88Y-55.75
X134.65Y-79.15
X137.23Y-49.07
X139.49Y-86.26
X139.537Y-87.923
X141.81Y-45.71
X141.95Y-41.86
X142.86Y-46.12
X143.34Y-66.33
X145.53Y-79.36
X146.38Y-87.45
X146.38Y-108.12
X146.56Y-78.76
X146.75Y-104.7
X146.95Y-89.83
X147.1Y-107.3
X147.21Y-40.98
X147.305Y-42.115
X147.55Y-76.69
X147.89Y-53.36
X148.032Y-102.658
X148.26Y-97.19
X148.59Y-76.17
X149.59Y-75.84
X149.83Y-92.59
X150.056Y-77.426
X150.73Y-91.88
X151.11Y-77.36
X151.48Y-89.49
X151.595Y-91.085
X151.98Y-101.53
X152.11Y-77.35
X153.02Y-90.94
X153.75Y-104.34
X153.77Y-102.22
X154.27Y-99.52
X155.38Y-35.34
X155.48Y-95.21
X156.17Y-49.37
X156.29Y-64.33
X156.7Y-83.51
X158.765Y-96.275
X158.94Y-75.8
X159.21Y-100.28
X159.57Y-70.61
X159.77Y-97.04
X160.41Y-77.46
X160.5Y-101.63
X160.54Y-97.83
X161.2Y-98.62
X162.45Y-99.66
X162.54Y-54.03
X162.97Y-56.86
X163.94Y-41.28
X169.62Y-117.81
X176.66Y-54.73
X179.82Y-103.31
T4
X144.945Y-45.545
X144.945Y-46.815
X144.945Y-48.085
X153.685Y-69.62
T5
X146.215Y-111.87
X146.215Y-114.37
X146.215Y-116.87
X151.225Y-59.21
X151.225Y-73.71
X153.725Y-73.71
X156.225Y-59.21
X156.225Y-73.71
X160.715Y-111.87
X160.715Y-116.87
X166.225Y-109.24
X166.225Y-111.78
X166.225Y-114.32
X166.225Y-116.86
X166.225Y-119.4
T6
X51.699Y-95.922
X53.709Y-72.192
X55.349Y-53.222
X56.497Y-98.45
X57.029Y-34.232
X58.507Y-74.72
X60.147Y-55.75
X61.827Y-36.76
X70.619Y-97.602
X72.689Y-73.832
X74.349Y-54.872
X75.417Y-100.13
X75.999Y-35.882
X77.487Y-76.36
X79.147Y-57.4
X80.797Y-38.41
X91.649Y-75.532
X92.02Y-100.86
X93.309Y-56.552
X94.979Y-37.562
X96.447Y-78.06
X96.579Y-103.796
X98.107Y-59.08
X99.777Y-40.09
X110.649Y-77.172
X112.299Y-58.212
X113.959Y-39.222
X115.447Y-79.7
X117.097Y-60.74
X118.757Y-41.75
X121.633Y-106.426
X125.613Y-110.109
X129.647Y-78.802
X131.279Y-59.862
X132.919Y-40.912
X134.445Y-81.33
X136.077Y-62.39
X137.717Y-43.44
X153.635Y-41.3
X153.715Y-79.4
X153.725Y-60.31
X158.635Y-43.4
X158.715Y-81.5
X158.725Y-62.41
X174.411Y-40.812
X176.121Y-59.792
X177.791Y-78.802
X179.575Y-42.469
X181.285Y-61.449
X182.955Y-80.459
X185.837Y-106.406
X191.254Y-106.669
X193.411Y-39.142
X195.081Y-58.112
X196.761Y-77.092
X198.575Y-40.799
X200.245Y-59.769
X201.925Y-78.749
X212.361Y-37.492
X214.091Y-56.422
X215.37Y-100.75
X215.691Y-75.422
X217.525Y-39.149
X219.255Y-58.079
X220.659Y-101.949
X220.855Y-77.079
X231.381Y-35.812
X233.061Y-54.792
X234.681Y-73.752
X236.545Y-37.469
X236.761Y-97.522
X238.225Y-56.449
X239.845Y-75.409
X241.925Y-99.179
X250.351Y-34.122
X252.021Y-53.132
X253.671Y-72.092
X255.515Y-35.779
X255.721Y-95.852
X257.185Y-54.789
X258.835Y-73.749
X260.885Y-97.509
T7
X47.611Y-98.938
X49.043Y-97.597
X49.621Y-75.208
X51.053Y-73.867
X51.261Y-56.238
X52.693Y-54.897
X52.941Y-37.248
X54.068Y-97.535
X54.158Y-96.961
X54.373Y-35.907
X56.078Y-73.805
X56.168Y-73.231
X57.718Y-54.835
X57.808Y-54.261
X59.398Y-35.845
X59.488Y-35.271
X66.531Y-100.618
X67.963Y-99.277
X68.601Y-76.848
X70.033Y-75.507
X70.261Y-57.888
X71.693Y-56.547
X71.911Y-38.898
X72.988Y-99.215
X73.078Y-98.641
X73.343Y-37.557
X75.058Y-75.445
X75.148Y-74.871
X76.718Y-56.485
X76.808Y-55.911
X78.368Y-37.495
X78.458Y-36.921
X87.561Y-78.548
X87.684Y-103.507
X88.993Y-77.207
X89.221Y-59.568
X89.228Y-102.297
X90.653Y-58.227
X90.891Y-40.578
X92.323Y-39.237
X94.018Y-77.145
X94.108Y-76.571
X94.238Y-102.672
X94.379Y-102.108
X95.678Y-58.165
X95.768Y-57.591
X97.348Y-39.175
X97.438Y-38.601
X106.561Y-80.188
X107.993Y-78.847
X108.211Y-61.228
X109.643Y-59.887
X109.871Y-42.238
X111.303Y-40.897
X113.018Y-78.785
X113.108Y-78.211
X114.668Y-59.825
X114.758Y-59.251
X116.328Y-40.835
X116.418Y-40.261
X116.904Y-108.28
X118.634Y-107.356
X123.503Y-108.596
X123.739Y-108.065
X125.559Y-81.817
X126.991Y-80.477
X127.191Y-62.878
X128.623Y-61.537
X128.831Y-43.928
X130.263Y-42.587
X132.016Y-80.415
X132.106Y-79.84
X133.648Y-61.475
X133.738Y-60.901
X135.288Y-42.525
X135.378Y-41.951
X149.825Y-44.66
X149.905Y-82.76
X149.915Y-63.67
X151.135Y-43.2
X151.215Y-81.3
X151.225Y-62.21
X156.135Y-42.7
X156.175Y-42.12
X156.215Y-80.8
X156.225Y-61.71
X156.255Y-80.22
X156.265Y-61.13
X170.908Y-44.492
X172.086Y-42.923
X172.618Y-63.472
X173.796Y-61.903
X174.288Y-82.482
X175.466Y-80.913
X177.013Y-41.408
X177.023Y-41.989
X178.723Y-60.388
X178.733Y-60.969
X180.393Y-79.398
X180.403Y-79.979
X183.406Y-110.866
X184.138Y-109.046
X188.504Y-106.308
X188.665Y-106.866
X189.908Y-42.822
X191.086Y-41.253
X191.578Y-61.792
X192.756Y-60.223
X193.258Y-80.772
X194.436Y-79.203
X196.013Y-39.738
X196.023Y-40.319
X197.683Y-58.708
X197.693Y-59.289
X199.363Y-77.688
X199.373Y-78.269
X208.858Y-41.172
X210.036Y-39.603
X210.588Y-60.102
X211.766Y-58.533
X212.188Y-79.102
X212.202Y-104.72
X213.238Y-103.055
X213.366Y-77.533
X214.963Y-38.088
X214.973Y-38.669
X216.693Y-57.018
X216.703Y-57.599
X218.014Y-101.116
X218.076Y-101.694
X218.293Y-76.018
X218.303Y-76.599
X227.878Y-39.492
X229.056Y-37.923
X229.558Y-58.472
X230.736Y-56.903
X231.178Y-77.432
X232.356Y-75.863
X233.258Y-101.202
X233.983Y-36.408
X233.993Y-36.989
X234.436Y-99.633
X235.663Y-55.388
X235.673Y-55.969
X237.283Y-74.348
X237.293Y-74.929
X239.363Y-98.118
X239.373Y-98.699
X246.848Y-37.802
X248.026Y-36.233
X248.518Y-56.812
X249.696Y-55.243
X250.168Y-75.772
X251.346Y-74.203
X252.218Y-99.532
X252.953Y-34.718
X252.963Y-35.299
X253.396Y-97.963
X254.623Y-53.728
X254.633Y-54.309
X256.273Y-72.688
X256.283Y-73.269
X258.323Y-96.448
X258.333Y-97.029
T3
G00X149.39Y-31.62
M15
G01X149.39Y-32.22
M16
G05
G00X149.39Y-35.55
M15
G01X149.39Y-36.65
M16
G05
G00X158.03Y-31.62
M15
G01X158.03Y-32.22
M16
G05
G00X158.03Y-35.55
M15
G01X158.03Y-36.65
M16
G05
T0
M30
