%TF.GenerationSoftware,KiCad,Pcbnew,(6.0.7)*%
%TF.CreationDate,2022-09-19T14:16:01+02:00*%
%TF.ProjectId,knobdeavour,6b6e6f62-6465-4617-966f-75722e6b6963,1*%
%TF.SameCoordinates,Original*%
%TF.FileFunction,Paste,Bot*%
%TF.FilePolarity,Positive*%
%FSLAX46Y46*%
G04 Gerber Fmt 4.6, Leading zero omitted, Abs format (unit mm)*
G04 Created by KiCad (PCBNEW (6.0.7)) date 2022-09-19 14:16:01*
%MOMM*%
%LPD*%
G01*
G04 APERTURE LIST*
G04 Aperture macros list*
%AMRoundRect*
0 Rectangle with rounded corners*
0 $1 Rounding radius*
0 $2 $3 $4 $5 $6 $7 $8 $9 X,Y pos of 4 corners*
0 Add a 4 corners polygon primitive as box body*
4,1,4,$2,$3,$4,$5,$6,$7,$8,$9,$2,$3,0*
0 Add four circle primitives for the rounded corners*
1,1,$1+$1,$2,$3*
1,1,$1+$1,$4,$5*
1,1,$1+$1,$6,$7*
1,1,$1+$1,$8,$9*
0 Add four rect primitives between the rounded corners*
20,1,$1+$1,$2,$3,$4,$5,0*
20,1,$1+$1,$4,$5,$6,$7,0*
20,1,$1+$1,$6,$7,$8,$9,0*
20,1,$1+$1,$8,$9,$2,$3,0*%
%AMRotRect*
0 Rectangle, with rotation*
0 The origin of the aperture is its center*
0 $1 length*
0 $2 width*
0 $3 Rotation angle, in degrees counterclockwise*
0 Add horizontal line*
21,1,$1,$2,0,0,$3*%
G04 Aperture macros list end*
%ADD10RotRect,0.900000X0.800000X356.000000*%
%ADD11RoundRect,0.250000X0.475000X-0.250000X0.475000X0.250000X-0.475000X0.250000X-0.475000X-0.250000X0*%
%ADD12RotRect,0.900000X0.800000X184.000000*%
%ADD13RoundRect,0.250000X-0.475000X0.250000X-0.475000X-0.250000X0.475000X-0.250000X0.475000X0.250000X0*%
%ADD14RoundRect,0.250000X0.375000X0.625000X-0.375000X0.625000X-0.375000X-0.625000X0.375000X-0.625000X0*%
%ADD15RoundRect,0.250000X-0.450000X0.262500X-0.450000X-0.262500X0.450000X-0.262500X0.450000X0.262500X0*%
%ADD16RoundRect,0.250000X0.262500X0.450000X-0.262500X0.450000X-0.262500X-0.450000X0.262500X-0.450000X0*%
%ADD17RoundRect,0.250000X-0.262500X-0.450000X0.262500X-0.450000X0.262500X0.450000X-0.262500X0.450000X0*%
%ADD18RoundRect,0.250000X-0.250000X-0.475000X0.250000X-0.475000X0.250000X0.475000X-0.250000X0.475000X0*%
%ADD19RoundRect,0.250000X-0.159099X0.512652X-0.512652X0.159099X0.159099X-0.512652X0.512652X-0.159099X0*%
%ADD20R,1.500000X2.000000*%
%ADD21R,3.800000X2.000000*%
%ADD22R,0.600000X1.450000*%
%ADD23R,0.300000X1.450000*%
%ADD24RotRect,0.900000X0.800000X215.000000*%
%ADD25RoundRect,0.150000X-0.150000X0.650000X-0.150000X-0.650000X0.150000X-0.650000X0.150000X0.650000X0*%
%ADD26R,1.000000X1.700000*%
%ADD27RoundRect,0.150000X0.512500X0.150000X-0.512500X0.150000X-0.512500X-0.150000X0.512500X-0.150000X0*%
%ADD28RoundRect,0.250000X0.132583X-0.503814X0.503814X-0.132583X-0.132583X0.503814X-0.503814X0.132583X0*%
%ADD29RotRect,0.900000X0.800000X280.000000*%
%ADD30RotRect,1.400000X1.200000X135.000000*%
%ADD31RoundRect,0.250000X0.159099X-0.512652X0.512652X-0.159099X-0.159099X0.512652X-0.512652X0.159099X0*%
%ADD32RotRect,0.900000X0.800000X260.000000*%
%ADD33RotRect,0.900000X0.800000X325.000000*%
%ADD34RoundRect,0.250000X-0.413257X0.000000X0.000000X-0.413257X0.413257X0.000000X0.000000X0.413257X0*%
%ADD35RoundRect,0.050000X-0.309359X0.238649X0.238649X-0.309359X0.309359X-0.238649X-0.238649X0.309359X0*%
%ADD36RoundRect,0.050000X-0.309359X-0.238649X-0.238649X-0.309359X0.309359X0.238649X0.238649X0.309359X0*%
G04 APERTURE END LIST*
D10*
%TO.C,D10*%
X139596167Y-86237929D03*
X139728705Y-84342558D03*
X141657564Y-85429756D03*
%TD*%
D11*
%TO.C,C14*%
X157880000Y-56070000D03*
X157880000Y-54170000D03*
%TD*%
D12*
%TO.C,D19*%
X168931295Y-91452558D03*
X169063833Y-93347929D03*
X167002436Y-92539756D03*
%TD*%
D11*
%TO.C,C13*%
X155800000Y-56070000D03*
X155800000Y-54170000D03*
%TD*%
D12*
%TO.C,D14*%
X167141295Y-84292558D03*
X167273833Y-86187929D03*
X165212436Y-85379756D03*
%TD*%
D13*
%TO.C,C7*%
X158660000Y-71980000D03*
X158660000Y-73880000D03*
%TD*%
D10*
%TO.C,D1*%
X142606167Y-75447929D03*
X142738705Y-73552558D03*
X144667564Y-74639756D03*
%TD*%
D14*
%TO.C,F0*%
X164400000Y-41330000D03*
X161600000Y-41330000D03*
%TD*%
D15*
%TO.C,R1*%
X131920000Y-116357500D03*
X131920000Y-118182500D03*
%TD*%
D16*
%TO.C,R8*%
X163802500Y-119390000D03*
X161977500Y-119390000D03*
%TD*%
D10*
%TO.C,D2*%
X141486167Y-79017929D03*
X141618705Y-77122558D03*
X143547564Y-78209756D03*
%TD*%
D17*
%TO.C,R6*%
X160587500Y-38580000D03*
X162412500Y-38580000D03*
%TD*%
D13*
%TO.C,C6*%
X148805000Y-71980000D03*
X148805000Y-73880000D03*
%TD*%
D11*
%TO.C,C5*%
X134110000Y-118200000D03*
X134110000Y-116300000D03*
%TD*%
D10*
%TO.C,D5*%
X143411167Y-71857929D03*
X143543705Y-69962558D03*
X145472564Y-71049756D03*
%TD*%
D18*
%TO.C,C1*%
X161460000Y-43540000D03*
X163360000Y-43540000D03*
%TD*%
D10*
%TO.C,D11*%
X138566167Y-89817929D03*
X138698705Y-87922558D03*
X140627564Y-89009756D03*
%TD*%
D12*
%TO.C,D17*%
X163731295Y-70032558D03*
X163863833Y-71927929D03*
X161802436Y-71119756D03*
%TD*%
%TO.C,D13*%
X163051295Y-66402558D03*
X163183833Y-68297929D03*
X161122436Y-67489756D03*
%TD*%
D18*
%TO.C,C4*%
X164490000Y-54730000D03*
X166390000Y-54730000D03*
%TD*%
D10*
%TO.C,D6*%
X140776167Y-82617929D03*
X140908705Y-80722558D03*
X142837564Y-81809756D03*
%TD*%
D19*
%TO.C,C2*%
X157631751Y-87478249D03*
X156288249Y-88821751D03*
%TD*%
D20*
%TO.C,U1*%
X166590000Y-52180000D03*
D21*
X164290000Y-45880000D03*
D20*
X164290000Y-52180000D03*
X161990000Y-52180000D03*
%TD*%
D22*
%TO.C,J0*%
X150460000Y-37015000D03*
X151260000Y-37015000D03*
D23*
X152460000Y-37015000D03*
X153460000Y-37015000D03*
X153960000Y-37015000D03*
X154960000Y-37015000D03*
D22*
X156160000Y-37015000D03*
X156960000Y-37015000D03*
X156960000Y-37015000D03*
X156160000Y-37015000D03*
D23*
X155460000Y-37015000D03*
X154460000Y-37015000D03*
X152960000Y-37015000D03*
X151960000Y-37015000D03*
D22*
X151260000Y-37015000D03*
X150460000Y-37015000D03*
%TD*%
D24*
%TO.C,D22*%
X169704254Y-95338229D03*
X170794050Y-96894618D03*
X168610848Y-97263576D03*
%TD*%
D25*
%TO.C,U2*%
X136207500Y-110700000D03*
X137477500Y-110700000D03*
X138747500Y-110700000D03*
X140017500Y-110700000D03*
X140017500Y-117900000D03*
X138747500Y-117900000D03*
X137477500Y-117900000D03*
X136207500Y-117900000D03*
%TD*%
D26*
%TO.C,SW4*%
X175750000Y-111160000D03*
X175750000Y-117460000D03*
X179550000Y-117460000D03*
X179550000Y-111160000D03*
%TD*%
D27*
%TO.C,U44*%
X145597500Y-40910000D03*
X145597500Y-41860000D03*
X145597500Y-42810000D03*
X143322500Y-42810000D03*
X143322500Y-41860000D03*
X143322500Y-40910000D03*
%TD*%
D28*
%TO.C,R4*%
X149674765Y-108125235D03*
X150965235Y-106834765D03*
%TD*%
%TO.C,R3*%
X148214765Y-106695235D03*
X149505235Y-105404765D03*
%TD*%
D12*
%TO.C,D12*%
X164601295Y-73602558D03*
X164733833Y-75497929D03*
X162672436Y-74689756D03*
%TD*%
D29*
%TO.C,D8*%
X128780784Y-98980158D03*
X130651919Y-98650226D03*
X130063648Y-100784808D03*
%TD*%
D30*
%TO.C,Y0*%
X159366777Y-91768858D03*
X157811142Y-90213223D03*
X159013223Y-89011142D03*
X160568858Y-90566777D03*
%TD*%
D31*
%TO.C,C3*%
X160778249Y-93311751D03*
X162121751Y-91968249D03*
%TD*%
%TO.C,C10*%
X152258249Y-105551751D03*
X153601751Y-104208249D03*
%TD*%
D32*
%TO.C,D16*%
X176178081Y-98660226D03*
X178049216Y-98990158D03*
X176766352Y-100794808D03*
%TD*%
D28*
%TO.C,R5*%
X162234765Y-94715235D03*
X163525235Y-93424765D03*
%TD*%
D11*
%TO.C,C12*%
X153720000Y-56070000D03*
X153720000Y-54170000D03*
%TD*%
D26*
%TO.C,SW3*%
X173310000Y-111180000D03*
X173310000Y-117480000D03*
X169510000Y-117480000D03*
X169510000Y-111180000D03*
%TD*%
D12*
%TO.C,D21*%
X165421295Y-77182558D03*
X165553833Y-79077929D03*
X163492436Y-78269756D03*
%TD*%
D32*
%TO.C,D20*%
X172588081Y-98030226D03*
X174459216Y-98360158D03*
X173176352Y-100164808D03*
%TD*%
D11*
%TO.C,C11*%
X151650000Y-56060000D03*
X151650000Y-54160000D03*
%TD*%
D29*
%TO.C,D4*%
X132370784Y-98360158D03*
X134241919Y-98030226D03*
X133653648Y-100164808D03*
%TD*%
D16*
%TO.C,R7*%
X146712500Y-38610000D03*
X144887500Y-38610000D03*
%TD*%
D10*
%TO.C,D7*%
X137746167Y-93387929D03*
X137878705Y-91492558D03*
X139807564Y-92579756D03*
%TD*%
D18*
%TO.C,C17*%
X164470000Y-56850000D03*
X166370000Y-56850000D03*
%TD*%
D11*
%TO.C,C9*%
X149540000Y-56050000D03*
X149540000Y-54150000D03*
%TD*%
D33*
%TO.C,D3*%
X135975950Y-96894618D03*
X137065746Y-95338229D03*
X138159152Y-97263576D03*
%TD*%
D10*
%TO.C,D9*%
X144341167Y-68317929D03*
X144473705Y-66422558D03*
X146402564Y-67509756D03*
%TD*%
D34*
%TO.C,U3*%
X152813439Y-96770000D03*
X153715000Y-97671561D03*
X153715000Y-95868439D03*
X154616561Y-96770000D03*
D35*
X149445843Y-96177798D03*
X149728686Y-95894955D03*
X150011528Y-95612113D03*
X150294371Y-95329270D03*
X150577214Y-95046427D03*
X150860056Y-94763585D03*
X151142899Y-94480742D03*
X151425742Y-94197899D03*
X151708585Y-93915056D03*
X151991427Y-93632214D03*
X152274270Y-93349371D03*
X152557113Y-93066528D03*
X152839955Y-92783686D03*
X153122798Y-92500843D03*
D36*
X154307202Y-92500843D03*
X154590045Y-92783686D03*
X154872887Y-93066528D03*
X155155730Y-93349371D03*
X155438573Y-93632214D03*
X155721415Y-93915056D03*
X156004258Y-94197899D03*
X156287101Y-94480742D03*
X156569944Y-94763585D03*
X156852786Y-95046427D03*
X157135629Y-95329270D03*
X157418472Y-95612113D03*
X157701314Y-95894955D03*
X157984157Y-96177798D03*
D35*
X157984157Y-97362202D03*
X157701314Y-97645045D03*
X157418472Y-97927887D03*
X157135629Y-98210730D03*
X156852786Y-98493573D03*
X156569944Y-98776415D03*
X156287101Y-99059258D03*
X156004258Y-99342101D03*
X155721415Y-99624944D03*
X155438573Y-99907786D03*
X155155730Y-100190629D03*
X154872887Y-100473472D03*
X154590045Y-100756314D03*
X154307202Y-101039157D03*
D36*
X153122798Y-101039157D03*
X152839955Y-100756314D03*
X152557113Y-100473472D03*
X152274270Y-100190629D03*
X151991427Y-99907786D03*
X151708585Y-99624944D03*
X151425742Y-99342101D03*
X151142899Y-99059258D03*
X150860056Y-98776415D03*
X150577214Y-98493573D03*
X150294371Y-98210730D03*
X150011528Y-97927887D03*
X149728686Y-97645045D03*
X149445843Y-97362202D03*
%TD*%
D12*
%TO.C,D15*%
X167981295Y-87872558D03*
X168113833Y-89767929D03*
X166052436Y-88959756D03*
%TD*%
D19*
%TO.C,C8*%
X148031751Y-103878249D03*
X146688249Y-105221751D03*
%TD*%
D12*
%TO.C,D18*%
X166291295Y-80742558D03*
X166423833Y-82637929D03*
X164362436Y-81829756D03*
%TD*%
M02*
