%TF.GenerationSoftware,KiCad,Pcbnew,(6.0.9)*%
%TF.CreationDate,2022-11-29T23:43:42+01:00*%
%TF.ProjectId,knobdeavour,6b6e6f62-6465-4617-966f-75722e6b6963,1*%
%TF.SameCoordinates,Original*%
%TF.FileFunction,Soldermask,Top*%
%TF.FilePolarity,Negative*%
%FSLAX46Y46*%
G04 Gerber Fmt 4.6, Leading zero omitted, Abs format (unit mm)*
G04 Created by KiCad (PCBNEW (6.0.9)) date 2022-11-29 23:43:42*
%MOMM*%
%LPD*%
G01*
G04 APERTURE LIST*
G04 Aperture macros list*
%AMRoundRect*
0 Rectangle with rounded corners*
0 $1 Rounding radius*
0 $2 $3 $4 $5 $6 $7 $8 $9 X,Y pos of 4 corners*
0 Add a 4 corners polygon primitive as box body*
4,1,4,$2,$3,$4,$5,$6,$7,$8,$9,$2,$3,0*
0 Add four circle primitives for the rounded corners*
1,1,$1+$1,$2,$3*
1,1,$1+$1,$4,$5*
1,1,$1+$1,$6,$7*
1,1,$1+$1,$8,$9*
0 Add four rect primitives between the rounded corners*
20,1,$1+$1,$2,$3,$4,$5,0*
20,1,$1+$1,$4,$5,$6,$7,0*
20,1,$1+$1,$6,$7,$8,$9,0*
20,1,$1+$1,$8,$9,$2,$3,0*%
%AMHorizOval*
0 Thick line with rounded ends*
0 $1 width*
0 $2 $3 position (X,Y) of the first rounded end (center of the circle)*
0 $4 $5 position (X,Y) of the second rounded end (center of the circle)*
0 Add line between two ends*
20,1,$1,$2,$3,$4,$5,0*
0 Add two circle primitives to create the rounded ends*
1,1,$1,$2,$3*
1,1,$1,$4,$5*%
G04 Aperture macros list end*
%ADD10C,1.700000*%
%ADD11C,3.987800*%
%ADD12C,1.750000*%
%ADD13C,1.200000*%
%ADD14C,2.000000*%
%ADD15C,2.250000*%
%ADD16HorizOval,2.250000X0.044973X0.287189X-0.044973X-0.287189X0*%
%ADD17HorizOval,2.250000X0.716127X0.670140X-0.716127X-0.670140X0*%
%ADD18HorizOval,2.250000X0.117770X0.265764X-0.117770X-0.265764X0*%
%ADD19HorizOval,2.250000X0.865171X0.461958X-0.865171X-0.461958X0*%
%ADD20HorizOval,2.250000X-0.005580X0.290635X0.005580X-0.290635X0*%
%ADD21HorizOval,2.250000X0.588879X0.784313X-0.588879X-0.784313X0*%
%ADD22R,2.000000X3.200000*%
%ADD23R,2.000000X2.000000*%
%ADD24RoundRect,0.500000X0.500000X0.500000X-0.500000X0.500000X-0.500000X-0.500000X0.500000X-0.500000X0*%
%ADD25HorizOval,2.250000X0.069832X0.282177X-0.069832X-0.282177X0*%
%ADD26HorizOval,2.250000X0.771809X0.605175X-0.771809X-0.605175X0*%
%ADD27HorizOval,2.250000X0.019771X0.290016X-0.019771X-0.290016X0*%
%ADD28HorizOval,2.250000X0.654995X0.730004X-0.654995X-0.730004X0*%
%ADD29R,3.200000X2.000000*%
%ADD30HorizOval,2.250000X-0.080612X0.279288X0.080612X-0.279288X0*%
%ADD31HorizOval,2.250000X0.365818X0.910001X-0.365818X-0.910001X0*%
%ADD32HorizOval,2.250000X-0.030890X0.289043X0.030890X-0.289043X0*%
%ADD33HorizOval,2.250000X0.518281X0.832653X-0.518281X-0.832653X0*%
%ADD34C,0.650000*%
%ADD35O,1.000000X1.600000*%
%ADD36O,1.000000X2.100000*%
%ADD37R,1.700000X1.700000*%
%ADD38O,1.700000X1.700000*%
%ADD39R,1.000000X1.000000*%
G04 APERTURE END LIST*
D10*
%TO.C,K6*%
X68355929Y-60270643D03*
D11*
X73835000Y-60750000D03*
D12*
X68774331Y-60307249D03*
D13*
X68268810Y-64479065D03*
D10*
X79314071Y-61229357D03*
D12*
X78895669Y-61192751D03*
D14*
X79147165Y-57400239D03*
D15*
X76808086Y-55910707D03*
D16*
X76762661Y-56197824D03*
D15*
X71693136Y-56547332D03*
D14*
X74349219Y-54872451D03*
D17*
X70977001Y-57217462D03*
%TD*%
D10*
%TO.C,K16*%
X114446691Y-110088889D03*
D11*
X119615000Y-111970000D03*
D10*
X124783309Y-113851111D03*
D12*
X114841361Y-110232538D03*
D13*
X113273320Y-114131364D03*
D12*
X124388639Y-113707462D03*
D15*
X123739282Y-108065093D03*
D14*
X125613140Y-110109269D03*
D18*
X123621092Y-108330670D03*
D19*
X117768673Y-107818126D03*
D14*
X121632919Y-106425814D03*
D15*
X118633849Y-107356179D03*
%TD*%
D11*
%TO.C,K35*%
X216205000Y-81300000D03*
D10*
X221684071Y-80820643D03*
D12*
X211144331Y-81742751D03*
D13*
X211370918Y-85938971D03*
D10*
X210725929Y-81779357D03*
D12*
X221265669Y-80857249D03*
D14*
X220854782Y-77078681D03*
D15*
X218292583Y-76017955D03*
D20*
X218297706Y-76308600D03*
D21*
X212777002Y-78317416D03*
D14*
X215690781Y-75422451D03*
D15*
X213365890Y-77533111D03*
%TD*%
D22*
%TO.C,SW2*%
X148125000Y-66210000D03*
X159325000Y-66210000D03*
D23*
X151225000Y-73710000D03*
D14*
X156225000Y-73710000D03*
X153725000Y-73710000D03*
D24*
X156225000Y-58760000D03*
D14*
X151225000Y-59210000D03*
%TD*%
D12*
%TO.C,K12*%
X95997823Y-107552133D03*
D11*
X90995000Y-106670000D03*
D10*
X96411443Y-107625065D03*
X85578557Y-105714935D03*
D12*
X85992177Y-105787867D03*
D13*
X85124981Y-109899749D03*
D25*
X94308268Y-102390309D03*
D14*
X96578902Y-103795971D03*
D15*
X94378544Y-102108243D03*
D26*
X88455758Y-102901814D03*
D14*
X92019524Y-100859634D03*
D15*
X89227573Y-102296649D03*
%TD*%
D10*
%TO.C,K20*%
X256344071Y-39520643D03*
D12*
X255925669Y-39557249D03*
D11*
X250865000Y-40000000D03*
D13*
X246030918Y-44638971D03*
D12*
X245804331Y-40442751D03*
D10*
X245385929Y-40479357D03*
D20*
X252957706Y-35008600D03*
D14*
X255514782Y-35778681D03*
D15*
X252952583Y-34717955D03*
D21*
X247437002Y-37017416D03*
D14*
X250350781Y-34122451D03*
D15*
X248025890Y-36233111D03*
%TD*%
D13*
%TO.C,K22*%
X148505000Y-70410000D03*
D11*
X153725000Y-66210000D03*
D10*
X148225000Y-66210000D03*
D12*
X158805000Y-66210000D03*
X148645000Y-66210000D03*
D10*
X159225000Y-66210000D03*
D27*
X156244771Y-61419984D03*
D15*
X156265000Y-61130000D03*
D14*
X158725000Y-62410000D03*
X153725000Y-60310000D03*
D15*
X151225000Y-62210000D03*
D28*
X150569995Y-62939996D03*
%TD*%
D13*
%TO.C,K7*%
X66608810Y-83439065D03*
D12*
X67114331Y-79267249D03*
D10*
X66695929Y-79230643D03*
X77654071Y-80189357D03*
D11*
X72175000Y-79710000D03*
D12*
X77235669Y-80152751D03*
D16*
X75102661Y-75157824D03*
D14*
X77487165Y-76360239D03*
D15*
X75148086Y-74870707D03*
X70033136Y-75507332D03*
D17*
X69317001Y-76177462D03*
D14*
X72689219Y-73832451D03*
%TD*%
D10*
%TO.C,K31*%
X191795929Y-83449357D03*
D12*
X192214331Y-83412751D03*
D11*
X197275000Y-82970000D03*
D12*
X202335669Y-82527249D03*
D13*
X192440918Y-87608971D03*
D10*
X202754071Y-82490643D03*
D15*
X199362583Y-77687955D03*
D20*
X199367706Y-77978600D03*
D14*
X201924782Y-78748681D03*
X196760781Y-77092451D03*
D21*
X193847002Y-79987416D03*
D15*
X194435890Y-79203111D03*
%TD*%
D11*
%TO.C,K5*%
X75485000Y-41760000D03*
D10*
X70005929Y-41280643D03*
X80964071Y-42239357D03*
D12*
X80545669Y-42202751D03*
D13*
X69918810Y-45489065D03*
D12*
X70424331Y-41317249D03*
D14*
X80797165Y-38410239D03*
D15*
X78458086Y-36920707D03*
D16*
X78412661Y-37207824D03*
D15*
X73343136Y-37557332D03*
D14*
X75999219Y-35882451D03*
D17*
X72627001Y-38227462D03*
%TD*%
D29*
%TO.C,SW1*%
X153715000Y-119970000D03*
X153715000Y-108770000D03*
D23*
X146215000Y-111870000D03*
D14*
X146215000Y-116870000D03*
X146215000Y-114370000D03*
X160715000Y-116870000D03*
X160715000Y-111870000D03*
%TD*%
D10*
%TO.C,K15*%
X115614071Y-83529357D03*
D13*
X104568810Y-86779065D03*
D12*
X115195669Y-83492751D03*
D10*
X104655929Y-82570643D03*
D12*
X105074331Y-82607249D03*
D11*
X110135000Y-83050000D03*
D16*
X113062661Y-78497824D03*
D15*
X113108086Y-78210707D03*
D14*
X115447165Y-79700239D03*
X110649219Y-77172451D03*
D15*
X107993136Y-78847332D03*
D17*
X107277001Y-79517462D03*
%TD*%
D12*
%TO.C,K27*%
X183365669Y-84237249D03*
D13*
X173470918Y-89318971D03*
D10*
X172825929Y-85159357D03*
X183784071Y-84200643D03*
D11*
X178305000Y-84680000D03*
D12*
X173244331Y-85122751D03*
D15*
X180392583Y-79397955D03*
D14*
X182954782Y-80458681D03*
D20*
X180397706Y-79688600D03*
D14*
X177790781Y-78802451D03*
D15*
X175465890Y-80913111D03*
D21*
X174877002Y-81697416D03*
%TD*%
D11*
%TO.C,K39*%
X235195000Y-79630000D03*
D12*
X240255669Y-79187249D03*
D10*
X240674071Y-79150643D03*
D12*
X230134331Y-80072751D03*
D13*
X230360918Y-84268971D03*
D10*
X229715929Y-80109357D03*
D20*
X237287706Y-74638600D03*
D14*
X239844782Y-75408681D03*
D15*
X237282583Y-74347955D03*
D21*
X231767002Y-76647416D03*
D15*
X232355890Y-75863111D03*
D14*
X234680781Y-73752451D03*
%TD*%
D12*
%TO.C,K25*%
X179985669Y-46247249D03*
D10*
X180404071Y-46210643D03*
D12*
X169864331Y-47132751D03*
D11*
X174925000Y-46690000D03*
D10*
X169445929Y-47169357D03*
D13*
X170090918Y-51328971D03*
D15*
X177012583Y-41407955D03*
D20*
X177017706Y-41698600D03*
D14*
X179574782Y-42468681D03*
D21*
X171497002Y-43707416D03*
D14*
X174410781Y-40812451D03*
D15*
X172085890Y-42923111D03*
%TD*%
D12*
%TO.C,K18*%
X135825669Y-66182751D03*
D10*
X125285929Y-65260643D03*
D11*
X130765000Y-65740000D03*
D13*
X125198810Y-69469065D03*
D12*
X125704331Y-65297249D03*
D10*
X136244071Y-66219357D03*
D14*
X136077165Y-62390239D03*
D16*
X133692661Y-61187824D03*
D15*
X133738086Y-60900707D03*
D14*
X131279219Y-59862451D03*
D15*
X128623136Y-61537332D03*
D17*
X127907001Y-62207462D03*
%TD*%
D10*
%TO.C,K33*%
X207395929Y-43849357D03*
D12*
X217935669Y-42927249D03*
D10*
X218354071Y-42890643D03*
D12*
X207814331Y-43812751D03*
D11*
X212875000Y-43370000D03*
D13*
X208040918Y-48008971D03*
D14*
X217524782Y-39148681D03*
D15*
X214962583Y-38087955D03*
D20*
X214967706Y-38378600D03*
D14*
X212360781Y-37492451D03*
D21*
X209447002Y-40387416D03*
D15*
X210035890Y-39603111D03*
%TD*%
D11*
%TO.C,K41*%
X254185000Y-77970000D03*
D12*
X249124331Y-78412751D03*
X259245669Y-77527249D03*
D10*
X248705929Y-78449357D03*
X259664071Y-77490643D03*
D13*
X249350918Y-82608971D03*
D20*
X256277706Y-72978600D03*
D14*
X258834782Y-73748681D03*
D15*
X256272583Y-72687955D03*
D21*
X250757002Y-74987416D03*
D14*
X253670781Y-72092451D03*
D15*
X251345890Y-74203111D03*
%TD*%
D10*
%TO.C,K2*%
X60314071Y-59579357D03*
X49355929Y-58620643D03*
D11*
X54835000Y-59100000D03*
D12*
X49774331Y-58657249D03*
D13*
X49268810Y-62829065D03*
D12*
X59895669Y-59542751D03*
D16*
X57762661Y-54547824D03*
D15*
X57808086Y-54260707D03*
D14*
X60147165Y-55750239D03*
D17*
X51977001Y-55567462D03*
D15*
X52693136Y-54897332D03*
D14*
X55349219Y-53222451D03*
%TD*%
D10*
%TO.C,K10*%
X98274071Y-62909357D03*
D13*
X87228810Y-66159065D03*
D12*
X87734331Y-61987249D03*
D10*
X87315929Y-61950643D03*
D12*
X97855669Y-62872751D03*
D11*
X92795000Y-62430000D03*
D15*
X95768086Y-57590707D03*
D14*
X98107165Y-59080239D03*
D16*
X95722661Y-57877824D03*
D15*
X90653136Y-58227332D03*
D14*
X93309219Y-56552451D03*
D17*
X89937001Y-58897462D03*
%TD*%
D10*
%TO.C,K36*%
X231795929Y-103879357D03*
X242754071Y-102920643D03*
D13*
X232440918Y-108038971D03*
D12*
X242335669Y-102957249D03*
D11*
X237275000Y-103400000D03*
D12*
X232214331Y-103842751D03*
D20*
X239367706Y-98408600D03*
D14*
X241924782Y-99178681D03*
D15*
X239362583Y-98117955D03*
D14*
X236760781Y-97522451D03*
D15*
X234435890Y-99633111D03*
D21*
X233847002Y-100417416D03*
%TD*%
D12*
%TO.C,K21*%
X158715000Y-47200000D03*
X148555000Y-47200000D03*
D10*
X159135000Y-47200000D03*
D11*
X153635000Y-47200000D03*
D13*
X148415000Y-51400000D03*
D10*
X148135000Y-47200000D03*
D15*
X156175000Y-42120000D03*
D27*
X156154771Y-42409984D03*
D14*
X158635000Y-43400000D03*
D15*
X151135000Y-43200000D03*
D28*
X150479995Y-43929996D03*
D14*
X153635000Y-41300000D03*
%TD*%
D12*
%TO.C,K26*%
X181695669Y-65227249D03*
D10*
X182114071Y-65190643D03*
D12*
X171574331Y-66112751D03*
D13*
X171800918Y-70308971D03*
D10*
X171155929Y-66149357D03*
D11*
X176635000Y-65670000D03*
D14*
X181284782Y-61448681D03*
D15*
X178722583Y-60387955D03*
D20*
X178727706Y-60678600D03*
D14*
X176120781Y-59792451D03*
D21*
X173207002Y-62687416D03*
D15*
X173795890Y-61903111D03*
%TD*%
D12*
%TO.C,K8*%
X65044331Y-103037249D03*
D10*
X64625929Y-103000643D03*
D13*
X64538810Y-107209065D03*
D10*
X75584071Y-103959357D03*
D12*
X75165669Y-103922751D03*
D11*
X70105000Y-103480000D03*
D14*
X75417165Y-100130239D03*
D15*
X73078086Y-98640707D03*
D16*
X73032661Y-98927824D03*
D15*
X67963136Y-99277332D03*
D14*
X70619219Y-97602451D03*
D17*
X67247001Y-99947462D03*
%TD*%
D12*
%TO.C,K1*%
X61575669Y-40552751D03*
D10*
X61994071Y-40589357D03*
D13*
X50948810Y-43839065D03*
D12*
X51454331Y-39667249D03*
D11*
X56515000Y-40110000D03*
D10*
X51035929Y-39630643D03*
D15*
X59488086Y-35270707D03*
D16*
X59442661Y-35557824D03*
D14*
X61827165Y-36760239D03*
D17*
X53657001Y-36577462D03*
D15*
X54373136Y-35907332D03*
D14*
X57029219Y-34232451D03*
%TD*%
D12*
%TO.C,K30*%
X200655669Y-63547249D03*
D10*
X201074071Y-63510643D03*
D11*
X195595000Y-63990000D03*
D13*
X190760918Y-68628971D03*
D10*
X190115929Y-64469357D03*
D12*
X190534331Y-64432751D03*
D15*
X197682583Y-58707955D03*
D20*
X197687706Y-58998600D03*
D14*
X200244782Y-59768681D03*
X195080781Y-58112451D03*
D15*
X192755890Y-60223111D03*
D21*
X192167002Y-61007416D03*
%TD*%
D11*
%TO.C,K34*%
X214605000Y-62300000D03*
D13*
X209770918Y-66938971D03*
D10*
X209125929Y-62779357D03*
D12*
X209544331Y-62742751D03*
D10*
X220084071Y-61820643D03*
D12*
X219665669Y-61857249D03*
D14*
X219254782Y-58078681D03*
D15*
X216692583Y-57017955D03*
D20*
X216697706Y-57308600D03*
D14*
X214090781Y-56422451D03*
D15*
X211765890Y-58533111D03*
D21*
X211177002Y-59317416D03*
%TD*%
D11*
%TO.C,K28*%
X187855000Y-111950000D03*
D10*
X193023309Y-110068889D03*
D13*
X184386289Y-117682054D03*
D10*
X182686691Y-113831111D03*
D12*
X183081361Y-113687462D03*
X192628639Y-110212538D03*
D15*
X188504357Y-106307630D03*
D14*
X191253787Y-106669067D03*
D30*
X188584529Y-106587045D03*
D14*
X185837081Y-106405814D03*
D31*
X183771858Y-109956276D03*
D15*
X184137688Y-109046280D03*
%TD*%
D12*
%TO.C,K11*%
X96195669Y-81852751D03*
D10*
X85655929Y-80930643D03*
D13*
X85568810Y-85139065D03*
D12*
X86074331Y-80967249D03*
D11*
X91135000Y-81410000D03*
D10*
X96614071Y-81889357D03*
D14*
X96447165Y-78060239D03*
D15*
X94108086Y-76570707D03*
D16*
X94062661Y-76857824D03*
D17*
X88277001Y-77877462D03*
D14*
X91649219Y-75532451D03*
D15*
X88993136Y-77207332D03*
%TD*%
D12*
%TO.C,K38*%
X228514331Y-61112751D03*
D11*
X233575000Y-60670000D03*
D10*
X228095929Y-61149357D03*
D12*
X238635669Y-60227249D03*
D10*
X239054071Y-60190643D03*
D13*
X228740918Y-65308971D03*
D15*
X235662583Y-55387955D03*
D14*
X238224782Y-56448681D03*
D20*
X235667706Y-55678600D03*
D14*
X233060781Y-54792451D03*
D15*
X230735890Y-56903111D03*
D21*
X230147002Y-57687416D03*
%TD*%
D11*
%TO.C,K9*%
X94465000Y-43440000D03*
D10*
X88985929Y-42960643D03*
D13*
X88898810Y-47169065D03*
D10*
X99944071Y-43919357D03*
D12*
X99525669Y-43882751D03*
X89404331Y-42997249D03*
D14*
X99777165Y-40090239D03*
D15*
X97438086Y-38600707D03*
D16*
X97392661Y-38887824D03*
D17*
X91607001Y-39907462D03*
D14*
X94979219Y-37562451D03*
D15*
X92323136Y-39237332D03*
%TD*%
D10*
%TO.C,K4*%
X56664071Y-102279357D03*
D12*
X46124331Y-101357249D03*
D10*
X45705929Y-101320643D03*
D13*
X45618810Y-105529065D03*
D12*
X56245669Y-102242751D03*
D11*
X51185000Y-101800000D03*
D16*
X54112661Y-97247824D03*
D15*
X54158086Y-96960707D03*
D14*
X56497165Y-98450239D03*
D17*
X48327001Y-98267462D03*
D14*
X51699219Y-95922451D03*
D15*
X49043136Y-97597332D03*
%TD*%
D12*
%TO.C,K37*%
X236955669Y-41247249D03*
D10*
X226415929Y-42169357D03*
X237374071Y-41210643D03*
D13*
X227060918Y-46328971D03*
D12*
X226834331Y-42132751D03*
D11*
X231895000Y-41690000D03*
D20*
X233987706Y-36698600D03*
D15*
X233982583Y-36407955D03*
D14*
X236544782Y-37468681D03*
D15*
X229055890Y-37923111D03*
D14*
X231380781Y-35812451D03*
D21*
X228467002Y-38707416D03*
%TD*%
D11*
%TO.C,K40*%
X256235000Y-101730000D03*
D12*
X251174331Y-102172751D03*
X261295669Y-101287249D03*
D13*
X251400918Y-106368971D03*
D10*
X261714071Y-101250643D03*
X250755929Y-102209357D03*
D20*
X258327706Y-96738600D03*
D15*
X258322583Y-96447955D03*
D14*
X260884782Y-97508681D03*
X255720781Y-95852451D03*
D21*
X252807002Y-98747416D03*
D15*
X253395890Y-97963111D03*
%TD*%
D12*
%TO.C,K24*%
X247474331Y-59452751D03*
X257595669Y-58567249D03*
D10*
X247055929Y-59489357D03*
D13*
X247700918Y-63648971D03*
D10*
X258014071Y-58530643D03*
D11*
X252535000Y-59010000D03*
D15*
X254622583Y-53727955D03*
D14*
X257184782Y-54788681D03*
D20*
X254627706Y-54018600D03*
D21*
X249107002Y-56027416D03*
D14*
X252020781Y-53132451D03*
D15*
X249695890Y-55243111D03*
%TD*%
D13*
%TO.C,K32*%
X211983626Y-111602636D03*
D12*
X221397823Y-105677867D03*
D11*
X216395000Y-106560000D03*
D10*
X210978557Y-107515065D03*
D12*
X211392177Y-107442133D03*
D10*
X221811443Y-105604935D03*
D15*
X218014279Y-101116110D03*
D14*
X220659176Y-101949490D03*
D32*
X218044713Y-101405202D03*
D33*
X212720097Y-103887535D03*
D15*
X213238388Y-103054889D03*
D14*
X215370476Y-100749634D03*
%TD*%
D11*
%TO.C,K29*%
X193925000Y-45020000D03*
D12*
X188864331Y-45462751D03*
D10*
X199404071Y-44540643D03*
D13*
X189090918Y-49658971D03*
D12*
X198985669Y-44577249D03*
D10*
X188445929Y-45499357D03*
D14*
X198574782Y-40798681D03*
D15*
X196012583Y-39737955D03*
D20*
X196017706Y-40028600D03*
D14*
X193410781Y-39142451D03*
D21*
X190497002Y-42037416D03*
D15*
X191085890Y-41253111D03*
%TD*%
D13*
%TO.C,K3*%
X47628810Y-81799065D03*
D10*
X47715929Y-77590643D03*
D12*
X58255669Y-78512751D03*
D11*
X53195000Y-78070000D03*
D10*
X58674071Y-78549357D03*
D12*
X48134331Y-77627249D03*
D16*
X56122661Y-73517824D03*
D14*
X58507165Y-74720239D03*
D15*
X56168086Y-73230707D03*
D14*
X53709219Y-72192451D03*
D17*
X50337001Y-74537462D03*
D15*
X51053136Y-73867332D03*
%TD*%
D10*
%TO.C,K23*%
X148215000Y-85300000D03*
D13*
X148495000Y-89500000D03*
D12*
X148635000Y-85300000D03*
D11*
X153715000Y-85300000D03*
D10*
X159215000Y-85300000D03*
D12*
X158795000Y-85300000D03*
D15*
X156255000Y-80220000D03*
D27*
X156234771Y-80509984D03*
D14*
X158715000Y-81500000D03*
D28*
X150559995Y-82029996D03*
D14*
X153715000Y-79400000D03*
D15*
X151215000Y-81300000D03*
%TD*%
D13*
%TO.C,K14*%
X106218810Y-67819065D03*
D10*
X106305929Y-63610643D03*
D11*
X111785000Y-64090000D03*
D12*
X106724331Y-63647249D03*
D10*
X117264071Y-64569357D03*
D12*
X116845669Y-64532751D03*
D14*
X117097165Y-60740239D03*
D16*
X114712661Y-59537824D03*
D15*
X114758086Y-59250707D03*
D17*
X108927001Y-60557462D03*
D15*
X109643136Y-59887332D03*
D14*
X112299219Y-58212451D03*
%TD*%
D13*
%TO.C,K19*%
X123566645Y-88408826D03*
D10*
X123653764Y-84200404D03*
D11*
X129132835Y-84679761D03*
D10*
X134611906Y-85159118D03*
D12*
X134193504Y-85122512D03*
X124072166Y-84237010D03*
D15*
X132105921Y-79840468D03*
D14*
X134445000Y-81330000D03*
D16*
X132060496Y-80127585D03*
D15*
X126990971Y-80477093D03*
D17*
X126274836Y-81147223D03*
D14*
X129647054Y-78802212D03*
%TD*%
D11*
%TO.C,K17*%
X132405000Y-46790000D03*
D12*
X137465669Y-47232751D03*
D10*
X126925929Y-46310643D03*
D12*
X127344331Y-46347249D03*
D10*
X137884071Y-47269357D03*
D13*
X126838810Y-50519065D03*
D14*
X137717165Y-43440239D03*
D15*
X135378086Y-41950707D03*
D16*
X135332661Y-42237824D03*
D17*
X129547001Y-43257462D03*
D14*
X132919219Y-40912451D03*
D15*
X130263136Y-42587332D03*
%TD*%
D12*
%TO.C,K13*%
X108384331Y-44657249D03*
D13*
X107878810Y-48829065D03*
D10*
X118924071Y-45579357D03*
D11*
X113445000Y-45100000D03*
D12*
X118505669Y-45542751D03*
D10*
X107965929Y-44620643D03*
D16*
X116372661Y-40547824D03*
D15*
X116418086Y-40260707D03*
D14*
X118757165Y-41750239D03*
D15*
X111303136Y-40897332D03*
D17*
X110587001Y-41567462D03*
D14*
X113959219Y-39222451D03*
%TD*%
D34*
%TO.C,J0*%
X156600000Y-35570000D03*
X150820000Y-35570000D03*
D35*
X149390000Y-31920000D03*
D36*
X149390000Y-36100000D03*
D35*
X158030000Y-31920000D03*
D36*
X158030000Y-36100000D03*
%TD*%
D37*
%TO.C,J2*%
X144945000Y-45545000D03*
D38*
X144945000Y-48085000D03*
X144945000Y-50625000D03*
%TD*%
D37*
%TO.C,J1*%
X166225000Y-119400000D03*
D38*
X166225000Y-116860000D03*
X166225000Y-114320000D03*
X166225000Y-111780000D03*
X166225000Y-109240000D03*
%TD*%
D37*
%TO.C,J3*%
X156660000Y-108815000D03*
D38*
X159200000Y-108815000D03*
%TD*%
D39*
%TO.C,J4*%
X153685000Y-69620000D03*
%TD*%
M02*
