M48
; DRILL file {KiCad (6.0.7)} date Mon 19 Sep 2022 14:16:06 CEST
; FORMAT={-:-/ absolute / metric / decimal}
; #@! TF.CreationDate,2022-09-19T14:16:06+02:00
; #@! TF.GenerationSoftware,Kicad,Pcbnew,(6.0.7)
; #@! TF.FileFunction,NonPlated,1,2,NPTH
FMAT,2
METRIC
; #@! TA.AperFunction,NonPlated,NPTH,ComponentDrill
T1C0.650
; #@! TA.AperFunction,NonPlated,NPTH,ComponentDrill
T2C1.200
; #@! TA.AperFunction,NonPlated,NPTH,ComponentDrill
T3C1.500
; #@! TA.AperFunction,NonPlated,NPTH,ComponentDrill
T4C1.700
; #@! TA.AperFunction,NonPlated,NPTH,ComponentDrill
T5C1.750
; #@! TA.AperFunction,NonPlated,NPTH,ComponentDrill
T6C3.988
%
G90
G05
T1
X150.82Y-35.57
X156.6Y-35.57
T2
X45.619Y-105.529
X47.629Y-81.799
X49.269Y-62.829
X50.949Y-43.839
X64.539Y-107.209
X66.609Y-83.439
X68.269Y-64.479
X69.919Y-45.489
X85.125Y-109.9
X85.569Y-85.139
X87.229Y-66.159
X88.899Y-47.169
X104.569Y-86.779
X106.219Y-67.819
X107.879Y-48.829
X113.273Y-114.131
X123.567Y-88.409
X125.199Y-69.469
X126.839Y-50.519
X148.415Y-51.4
X148.495Y-89.5
X148.505Y-70.41
X170.091Y-51.329
X171.801Y-70.309
X173.471Y-89.319
X184.386Y-117.682
X189.091Y-49.659
X190.761Y-68.629
X192.441Y-87.609
X208.041Y-48.009
X209.771Y-66.939
X211.371Y-85.939
X211.984Y-111.603
X227.061Y-46.329
X228.741Y-65.309
X230.361Y-84.269
X232.441Y-108.039
X246.031Y-44.639
X247.701Y-63.649
X249.351Y-82.609
X251.401Y-106.369
T4
X45.706Y-101.321
X47.716Y-77.591
X49.356Y-58.621
X51.036Y-39.631
X56.664Y-102.279
X58.674Y-78.549
X60.314Y-59.579
X61.994Y-40.589
X64.626Y-103.001
X66.696Y-79.231
X68.356Y-60.271
X70.006Y-41.281
X75.584Y-103.959
X77.654Y-80.189
X79.314Y-61.229
X80.964Y-42.239
X85.579Y-105.715
X85.656Y-80.931
X87.316Y-61.951
X88.986Y-42.961
X96.411Y-107.625
X96.614Y-81.889
X98.274Y-62.909
X99.944Y-43.919
X104.656Y-82.571
X106.306Y-63.611
X107.966Y-44.621
X114.447Y-110.089
X115.614Y-83.529
X117.264Y-64.569
X118.924Y-45.579
X123.654Y-84.2
X124.783Y-113.851
X125.286Y-65.261
X126.926Y-46.311
X134.612Y-85.159
X136.244Y-66.219
X137.884Y-47.269
X148.135Y-47.2
X148.215Y-85.3
X148.225Y-66.21
X159.135Y-47.2
X159.215Y-85.3
X159.225Y-66.21
X169.446Y-47.169
X171.156Y-66.149
X172.826Y-85.159
X180.404Y-46.211
X182.114Y-65.191
X182.687Y-113.831
X183.784Y-84.201
X188.446Y-45.499
X190.116Y-64.469
X191.796Y-83.449
X193.023Y-110.069
X199.404Y-44.541
X201.074Y-63.511
X202.754Y-82.491
X207.396Y-43.849
X209.126Y-62.779
X210.726Y-81.779
X210.979Y-107.515
X218.354Y-42.891
X220.084Y-61.821
X221.684Y-80.821
X221.811Y-105.605
X226.416Y-42.169
X228.096Y-61.149
X229.716Y-80.109
X231.796Y-103.879
X237.374Y-41.211
X239.054Y-60.191
X240.674Y-79.151
X242.754Y-102.921
X245.386Y-40.479
X247.056Y-59.489
X248.706Y-78.449
X250.756Y-102.209
X256.344Y-39.521
X258.014Y-58.531
X259.664Y-77.491
X261.714Y-101.251
T5
X46.124Y-101.357
X48.134Y-77.627
X49.774Y-58.657
X51.454Y-39.667
X56.246Y-102.243
X58.256Y-78.513
X59.896Y-59.543
X61.576Y-40.553
X65.044Y-103.037
X67.114Y-79.267
X68.774Y-60.307
X70.424Y-41.317
X75.166Y-103.923
X77.236Y-80.153
X78.896Y-61.193
X80.546Y-42.203
X85.992Y-105.788
X86.074Y-80.967
X87.734Y-61.987
X89.404Y-42.997
X95.998Y-107.552
X96.196Y-81.853
X97.856Y-62.873
X99.526Y-43.883
X105.074Y-82.607
X106.724Y-63.647
X108.384Y-44.657
X114.841Y-110.233
X115.196Y-83.493
X116.846Y-64.533
X118.506Y-45.543
X124.072Y-84.237
X124.389Y-113.707
X125.704Y-65.297
X127.344Y-46.347
X134.194Y-85.123
X135.826Y-66.183
X137.466Y-47.233
X148.555Y-47.2
X148.635Y-85.3
X148.645Y-66.21
X158.715Y-47.2
X158.795Y-85.3
X158.805Y-66.21
X169.864Y-47.133
X171.574Y-66.113
X173.244Y-85.123
X179.986Y-46.247
X181.696Y-65.227
X183.081Y-113.687
X183.366Y-84.237
X188.864Y-45.463
X190.534Y-64.433
X192.214Y-83.413
X192.629Y-110.213
X198.986Y-44.577
X200.656Y-63.547
X202.336Y-82.527
X207.814Y-43.813
X209.544Y-62.743
X211.144Y-81.743
X211.392Y-107.442
X217.936Y-42.927
X219.666Y-61.857
X221.266Y-80.857
X221.398Y-105.678
X226.834Y-42.133
X228.514Y-61.113
X230.134Y-80.073
X232.214Y-103.843
X236.956Y-41.247
X238.636Y-60.227
X240.256Y-79.187
X242.336Y-102.957
X245.804Y-40.443
X247.474Y-59.453
X249.124Y-78.413
X251.174Y-102.173
X255.926Y-39.557
X257.596Y-58.567
X259.246Y-77.527
X261.296Y-101.287
T6
X51.185Y-101.8
X53.195Y-78.07
X54.835Y-59.1
X56.515Y-40.11
X70.105Y-103.48
X72.175Y-79.71
X73.835Y-60.75
X75.485Y-41.76
X90.995Y-106.67
X91.135Y-81.41
X92.795Y-62.43
X94.465Y-43.44
X110.135Y-83.05
X111.785Y-64.09
X113.445Y-45.1
X119.615Y-111.97
X129.133Y-84.68
X130.765Y-65.74
X132.405Y-46.79
X153.635Y-47.2
X153.715Y-85.3
X153.725Y-66.21
X174.925Y-46.69
X176.635Y-65.67
X178.305Y-84.68
X187.855Y-111.95
X193.925Y-45.02
X195.595Y-63.99
X197.275Y-82.97
X212.875Y-43.37
X214.605Y-62.3
X216.205Y-81.3
X216.395Y-106.56
X231.895Y-41.69
X233.575Y-60.67
X235.195Y-79.63
X237.275Y-103.4
X250.865Y-40.0
X252.535Y-59.01
X254.185Y-77.97
X256.235Y-101.73
T3
G00X148.125Y-66.86
M15
G01X148.125Y-65.56
M16
G05
G00X153.065Y-108.77
M15
G01X154.365Y-108.77
M16
G05
G00X153.065Y-119.97
M15
G01X154.365Y-119.97
M16
G05
G00X159.325Y-66.86
M15
G01X159.325Y-65.56
M16
G05
T0
M30
